<svg width="17" height="17" viewBox="0 0 17 17" fill="none" xmlns="http://www.w3.org/2000/svg">
<path d="M6.74303 6.30498L3.6857 9.36231C3.49819 9.54991 3.39288 9.80431 3.39294 10.0695C3.39301 10.3348 3.49843 10.5891 3.68603 10.7766C3.87363 10.9642 4.12803 11.0695 4.39326 11.0694C4.6585 11.0693 4.91285 10.9639 5.10036 10.7763L8.15703 7.71898C8.18799 7.68794 8.22478 7.66331 8.26527 7.6465C8.30577 7.6297 8.34918 7.62105 8.39303 7.62105C8.43687 7.62105 8.48029 7.6297 8.52078 7.6465C8.56128 7.66331 8.59807 7.68794 8.62903 7.71898L11.6857 10.7763C11.8732 10.9639 12.1276 11.0693 12.3928 11.0694C12.658 11.0695 12.9124 10.9642 13.1 10.7766C13.2876 10.5891 13.3931 10.3348 13.3931 10.0695C13.3932 9.80431 13.2879 9.54991 13.1004 9.36231L10.043 6.30498C9.60501 5.86816 9.01164 5.62285 8.39303 5.62285C7.77442 5.62285 7.18105 5.86816 6.74303 6.30498Z" fill="#021323"/>
</svg>
