<svg width="17" height="17" viewBox="0 0 17 17" fill="none" xmlns="http://www.w3.org/2000/svg">
<g clip-path="url(#clip0_103_13901)">
<path d="M5.05973 0.804993H3.05973C2.35249 0.804993 1.67421 1.08594 1.17412 1.58604C0.674018 2.08614 0.393066 2.76442 0.393066 3.47166L0.393066 5.47166C0.393066 6.1789 0.674018 6.85718 1.17412 7.35728C1.67421 7.85737 2.35249 8.13833 3.05973 8.13833H5.05973C5.76698 8.13833 6.44525 7.85737 6.94535 7.35728C7.44545 6.85718 7.7264 6.1789 7.7264 5.47166V3.47166C7.7264 2.76442 7.44545 2.08614 6.94535 1.58604C6.44525 1.08594 5.76698 0.804993 5.05973 0.804993ZM6.39307 5.47166C6.39307 5.82528 6.25259 6.16442 6.00254 6.41447C5.75249 6.66452 5.41336 6.80499 5.05973 6.80499H3.05973C2.70611 6.80499 2.36697 6.66452 2.11692 6.41447C1.86688 6.16442 1.7264 5.82528 1.7264 5.47166V3.47166C1.7264 3.11804 1.86688 2.7789 2.11692 2.52885C2.36697 2.2788 2.70611 2.13833 3.05973 2.13833H5.05973C5.41336 2.13833 5.75249 2.2788 6.00254 2.52885C6.25259 2.7789 6.39307 3.11804 6.39307 3.47166V5.47166Z" fill="#14062E"/>
<path d="M5.05973 9.47168H3.05973C2.35249 9.47168 1.67421 9.75263 1.17412 10.2527C0.674018 10.7528 0.393066 11.4311 0.393066 12.1383L0.393066 14.1383C0.393066 14.8456 0.674018 15.5239 1.17412 16.024C1.67421 16.5241 2.35249 16.805 3.05973 16.805H5.05973C5.76698 16.805 6.44525 16.5241 6.94535 16.024C7.44545 15.5239 7.7264 14.8456 7.7264 14.1383V12.1383C7.7264 11.4311 7.44545 10.7528 6.94535 10.2527C6.44525 9.75263 5.76698 9.47168 5.05973 9.47168ZM6.39307 14.1383C6.39307 14.492 6.25259 14.8311 6.00254 15.0812C5.75249 15.3312 5.41336 15.4717 5.05973 15.4717H3.05973C2.70611 15.4717 2.36697 15.3312 2.11692 15.0812C1.86688 14.8311 1.7264 14.492 1.7264 14.1383V12.1383C1.7264 11.7847 1.86688 11.4456 2.11692 11.1955C2.36697 10.9455 2.70611 10.805 3.05973 10.805H5.05973C5.41336 10.805 5.75249 10.9455 6.00254 11.1955C6.25259 11.4456 6.39307 11.7847 6.39307 12.1383V14.1383Z" fill="#14062E"/>
<path d="M13.7264 9.47168H11.7264C11.0191 9.47168 10.3408 9.75263 9.84074 10.2527C9.34064 10.7528 9.05969 11.4311 9.05969 12.1383V14.1383C9.05969 14.8456 9.34064 15.5239 9.84074 16.024C10.3408 16.5241 11.0191 16.805 11.7264 16.805H13.7264C14.4336 16.805 15.1119 16.5241 15.612 16.024C16.1121 15.5239 16.393 14.8456 16.393 14.1383V12.1383C16.393 11.4311 16.1121 10.7528 15.612 10.2527C15.1119 9.75263 14.4336 9.47168 13.7264 9.47168ZM15.0597 14.1383C15.0597 14.492 14.9192 14.8311 14.6692 15.0812C14.4191 15.3312 14.08 15.4717 13.7264 15.4717H11.7264C11.3727 15.4717 11.0336 15.3312 10.7836 15.0812C10.5335 14.8311 10.393 14.492 10.393 14.1383V12.1383C10.393 11.7847 10.5335 11.4456 10.7836 11.1955C11.0336 10.9455 11.3727 10.805 11.7264 10.805H13.7264C14.08 10.805 14.4191 10.9455 14.6692 11.1955C14.9192 11.4456 15.0597 11.7847 15.0597 12.1383V14.1383Z" fill="#14062E"/>
<path d="M9.72636 5.47168H11.7264V7.47168C11.7264 7.64849 11.7966 7.81806 11.9216 7.94308C12.0466 8.06811 12.2162 8.13835 12.393 8.13835C12.5698 8.13835 12.7394 8.06811 12.8644 7.94308C12.9895 7.81806 13.0597 7.64849 13.0597 7.47168V5.47168H15.0597C15.2365 5.47168 15.4061 5.40144 15.5311 5.27642C15.6561 5.15139 15.7264 4.98182 15.7264 4.80501C15.7264 4.6282 15.6561 4.45863 15.5311 4.33361C15.4061 4.20858 15.2365 4.13835 15.0597 4.13835H13.0597V2.13835C13.0597 1.96154 12.9895 1.79197 12.8644 1.66694C12.7394 1.54192 12.5698 1.47168 12.393 1.47168C12.2162 1.47168 12.0466 1.54192 11.9216 1.66694C11.7966 1.79197 11.7264 1.96154 11.7264 2.13835V4.13835H9.72636C9.54955 4.13835 9.37998 4.20858 9.25495 4.33361C9.12993 4.45863 9.05969 4.6282 9.05969 4.80501C9.05969 4.98182 9.12993 5.15139 9.25495 5.27642C9.37998 5.40144 9.54955 5.47168 9.72636 5.47168Z" fill="#14062E"/>
</g>
<defs>
<clipPath id="clip0_103_13901">
<rect width="16" height="16" fill="white" transform="translate(0.393066 0.804993)"/>
</clipPath>
</defs>
</svg>
