<svg width="25" height="25" viewBox="0 0 25 25" fill="none" xmlns="http://www.w3.org/2000/svg">
<g clip-path="url(#clip0_103_13864)">
<path fill-rule="evenodd" clip-rule="evenodd" d="M12.3931 0.804993C5.76607 0.804993 0.393066 6.17799 0.393066 12.805C0.393066 19.432 5.76607 24.805 12.3931 24.805C19.0201 24.805 24.3931 19.432 24.3931 12.805C24.3931 6.17799 19.0201 0.804993 12.3931 0.804993ZM17.9551 8.96599C17.7751 10.863 16.9931 15.468 16.5961 17.593C16.4281 18.493 16.0961 18.794 15.7761 18.823C15.0791 18.887 14.5501 18.362 13.8751 17.92C12.8191 17.228 12.2221 16.797 11.1971 16.121C10.0121 15.34 10.7801 14.911 11.4551 14.21C11.6321 14.026 14.7021 11.233 14.7621 10.98C14.7691 10.948 14.7771 10.83 14.7061 10.768C14.6351 10.706 14.5321 10.727 14.4581 10.744C14.3521 10.768 12.6651 11.883 9.39607 14.089C8.91707 14.418 8.48307 14.578 8.09407 14.57C7.66607 14.561 6.84207 14.328 6.22907 14.128C5.47807 13.884 4.88007 13.754 4.93207 13.34C4.95907 13.124 5.25607 12.903 5.82407 12.677C9.32207 11.153 11.6551 10.148 12.8221 9.66199C16.1551 8.27599 16.8471 8.03499 17.2991 8.02699C17.8651 8.01899 18.0011 8.48599 17.9551 8.96599Z" fill="#14062E"/>
</g>
<defs>
<clipPath id="clip0_103_13864">
<rect width="24" height="24" fill="white" transform="translate(0.393066 0.804993)"/>
</clipPath>
</defs>
</svg>
