<svg width="19" height="19" viewBox="0 0 19 19" fill="none" xmlns="http://www.w3.org/2000/svg">
<g clip-path="url(#clip0_89_5070)">
<path d="M18.3931 3.5275C18.3931 4.15 17.8906 4.6525 17.2681 4.6525H1.51807C0.895566 4.6525 0.393066 4.15 0.393066 3.5275C0.393066 2.905 0.895566 2.4025 1.51807 2.4025H17.2681C17.8906 2.4025 18.3931 2.905 18.3931 3.5275ZM5.26807 15.9025H1.51807C0.895566 15.9025 0.393066 16.405 0.393066 17.0275C0.393066 17.65 0.895566 18.1525 1.51807 18.1525H5.26807C5.89057 18.1525 6.39307 17.65 6.39307 17.0275C6.39307 16.405 5.89057 15.9025 5.26807 15.9025ZM11.2681 9.1525H1.51807C0.895566 9.1525 0.393066 9.655 0.393066 10.2775C0.393066 10.9 0.895566 11.4025 1.51807 11.4025H11.2681C11.8906 11.4025 12.3931 10.9 12.3931 10.2775C12.3931 9.655 11.8906 9.1525 11.2681 9.1525Z" fill="white"/>
</g>
<defs>
<clipPath id="clip0_89_5070">
<rect width="18" height="18" fill="white" transform="translate(0.393066 0.902496)"/>
</clipPath>
</defs>
</svg>
