<svg width="21" height="20" viewBox="0 0 21 20" fill="none" xmlns="http://www.w3.org/2000/svg">
<g clip-path="url(#clip0_174_202)">
<path d="M18.7708 2.34375H1.89581C1.48162 2.34443 1.08459 2.50927 0.791711 2.80215C0.498833 3.09503 0.333994 3.49206 0.333313 3.90625L0.333313 7.96875C0.33351 8.21733 0.432345 8.45567 0.608118 8.63144C0.783891 8.80722 1.02223 8.90605 1.27081 8.90625H1.58331V9.53125C1.58375 9.75258 1.66239 9.96663 1.80534 10.1356C1.9483 10.3046 2.14636 10.4176 2.36456 10.4547V17.0312H1.89581C1.81293 17.0312 1.73345 17.0642 1.67484 17.1228C1.61624 17.1814 1.58331 17.2609 1.58331 17.3438C1.58331 17.4266 1.61624 17.5061 1.67484 17.5647C1.73345 17.6233 1.81293 17.6562 1.89581 17.6562H3.45831C3.54119 17.6562 3.62068 17.6233 3.67928 17.5647C3.73789 17.5061 3.77081 17.4266 3.77081 17.3438C3.77081 17.2609 3.73789 17.1814 3.67928 17.1228C3.62068 17.0642 3.54119 17.0312 3.45831 17.0312H2.98956V14.375H4.70831V13.75H2.98956V10.4547C3.20776 10.4176 3.40583 10.3046 3.54878 10.1356C3.69174 9.96663 3.77038 9.75258 3.77081 9.53125V8.90625H4.70831V7.10305C4.57378 7.2243 4.40696 7.30392 4.22808 7.33224C4.0492 7.36056 3.86594 7.33637 3.70054 7.26261C3.53513 7.18884 3.39468 7.06867 3.29622 6.91667C3.19775 6.76467 3.14551 6.58736 3.14581 6.40625V5.15625C3.14572 4.92567 3.23064 4.70316 3.38433 4.53126C3.53801 4.35937 3.74967 4.25017 3.97882 4.22455C4.20797 4.19893 4.43852 4.25869 4.62638 4.39239C4.81423 4.5261 4.94619 4.72437 4.99703 4.94927C5.17119 4.78122 5.4038 4.68737 5.64581 4.6875H15.0208C15.2628 4.68737 15.4954 4.78122 15.6696 4.94927C15.7204 4.72437 15.8524 4.5261 16.0403 4.39239C16.2281 4.25869 16.4587 4.19893 16.6878 4.22455C16.917 4.25017 17.1286 4.35937 17.2823 4.53126C17.436 4.70316 17.5209 4.92567 17.5208 5.15625V6.40625C17.5211 6.58736 17.4689 6.76467 17.3704 6.91667C17.2719 7.06867 17.1315 7.18884 16.9661 7.26261C16.8007 7.33637 16.6174 7.36056 16.4385 7.33224C16.2597 7.30392 16.0928 7.2243 15.9583 7.10305V8.90625H16.8958V9.53125C16.8962 9.75258 16.9749 9.96663 17.1178 10.1356C17.2608 10.3046 17.4589 10.4176 17.6771 10.4547V13.75H15.9583V14.375H17.6771V17.0312H17.2083C17.1254 17.0312 17.0459 17.0642 16.9873 17.1228C16.9287 17.1814 16.8958 17.2609 16.8958 17.3438C16.8958 17.4266 16.9287 17.5061 16.9873 17.5647C17.0459 17.6233 17.1254 17.6562 17.2083 17.6562H18.7708C18.8537 17.6562 18.9332 17.6233 18.9918 17.5647C19.0504 17.5061 19.0833 17.4266 19.0833 17.3438C19.0833 17.2609 19.0504 17.1814 18.9918 17.1228C18.9332 17.0642 18.8537 17.0312 18.7708 17.0312H18.3021V10.4547C18.5203 10.4176 18.7183 10.3046 18.8613 10.1356C19.0042 9.96663 19.0829 9.75258 19.0833 9.53125V8.90625H19.3958C19.6444 8.90605 19.8827 8.80722 20.0585 8.63144C20.2343 8.45567 20.3331 8.21733 20.3333 7.96875V3.90625C20.3326 3.49206 20.1678 3.09503 19.8749 2.80215C19.582 2.50927 19.185 2.34443 18.7708 2.34375ZM3.14581 9.53125C3.14572 9.6141 3.11276 9.69353 3.05418 9.75212C2.99559 9.8107 2.91616 9.84366 2.83331 9.84375H2.52081C2.43796 9.84366 2.35853 9.8107 2.29995 9.75212C2.24136 9.69353 2.20841 9.6141 2.20831 9.53125V8.90625H3.14581V9.53125ZM16.2708 4.21875C16.209 4.21875 16.1486 4.20042 16.0972 4.16608C16.0458 4.13175 16.0058 4.08294 15.9821 4.02584C15.9584 3.96874 15.9523 3.9059 15.9643 3.84528C15.9764 3.78467 16.0061 3.72898 16.0498 3.68528C16.0935 3.64158 16.1492 3.61181 16.2098 3.59975C16.2705 3.5877 16.3333 3.59389 16.3904 3.61754C16.4475 3.64119 16.4963 3.68124 16.5306 3.73263C16.565 3.78402 16.5833 3.84444 16.5833 3.90625C16.5831 3.98906 16.5501 4.0684 16.4915 4.12695C16.433 4.1855 16.3536 4.21851 16.2708 4.21875ZM17.2083 3.90625C17.2083 3.84444 17.2266 3.78402 17.261 3.73263C17.2953 3.68124 17.3441 3.64119 17.4012 3.61754C17.4583 3.59389 17.5212 3.5877 17.5818 3.59975C17.6424 3.61181 17.6981 3.64158 17.7418 3.68528C17.7855 3.72898 17.8153 3.78467 17.8273 3.84528C17.8394 3.9059 17.8332 3.96874 17.8095 4.02584C17.7859 4.08294 17.7458 4.13175 17.6944 4.16608C17.643 4.20042 17.5826 4.21875 17.5208 4.21875C17.438 4.21851 17.3587 4.18551 17.3001 4.12695C17.2416 4.0684 17.2086 3.98906 17.2083 3.90625ZM18.4583 9.53125C18.4582 9.6141 18.4253 9.69353 18.3667 9.75212C18.3081 9.8107 18.2287 9.84366 18.1458 9.84375H17.8333C17.7505 9.84366 17.671 9.8107 17.6124 9.75212C17.5539 9.69353 17.5209 9.6141 17.5208 9.53125V8.90625H18.4583V9.53125Z" fill="white"/>
<path d="M6.27081 16.25H14.3958C14.6444 16.2497 14.8827 16.1509 15.0584 15.9751C15.2342 15.7994 15.333 15.5611 15.3333 15.3125V6.09375H16.2708V6.40625C16.2708 6.48913 16.3037 6.56862 16.3623 6.62722C16.4209 6.68583 16.5004 6.71875 16.5833 6.71875C16.6662 6.71875 16.7457 6.68583 16.8043 6.62722C16.8629 6.56862 16.8958 6.48913 16.8958 6.40625V5.15625C16.8958 5.07337 16.8629 4.99388 16.8043 4.93528C16.7457 4.87667 16.6662 4.84375 16.5833 4.84375C16.5004 4.84375 16.4209 4.87667 16.3623 4.93528C16.3037 4.99388 16.2708 5.07337 16.2708 5.15625V5.46875H4.39581V5.15625C4.39581 5.07337 4.36289 4.99388 4.30428 4.93528C4.24568 4.87667 4.16619 4.84375 4.08331 4.84375C4.00043 4.84375 3.92095 4.87667 3.86234 4.93528C3.80374 4.99388 3.77081 5.07337 3.77081 5.15625V6.40625C3.77081 6.48913 3.80374 6.56862 3.86234 6.62722C3.92095 6.68583 4.00043 6.71875 4.08331 6.71875C4.16619 6.71875 4.24568 6.68583 4.30428 6.62722C4.36289 6.56862 4.39581 6.48913 4.39581 6.40625V6.09375H5.33331V15.3125C5.33358 15.5611 5.43244 15.7994 5.6082 15.9751C5.78396 16.1509 6.02226 16.2497 6.27081 16.25ZM7.67706 7.5H12.9896C13.0724 7.5 13.1519 7.53292 13.2105 7.59153C13.2691 7.65013 13.3021 7.72962 13.3021 7.8125C13.3021 7.89538 13.2691 7.97487 13.2105 8.03347C13.1519 8.09208 13.0724 8.125 12.9896 8.125H7.67706C7.59418 8.125 7.5147 8.09208 7.45609 8.03347C7.39749 7.97487 7.36456 7.89538 7.36456 7.8125C7.36456 7.72962 7.39749 7.65013 7.45609 7.59153C7.5147 7.53292 7.59418 7.5 7.67706 7.5ZM7.67706 8.75H12.9896C13.0724 8.75 13.1519 8.78292 13.2105 8.84153C13.2691 8.90013 13.3021 8.97962 13.3021 9.0625C13.3021 9.14538 13.2691 9.22487 13.2105 9.28347C13.1519 9.34208 13.0724 9.375 12.9896 9.375H7.67706C7.59418 9.375 7.5147 9.34208 7.45609 9.28347C7.39749 9.22487 7.36456 9.14538 7.36456 9.0625C7.36456 8.97962 7.39749 8.90013 7.45609 8.84153C7.5147 8.78292 7.59418 8.75 7.67706 8.75ZM7.67706 10H12.9896C13.0724 10 13.1519 10.0329 13.2105 10.0915C13.2691 10.1501 13.3021 10.2296 13.3021 10.3125C13.3021 10.3954 13.2691 10.4749 13.2105 10.5335C13.1519 10.5921 13.0724 10.625 12.9896 10.625H7.67706C7.59418 10.625 7.5147 10.5921 7.45609 10.5335C7.39749 10.4749 7.36456 10.3954 7.36456 10.3125C7.36456 10.2296 7.39749 10.1501 7.45609 10.0915C7.5147 10.0329 7.59418 10 7.67706 10ZM7.67706 11.25H12.9896C13.0724 11.25 13.1519 11.2829 13.2105 11.3415C13.2691 11.4001 13.3021 11.4796 13.3021 11.5625C13.3021 11.6454 13.2691 11.7249 13.2105 11.7835C13.1519 11.8421 13.0724 11.875 12.9896 11.875H7.67706C7.59418 11.875 7.5147 11.8421 7.45609 11.7835C7.39749 11.7249 7.36456 11.6454 7.36456 11.5625C7.36456 11.4796 7.39749 11.4001 7.45609 11.3415C7.5147 11.2829 7.59418 11.25 7.67706 11.25ZM7.67706 12.5H12.9896C13.0724 12.5 13.1519 12.5329 13.2105 12.5915C13.2691 12.6501 13.3021 12.7296 13.3021 12.8125C13.3021 12.8954 13.2691 12.9749 13.2105 13.0335C13.1519 13.0921 13.0724 13.125 12.9896 13.125H7.67706C7.59418 13.125 7.5147 13.0921 7.45609 13.0335C7.39749 12.9749 7.36456 12.8954 7.36456 12.8125C7.36456 12.7296 7.39749 12.6501 7.45609 12.5915C7.5147 12.5329 7.59418 12.5 7.67706 12.5ZM7.67706 13.75H12.9896C13.0724 13.75 13.1519 13.7829 13.2105 13.8415C13.2691 13.9001 13.3021 13.9796 13.3021 14.0625C13.3021 14.1454 13.2691 14.2249 13.2105 14.2835C13.1519 14.3421 13.0724 14.375 12.9896 14.375H7.67706C7.59418 14.375 7.5147 14.3421 7.45609 14.2835C7.39749 14.2249 7.36456 14.1454 7.36456 14.0625C7.36456 13.9796 7.39749 13.9001 7.45609 13.8415C7.5147 13.7829 7.59418 13.75 7.67706 13.75Z" fill="white"/>
</g>
<defs>
<clipPath id="clip0_174_202">
<rect width="20" height="20" fill="white" transform="translate(0.333313)"/>
</clipPath>
</defs>
</svg>
