<svg width="21" height="20" viewBox="0 0 21 20" fill="none" xmlns="http://www.w3.org/2000/svg">
<path d="M7.85212 16.0969H12.5427C12.7804 16.0963 13.0083 16.0017 13.1763 15.8336C13.3444 15.6655 13.4391 15.4377 13.4396 15.2V4.54376C13.4681 4.00878 12.8533 3.63876 12.5365 3.29688L10.649 1.49688C10.4824 1.33765 10.2607 1.24916 10.0302 1.25001H2.53649C2.29879 1.25054 2.07098 1.3452 1.9029 1.51328C1.73482 1.68137 1.64015 1.90918 1.63962 2.14688V15.2C1.64016 15.4377 1.73482 15.6655 1.9029 15.8336C2.07098 16.0017 2.29879 16.0963 2.53649 16.0969C2.89666 16.0971 7.68399 16.0968 7.85212 16.0969ZM9.66774 2.80626C9.66916 2.72431 9.70271 2.64621 9.76117 2.58876C9.81962 2.53132 9.8983 2.49913 9.98025 2.49913C10.0622 2.49913 10.1409 2.53133 10.1993 2.58878C10.2578 2.64622 10.2913 2.72433 10.2927 2.80627V4.36876H11.9365C12.0186 4.36992 12.097 4.40335 12.1546 4.46183C12.2123 4.52031 12.2446 4.59913 12.2446 4.68126C12.2446 4.76338 12.2123 4.8422 12.1546 4.90068C12.097 4.95916 12.0186 4.99259 11.9365 4.99376H9.98024C9.93917 4.9939 9.89846 4.98591 9.86049 4.97026C9.82251 4.95461 9.788 4.93159 9.75895 4.90255C9.72991 4.8735 9.70689 4.83899 9.69124 4.80101C9.67558 4.76303 9.6676 4.72233 9.66774 4.68126V2.80626ZM4.04899 3.29688H5.82399C5.90611 3.29804 5.98447 3.33148 6.04212 3.38996C6.09978 3.44844 6.1321 3.52727 6.1321 3.60939C6.13209 3.69151 6.09977 3.77033 6.04211 3.82881C5.98445 3.88729 5.90609 3.92072 5.82398 3.92188H4.04899C3.96692 3.92066 3.88861 3.8872 3.831 3.82873C3.77339 3.77026 3.74109 3.69147 3.74109 3.60938C3.74109 3.52729 3.77339 3.4485 3.831 3.39003C3.88861 3.33156 3.96692 3.2981 4.04899 3.29688ZM4.04899 5.86563H7.87087C7.95295 5.86685 8.03125 5.90031 8.08886 5.95879C8.14647 6.01726 8.17876 6.09605 8.17876 6.17814C8.17876 6.26023 8.14646 6.33902 8.08885 6.39749C8.03123 6.45596 7.95293 6.48942 7.87085 6.49063H4.04899C3.96695 6.48936 3.8887 6.45588 3.83113 6.39741C3.77356 6.33894 3.7413 6.26018 3.7413 6.17813C3.7413 6.09608 3.77356 6.01732 3.83113 5.95885C3.8887 5.90039 3.96695 5.8669 4.04899 5.86563ZM4.04899 8.43126H11.2646C11.3467 8.43247 11.425 8.46593 11.4826 8.52441C11.5402 8.58288 11.5725 8.66167 11.5725 8.74376C11.5725 8.82584 11.5402 8.90463 11.4826 8.96311C11.425 9.02158 11.3467 9.05504 11.2646 9.05626H4.04899C3.96692 9.05504 3.88861 9.02158 3.831 8.96311C3.77339 8.90463 3.74109 8.82584 3.74109 8.74376C3.74109 8.66167 3.77339 8.58288 3.831 8.52441C3.88861 8.46593 3.96692 8.43247 4.04899 8.43126ZM3.73649 11.3125C3.73673 11.2297 3.76974 11.1504 3.82829 11.0918C3.88684 11.0332 3.96619 11.0002 4.04899 11H11.2646C11.3475 11 11.427 11.0329 11.4856 11.0915C11.5442 11.1501 11.5771 11.2296 11.5771 11.3125C11.5771 11.3954 11.5442 11.4749 11.4856 11.5335C11.427 11.5921 11.3475 11.625 11.2646 11.625H4.04899C3.96619 11.6248 3.88685 11.5918 3.8283 11.5332C3.76974 11.4747 3.73674 11.3953 3.73649 11.3125Z" fill="white"/>
<path d="M18.749 5.94064L16.2365 3.54689C16.0711 3.38554 15.8488 3.29574 15.6177 3.29689H13.4427C13.6324 3.4456 13.7865 3.63464 13.8941 3.85029C14.0016 4.06594 14.0599 4.30282 14.0646 4.54376V15.2C14.0641 15.6035 13.9036 15.9903 13.6183 16.2756C13.333 16.5609 12.9462 16.7214 12.5427 16.7219H7.22711V17.8531C7.22765 18.0908 7.32231 18.3186 7.49039 18.4867C7.65847 18.6548 7.88629 18.7495 8.12399 18.75H18.1302C18.3679 18.7495 18.5957 18.6548 18.7638 18.4867C18.9319 18.3186 19.0266 18.0908 19.0271 17.8531V6.59064C19.0271 6.46911 19.0025 6.34885 18.9547 6.23712C18.9069 6.1254 18.8369 6.02453 18.749 5.94064ZM15.0396 9.34689H16.2896C16.3718 9.34799 16.4502 9.3814 16.5079 9.43988C16.5656 9.49837 16.5979 9.57722 16.5979 9.65939C16.5979 9.74155 16.5656 9.8204 16.5079 9.87889C16.4502 9.93738 16.3718 9.97078 16.2896 9.97189H15.0396C14.9575 9.97067 14.8792 9.93721 14.8216 9.87874C14.764 9.82026 14.7317 9.74147 14.7317 9.65939C14.7317 9.5773 14.764 9.49851 14.8216 9.44004C14.8792 9.38156 14.9575 9.3481 15.0396 9.34689ZM17.4021 15.1063H15.0396C14.9575 15.105 14.8792 15.0716 14.8216 15.0131C14.764 14.9546 14.7317 14.8758 14.7317 14.7938C14.7317 14.7117 14.764 14.6329 14.8216 14.5744C14.8792 14.5159 14.9575 14.4825 15.0396 14.4813H17.4021C17.4842 14.4825 17.5625 14.5159 17.6201 14.5744C17.6777 14.6329 17.71 14.7117 17.71 14.7938C17.71 14.8758 17.6777 14.9546 17.6201 15.0131C17.5625 15.0716 17.4842 15.105 17.4021 15.1063ZM17.4021 12.5406H15.0396C14.9575 12.5394 14.8792 12.506 14.8216 12.4475C14.764 12.389 14.7317 12.3102 14.7317 12.2281C14.7317 12.146 14.764 12.0673 14.8216 12.0088C14.8792 11.9503 14.9575 11.9169 15.0396 11.9156H17.4021C17.4842 11.9169 17.5625 11.9503 17.6201 12.0088C17.6777 12.0673 17.71 12.146 17.71 12.2281C17.71 12.3102 17.6777 12.389 17.6201 12.4475C17.5625 12.506 17.4842 12.5394 17.4021 12.5406ZM17.524 7.04064H15.5677C15.4849 7.04039 15.4056 7.00739 15.347 6.94883C15.2885 6.89028 15.2555 6.81094 15.2552 6.72814V4.85314C15.2552 4.77026 15.2882 4.69077 15.3468 4.63216C15.4054 4.57356 15.4849 4.54064 15.5677 4.54064C15.6506 4.54064 15.7301 4.57356 15.7887 4.63216C15.8473 4.69077 15.8802 4.77026 15.8802 4.85314V6.41564H17.524C17.606 6.41691 17.6843 6.45039 17.7418 6.50886C17.7994 6.56732 17.8317 6.64608 17.8317 6.72814C17.8317 6.81019 17.7994 6.88895 17.7418 6.94741C17.6843 7.00588 17.606 7.03936 17.524 7.04064Z" fill="white"/>
</svg>
