<svg width="17" height="17" viewBox="0 0 17 17" fill="none" xmlns="http://www.w3.org/2000/svg">
<g clip-path="url(#clip0_103_13989)">
<path d="M8.39311 4.80499C7.86569 4.80499 7.35012 4.96139 6.91159 5.25441C6.47306 5.54742 6.13126 5.9639 5.92943 6.45117C5.7276 6.93844 5.67479 7.47462 5.77768 7.9919C5.88057 8.50918 6.13455 8.98434 6.50749 9.35728C6.88043 9.73022 7.35558 9.98419 7.87287 10.0871C8.39015 10.19 8.92633 10.1372 9.4136 9.93534C9.90087 9.7335 10.3173 9.39171 10.6104 8.95318C10.9034 8.51465 11.0598 7.99908 11.0598 7.47166C11.0598 6.76442 10.7788 6.08614 10.2787 5.58604C9.77863 5.08594 9.10035 4.80499 8.39311 4.80499ZM8.39311 8.80499C8.1294 8.80499 7.87161 8.72679 7.65235 8.58029C7.43308 8.43378 7.26219 8.22554 7.16127 7.9819C7.06035 7.73827 7.03395 7.47018 7.08539 7.21154C7.13684 6.9529 7.26383 6.71532 7.4503 6.52885C7.63677 6.34238 7.87435 6.21539 8.13299 6.16395C8.39163 6.1125 8.65972 6.1389 8.90335 6.23982C9.14699 6.34074 9.35523 6.51163 9.50173 6.7309C9.64824 6.95016 9.72644 7.20795 9.72644 7.47166C9.72644 7.82528 9.58597 8.16442 9.33592 8.41447C9.08587 8.66452 8.74673 8.80499 8.39311 8.80499Z" fill="#14062E"/>
<path d="M8.39303 16.805C7.83166 16.8079 7.27777 16.6762 6.77774 16.421C6.27771 16.1658 5.84609 15.7946 5.51903 15.3383C2.97836 11.8337 1.6897 9.19898 1.6897 7.50698C1.6897 5.72915 2.39594 4.02413 3.65306 2.76701C4.91018 1.50989 6.6152 0.80365 8.39303 0.80365C10.1709 0.80365 11.8759 1.50989 13.133 2.76701C14.3901 4.02413 15.0964 5.72915 15.0964 7.50698C15.0964 9.19898 13.8077 11.8337 11.267 15.3383C10.94 15.7946 10.5084 16.1658 10.0083 16.421C9.50829 16.6762 8.9544 16.8079 8.39303 16.805ZM8.39303 2.25898C7.00131 2.26057 5.66704 2.81413 4.68295 3.79823C3.69885 4.78233 3.14529 6.11659 3.1437 7.50832C3.1437 8.84832 4.4057 11.3263 6.69636 14.4857C6.89083 14.7535 7.14594 14.9715 7.44084 15.1218C7.73574 15.2722 8.06203 15.3505 8.39303 15.3505C8.72403 15.3505 9.05033 15.2722 9.34522 15.1218C9.64012 14.9715 9.89523 14.7535 10.0897 14.4857C12.3804 11.3263 13.6424 8.84832 13.6424 7.50832C13.6408 6.11659 13.0872 4.78233 12.1031 3.79823C11.119 2.81413 9.78475 2.26057 8.39303 2.25898Z" fill="#14062E"/>
</g>
<defs>
<clipPath id="clip0_103_13989">
<rect width="16" height="16" fill="white" transform="translate(0.393066 0.804993)"/>
</clipPath>
</defs>
</svg>
