<svg width="25" height="25" viewBox="0 0 25 25" fill="none" xmlns="http://www.w3.org/2000/svg">
<g clip-path="url(#clip0_103_13867)">
<path fill-rule="evenodd" clip-rule="evenodd" d="M20.8547 4.29299C18.6087 2.04499 15.6227 0.805993 12.4417 0.804993C5.88673 0.804993 0.55173 6.13899 0.54873 12.697C0.54773 14.793 1.09573 16.839 2.13673 18.643L0.44873 24.805L6.75273 23.151C8.48973 24.099 10.4457 24.598 12.4357 24.599H12.4407C18.9947 24.599 24.3307 19.264 24.3337 12.706C24.3357 9.52899 23.0997 6.53999 20.8547 4.29299ZM12.4417 22.59H12.4377C10.6637 22.59 8.92473 22.113 7.40673 21.212L7.04573 20.998L3.30473 21.979L4.30373 18.331L4.06873 17.957C3.07873 16.383 2.55673 14.564 2.55773 12.697C2.55973 7.24699 6.99473 2.81299 12.4467 2.81299C15.0867 2.81299 17.5687 3.84299 19.4347 5.71099C21.3007 7.57999 22.3277 10.063 22.3267 12.704C22.3237 18.156 17.8897 22.59 12.4417 22.59ZM17.8637 15.187C17.5667 15.038 16.1057 14.319 15.8327 14.22C15.5607 14.121 15.3627 14.071 15.1637 14.368C14.9647 14.665 14.3967 15.335 14.2227 15.534C14.0497 15.732 13.8757 15.757 13.5787 15.608C13.2817 15.459 12.3237 15.146 11.1887 14.133C10.3057 13.345 9.70873 12.372 9.53573 12.074C9.36273 11.776 9.51773 11.616 9.66573 11.468C9.79973 11.335 9.96273 11.121 10.1117 10.947C10.2617 10.775 10.3107 10.651 10.4107 10.452C10.5097 10.254 10.4607 10.08 10.3857 9.93099C10.3107 9.78299 9.71673 8.31999 9.46973 7.72499C9.22873 7.14499 8.98373 7.22399 8.80073 7.21499C8.62773 7.20599 8.42973 7.20499 8.23073 7.20499C8.03273 7.20499 7.71073 7.27899 7.43873 7.57699C7.16673 7.87499 6.39873 8.59399 6.39873 10.056C6.39873 11.519 7.46373 12.932 7.61173 13.13C7.75973 13.328 9.70673 16.33 12.6877 17.617C13.3967 17.923 13.9507 18.106 14.3817 18.243C15.0937 18.469 15.7417 18.437 16.2537 18.361C16.8247 18.276 18.0117 17.642 18.2597 16.948C18.5077 16.254 18.5077 15.658 18.4327 15.535C18.3587 15.41 18.1607 15.336 17.8637 15.187Z" fill="#14062E"/>
</g>
<defs>
<clipPath id="clip0_103_13867">
<rect width="24" height="24" fill="white" transform="translate(0.393066 0.804993)"/>
</clipPath>
</defs>
</svg>
