<svg width="20" height="20" viewBox="0 0 20 20" fill="none" xmlns="http://www.w3.org/2000/svg">
<path d="M18.3344 11.5281H2.25937C1.9918 11.5285 1.7353 11.635 1.5461 11.8242C1.35689 12.0134 1.25041 12.2699 1.25 12.5375V15.375C1.25025 15.4578 1.28325 15.5371 1.3418 15.5957C1.40035 15.6542 1.4797 15.6872 1.5625 15.6875H18.3344C18.4172 15.6872 18.4965 15.6542 18.5551 15.5957C18.6136 15.5371 18.6466 15.4578 18.6469 15.375V11.8406C18.6466 11.7578 18.6136 11.6785 18.5551 11.6199C18.4965 11.5613 18.4172 11.5283 18.3344 11.5281ZM17.3969 14.4375C17.3728 14.4918 17.3333 14.538 17.2833 14.5702C17.2334 14.6024 17.1751 14.6192 17.1156 14.6187H13.5125C13.4298 14.618 13.3508 14.5849 13.2923 14.5264C13.2339 14.468 13.2007 14.3889 13.2 14.3062V13.1156C13.2002 13.0328 13.2332 12.9535 13.2918 12.8949C13.3504 12.8364 13.4297 12.8034 13.5125 12.8031H17.1156C17.1746 12.8028 17.2325 12.8194 17.2823 12.851C17.3322 12.8826 17.3719 12.9278 17.3969 12.9812V14.4375ZM3.31562 13.0125C3.31071 13.0983 3.27318 13.1789 3.21072 13.2379C3.14826 13.2969 3.0656 13.3297 2.97969 13.3297C2.89377 13.3297 2.81112 13.2969 2.74865 13.2379C2.68619 13.1789 2.64866 13.0983 2.64375 13.0125C2.64866 12.9267 2.68619 12.8461 2.74865 12.7871C2.81112 12.7281 2.89377 12.6952 2.97969 12.6952C3.0656 12.6952 3.14826 12.7281 3.21072 12.7871C3.27318 12.8461 3.31071 12.9267 3.31562 13.0125ZM4.86875 13.0125C4.86423 13.0981 4.82703 13.1787 4.76482 13.2378C4.70261 13.2968 4.62012 13.3297 4.53437 13.3297C4.44863 13.3297 4.36614 13.2968 4.30393 13.2378C4.24172 13.1787 4.20452 13.0981 4.2 13.0125C4.20452 12.9269 4.24172 12.8462 4.30393 12.7872C4.36614 12.7282 4.44863 12.6953 4.53437 12.6953C4.62012 12.6953 4.70261 12.7282 4.76482 12.7872C4.82703 12.8462 4.86423 12.9269 4.86875 13.0125Z" fill="white"/>
<path d="M18.6094 8.84062C18.5141 8.62491 18.3765 8.43051 18.2047 8.26894C18.0329 8.10737 17.8305 7.98191 17.6094 7.89999L4.5875 2.99374C4.27445 2.87393 3.92682 2.88217 3.6198 3.01668C3.31277 3.15118 3.07104 3.40114 2.94688 3.71249L2.76563 4.15624C2.73473 4.23458 2.73613 4.32196 2.76952 4.39927C2.8029 4.47658 2.86555 4.53751 2.94375 4.56874L16.5094 9.67812V10.9031H18.3344C18.4408 10.903 18.5465 10.9209 18.6469 10.9562V10.0906C18.7957 9.68465 18.7823 9.23694 18.6094 8.84062Z" fill="white"/>
<path d="M15.3149 10.9031C15.397 10.9019 15.4753 10.8684 15.5329 10.81C15.5905 10.7515 15.6228 10.6727 15.6228 10.5906C15.6228 10.5085 15.5905 10.4297 15.5329 10.3713C15.4753 10.3128 15.397 10.2793 15.3149 10.2781H3.75778C3.67574 10.2794 3.59749 10.3129 3.53992 10.3713C3.48236 10.4298 3.45009 10.5086 3.45009 10.5906C3.4501 10.6727 3.48237 10.7514 3.53994 10.8099C3.59751 10.8684 3.67576 10.9018 3.7578 10.9031H15.3149Z" fill="white"/>
<path d="M13.825 13.4281H16.8031V13.9938H13.825V13.4281Z" fill="white"/>
<path d="M18.2034 17.1406C18.1279 17.1042 18.0632 17.0487 18.0156 16.9797C17.968 16.9107 17.9392 16.8305 17.9319 16.747C17.9247 16.6635 17.9393 16.5795 17.9743 16.5034C18.0093 16.4272 18.0635 16.3614 18.1316 16.3125H1.75969C1.82012 16.358 1.86969 16.4164 1.90481 16.4834C1.93994 16.5504 1.95975 16.6244 1.96281 16.7C1.95899 16.7804 1.9367 16.8589 1.89768 16.9294C1.85867 16.9998 1.80397 17.0603 1.73781 17.1063C1.66774 17.1421 1.61265 17.2017 1.58233 17.2744C1.55201 17.347 1.54843 17.4281 1.57221 17.5031C1.59387 17.5645 1.63408 17.6176 1.68726 17.6551C1.74045 17.6926 1.80398 17.7127 1.86906 17.7125H18.0284C18.0948 17.7113 18.1591 17.6891 18.2121 17.6492C18.265 17.6092 18.304 17.5535 18.3235 17.4901C18.3429 17.4266 18.3417 17.3586 18.3202 17.2959C18.2986 17.2331 18.2578 17.1788 18.2034 17.1406Z" fill="white"/>
</svg>
