<svg width="19" height="19" viewBox="0 0 19 19" fill="none" xmlns="http://www.w3.org/2000/svg">
<g clip-path="url(#clip0_103_13823)">
<mask id="mask0_103_13823" style="mask-type:luminance" maskUnits="userSpaceOnUse" x="0" y="0" width="19" height="19">
<path d="M18.3931 0.902496H0.393066V18.9025H18.3931V0.902496Z" fill="white"/>
</mask>
<g mask="url(#mask0_103_13823)">
<mask id="mask1_103_13823" style="mask-type:luminance" maskUnits="userSpaceOnUse" x="0" y="0" width="19" height="19">
<path d="M18.3931 0.902496H0.393066V18.9025H18.3931V0.902496Z" fill="white"/>
</mask>
<g mask="url(#mask1_103_13823)">
<mask id="mask2_103_13823" style="mask-type:luminance" maskUnits="userSpaceOnUse" x="0" y="0" width="19" height="19">
<path d="M18.3931 0.902496H0.393066V18.9025H18.3931V0.902496Z" fill="white"/>
</mask>
<g mask="url(#mask2_103_13823)">
<path d="M13.153 13.6622C12.8563 13.9588 12.3753 13.9587 12.0787 13.6622L9.39328 10.9767L6.7078 13.6622C6.41124 13.9587 5.93022 13.9588 5.63359 13.6622C5.33696 13.3656 5.33705 12.8845 5.63362 12.588L8.31909 9.9025L5.6336 7.21701C5.33698 6.92039 5.33698 6.43945 5.6336 6.14281C5.93023 5.84619 6.41118 5.8462 6.70779 6.14283L9.39328 8.82831L12.0788 6.14283C12.3754 5.8462 12.8563 5.84619 13.1529 6.14281C13.4496 6.43945 13.4496 6.92039 13.1529 7.21701L10.4675 9.9025L13.1529 12.588C13.4496 12.8845 13.4496 13.3656 13.153 13.6622Z" fill="white"/>
</g>
</g>
</g>
</g>
<defs>
<clipPath id="clip0_103_13823">
<rect width="18" height="18" fill="white" transform="translate(0.393066 0.902496)"/>
</clipPath>
</defs>
</svg>
