<svg width="25" height="25" viewBox="0 0 25 25" fill="none" xmlns="http://www.w3.org/2000/svg">
<g clip-path="url(#clip0_103_13863)">
<path d="M22.7091 2.48899C21.0251 0.804993 18.3141 0.804993 12.8931 0.804993H11.8931C6.47207 0.804993 3.76107 0.804993 2.07707 2.48899C0.393066 4.17299 0.393066 6.88399 0.393066 12.305V13.305C0.393066 18.726 0.393066 21.436 2.07707 23.121C3.76107 24.806 6.47207 24.805 11.8931 24.805H12.8931C18.3141 24.805 21.0241 24.805 22.7091 23.121C24.3931 21.437 24.3931 18.726 24.3931 13.305V12.305C24.3931 6.88399 24.3931 4.17299 22.7091 2.48899ZM19.8961 17.805H18.1461C17.4791 17.805 17.2831 17.273 16.0961 16.086C15.0571 15.085 14.6121 14.955 14.3531 14.955C14.0001 14.955 13.8951 15.055 13.8951 15.555V17.124C13.8951 17.554 13.7581 17.805 12.6451 17.805C10.7911 17.805 8.75307 16.679 7.30607 14.603C5.13607 11.562 4.54307 9.26299 4.54307 8.79999C4.54307 8.53999 4.64307 8.30499 5.14307 8.30499H6.89407C7.34107 8.30499 7.50907 8.50099 7.67707 8.98499C8.53307 11.478 9.97707 13.657 10.5701 13.657C10.7921 13.657 10.8941 13.554 10.8941 12.99V10.413C10.8291 9.22699 10.1981 9.12899 10.1981 8.70699C10.1981 8.51199 10.3651 8.30499 10.6431 8.30499H13.3941C13.7651 8.30499 13.8941 8.50299 13.8941 8.94799V12.415C13.8941 12.785 14.0551 12.915 14.1661 12.915C14.3891 12.915 14.5741 12.785 14.9821 12.377C16.2431 10.968 17.1331 8.79899 17.1331 8.79899C17.2451 8.53899 17.4491 8.30399 17.8951 8.30399H19.6451C20.1741 8.30399 20.2861 8.57599 20.1741 8.94699C19.9511 9.96699 17.8191 12.97 17.8191 12.97C17.6331 13.267 17.5591 13.415 17.8191 13.749C18.0051 14.009 18.6161 14.528 19.0241 15.01C19.7761 15.856 20.3431 16.569 20.5011 17.061C20.6471 17.555 20.3961 17.805 19.8961 17.805Z" fill="#14062E"/>
</g>
<defs>
<clipPath id="clip0_103_13863">
<rect width="24" height="24" fill="white" transform="translate(0.393066 0.804993)"/>
</clipPath>
</defs>
</svg>
