<svg width="21" height="20" viewBox="0 0 21 20" fill="none" xmlns="http://www.w3.org/2000/svg">
<path d="M18.6862 12.2188V17.8086C18.6862 17.9219 18.5964 18.0117 18.4831 18.0117H12.8893V17.082H17.5573C17.6628 17.082 17.7487 16.9961 17.7487 16.8906V12.2188H18.6862Z" fill="white"/>
<path d="M18.6784 2.18359V7.77734H17.7487V3.10937C17.7487 3.00391 17.6628 2.91797 17.5573 2.91797H12.8815V1.98047H18.4753C18.5886 1.98047 18.6784 2.07031 18.6784 2.18359Z" fill="white"/>
<path d="M16.2214 9.29297C16.2214 9.42969 16.112 9.54297 15.9714 9.54297H14.6354H6.69794H5.362C5.22528 9.54297 5.112 9.42969 5.112 9.29297C5.112 9.15625 5.22137 9.04297 5.362 9.04297H6.69794H14.6354H15.9714C16.1081 9.04297 16.2214 9.15625 16.2214 9.29297Z" fill="white"/>
<path d="M14.444 9.92578V15.125H6.88934V9.92578H14.444ZM13.7018 11.0664C13.8073 11.0664 13.8893 10.9805 13.8893 10.875C13.8893 10.7695 13.8034 10.6836 13.6979 10.6836H8.66278C8.55731 10.6836 8.47137 10.7695 8.47137 10.875C8.47137 10.9805 8.55731 11.0664 8.66278 11.0664H13.7018ZM13.7018 12.5312C13.8073 12.5312 13.8893 12.4453 13.8893 12.3398C13.8893 12.2344 13.8034 12.1484 13.6979 12.1484H8.66278C8.55731 12.1484 8.47137 12.2344 8.47137 12.3398C8.47137 12.4453 8.55731 12.5312 8.66278 12.5312H13.7018ZM13.7018 13.9922C13.8073 13.9922 13.8893 13.9062 13.8893 13.8008C13.8893 13.6953 13.8034 13.6094 13.6979 13.6094H8.66278C8.55731 13.6094 8.47137 13.6953 8.47137 13.8008C8.47137 13.9062 8.55731 13.9922 8.66278 13.9922H13.7018ZM8.00262 10.875C8.00262 10.7695 7.91669 10.6836 7.81122 10.6836H7.60419C7.49872 10.6836 7.41278 10.7695 7.41278 10.875C7.41278 10.9805 7.49872 11.0664 7.60419 11.0664H7.81122C7.91669 11.0664 8.00262 10.9805 8.00262 10.875ZM8.00262 12.3359C8.00262 12.2305 7.91669 12.1445 7.81122 12.1445H7.60419C7.49872 12.1445 7.41278 12.2305 7.41278 12.3359C7.41278 12.4414 7.49872 12.5273 7.60419 12.5273H7.81122C7.91669 12.5273 8.00262 12.4414 8.00262 12.3359ZM8.00262 13.7969C8.00262 13.6914 7.91669 13.6055 7.81122 13.6055H7.60419C7.49872 13.6055 7.41278 13.6914 7.41278 13.7969C7.41278 13.9023 7.49872 13.9883 7.60419 13.9883H7.81122C7.91669 13.9883 8.00262 13.9023 8.00262 13.7969Z" fill="white"/>
<path d="M14.444 6.39844V8.66016H6.88934V5.00391C6.88934 4.93359 6.94794 4.875 7.01825 4.875H12.9206V6.07031C12.9206 6.25 13.069 6.39844 13.2487 6.39844H14.444ZM13.7018 7.91016C13.8073 7.91016 13.8893 7.82422 13.8893 7.71875C13.8893 7.61328 13.8034 7.52734 13.6979 7.52734H8.63544C8.52997 7.52734 8.44403 7.61328 8.44403 7.71875C8.44403 7.82422 8.52997 7.91016 8.63544 7.91016H13.7018ZM8.00262 7.71875C8.00262 7.61328 7.91669 7.52734 7.81122 7.52734H7.60419C7.49872 7.52734 7.41278 7.61328 7.41278 7.71875C7.41278 7.82422 7.49872 7.91016 7.60419 7.91016H7.81122C7.91669 7.91016 8.00262 7.82422 8.00262 7.71875Z" fill="white"/>
<path d="M13.3034 5.14844L14.1745 6.01562H13.3034V5.14844Z" fill="white"/>
<path d="M8.44012 1.98828V2.92188H3.77216C3.66669 2.92188 3.58075 3.00781 3.58075 3.11328V7.78125L2.64716 7.78516V2.19141C2.64716 2.07812 2.737 1.98828 2.85028 1.98828H8.44012Z" fill="white"/>
<path d="M8.44794 17.082V18.0195H2.85419C2.74091 18.0195 2.65106 17.9297 2.65106 17.8164V12.2227H3.58466V16.8906C3.58466 16.9961 3.67059 17.082 3.77606 17.082H8.44794Z" fill="white"/>
</svg>
