<svg width="21" height="20" viewBox="0 0 21 20" fill="none" xmlns="http://www.w3.org/2000/svg">
<path d="M6.30377 18H15.031V15.0944C15.031 15.0932 15.0303 15.0921 15.0303 15.0909C15.0303 15.0897 15.031 15.0886 15.031 15.0874V13.6364H6.30377V18ZM7.03104 14.7273H14.3038C14.5048 14.7273 14.6674 14.8899 14.6674 15.0909C14.6674 15.2919 14.5048 15.4545 14.3038 15.4545H7.03104C6.83005 15.4545 6.66741 15.2919 6.66741 15.0909C6.66741 14.8899 6.83005 14.7273 7.03104 14.7273ZM7.03104 16.1818H14.3038C14.5048 16.1818 14.6674 16.3444 14.6674 16.5454C14.6674 16.7464 14.5048 16.9091 14.3038 16.9091H7.03104C6.83005 16.9091 6.66741 16.7464 6.66741 16.5454C6.66741 16.3444 6.83005 16.1818 7.03104 16.1818Z" fill="white"/>
<path d="M13.2737 2V4.07602H15.0303L13.2737 2Z" fill="white"/>
<path d="M18.3031 6.72727H15.0303V4.5785H13.2121C13.0111 4.5785 12.8485 4.3863 12.8485 4.14875V2H6.30305V6.72727H3.03032C2.82968 6.72727 2.66669 6.89027 2.66669 7.09091V14.3636C2.66669 14.5643 2.82968 14.7273 3.03032 14.7273H5.57649V13.6364H4.48558C4.28458 13.6364 4.12194 13.4737 4.12194 13.2727C4.12194 13.0717 4.28458 12.9091 4.48558 12.9091H16.8492C17.0502 12.9091 17.2129 13.0717 17.2129 13.2727C17.2129 13.4737 17.0502 13.6364 16.8492 13.6364H15.7583V14.7273H18.3031C18.5037 14.7273 18.6667 14.5643 18.6667 14.3636V7.09091C18.6667 6.89027 18.5037 6.72727 18.3031 6.72727ZM15.031 8.54545H14.6674C14.4664 8.54545 14.3038 8.38281 14.3038 8.18182C14.3038 7.98082 14.4664 7.81818 14.6674 7.81818H15.031C15.232 7.81818 15.3947 7.98082 15.3947 8.18182C15.3947 8.38281 15.232 8.54545 15.031 8.54545ZM16.8492 8.54545H16.4856C16.2846 8.54545 16.1219 8.38281 16.1219 8.18182C16.1219 7.98082 16.2846 7.81818 16.4856 7.81818H16.8492C17.0502 7.81818 17.2129 7.98082 17.2129 8.18182C17.2129 8.38281 17.0502 8.54545 16.8492 8.54545Z" fill="white"/>
</svg>
