<svg width="20" height="20" viewBox="0 0 20 20" fill="none" xmlns="http://www.w3.org/2000/svg">
<path d="M5.63715 18H14.3644V15.0944C14.3644 15.0932 14.3637 15.0921 14.3637 15.0909C14.3637 15.0897 14.3644 15.0886 14.3644 15.0874V13.6364H5.63715V18ZM6.36442 14.7273H13.6371C13.8381 14.7273 14.0008 14.8899 14.0008 15.0909C14.0008 15.2919 13.8381 15.4545 13.6371 15.4545H6.36442C6.16342 15.4545 6.00078 15.2919 6.00078 15.0909C6.00078 14.8899 6.16342 14.7273 6.36442 14.7273ZM6.36442 16.1818H13.6371C13.8381 16.1818 14.0008 16.3444 14.0008 16.5454C14.0008 16.7464 13.8381 16.9091 13.6371 16.9091H6.36442C6.16342 16.9091 6.00078 16.7464 6.00078 16.5454C6.00078 16.3444 6.16342 16.1818 6.36442 16.1818Z" fill="white"/>
<path d="M12.6071 2V4.07602H14.3637L12.6071 2Z" fill="white"/>
<path d="M17.6364 6.72727H14.3637V4.5785H12.5455C12.3445 4.5785 12.1819 4.3863 12.1819 4.14875V2H5.63642V6.72727H2.3637C2.16306 6.72727 2.00006 6.89027 2.00006 7.09091V14.3636C2.00006 14.5643 2.16306 14.7273 2.3637 14.7273H4.90986V13.6364H3.81895C3.61796 13.6364 3.45532 13.4737 3.45532 13.2727C3.45532 13.0717 3.61796 12.9091 3.81895 12.9091H16.1826C16.3836 12.9091 16.5462 13.0717 16.5462 13.2727C16.5462 13.4737 16.3836 13.6364 16.1826 13.6364H15.0917V14.7273H17.6364C17.8371 14.7273 18.0001 14.5643 18.0001 14.3636V7.09091C18.0001 6.89027 17.8371 6.72727 17.6364 6.72727ZM14.3644 8.54545H14.0008C13.7998 8.54545 13.6371 8.38281 13.6371 8.18182C13.6371 7.98082 13.7998 7.81818 14.0008 7.81818H14.3644C14.5654 7.81818 14.728 7.98082 14.728 8.18182C14.728 8.38281 14.5654 8.54545 14.3644 8.54545ZM16.1826 8.54545H15.819C15.618 8.54545 15.4553 8.38281 15.4553 8.18182C15.4553 7.98082 15.618 7.81818 15.819 7.81818H16.1826C16.3836 7.81818 16.5462 7.98082 16.5462 8.18182C16.5462 8.38281 16.3836 8.54545 16.1826 8.54545Z" fill="white"/>
</svg>
