<svg width="75" height="75" viewBox="0 0 75 75" fill="none" xmlns="http://www.w3.org/2000/svg">
<path fill-rule="evenodd" clip-rule="evenodd" d="M74.1685 0.448967C73.2188 0.0844197 66.8509 0.178888 62.5395 0.621144C58.912 0.993309 53.48 1.95478 53.1524 2.28237C53.0118 2.42255 54.0437 6.66912 54.2696 6.88206C54.3367 6.94491 56.1057 6.64321 58.2008 6.21162C61.0977 5.61471 63.5383 5.41893 68.3906 5.39378L74.7711 5.36026L74.7711 3.02022C74.7711 1.23787 74.6275 0.624955 74.1685 0.448967ZM72.9891 10.2822C68.4599 9.60302 58.144 10.8254 51.725 12.802C47.9657 13.9597 40.1932 17.7377 36.5352 20.1859C26.177 27.1173 17.6816 38.3329 13.8152 50.1809C12.4606 54.3311 11.3388 59.2469 10.9933 62.5427L10.7495 64.8713L12.1909 65.1098C15.5697 65.6682 15.6086 65.6438 15.908 62.785C16.7876 54.3939 20.7153 44.2868 25.7908 37.3528C30.7238 30.6138 39.0158 23.6421 45.9787 20.379C53.5824 16.8159 60.1008 15.3649 68.7707 15.3055L74.7696 15.2644L74.7703 12.9068L74.7711 10.5496L72.9891 10.2822ZM73.647 20.3284C72.5476 20.1669 72.5179 20.2069 72.2707 22.1835C71.945 24.7917 72.1854 25.3589 73.6165 25.3589L74.7711 25.3589L74.7711 22.9259C74.7711 20.5234 74.7574 20.4914 73.647 20.3284ZM74.0432 30.5121C72.5389 30.0348 64.6301 30.255 61.7788 30.8534C55.804 32.1082 50.6059 34.3671 46.3494 37.5577L44.4021 39.0178L42.7569 37.3417C41.1421 35.6961 41.125 35.6512 41.8137 34.8901C42.6098 34.0101 47.7181 30.6652 49.7328 29.7045L51.0675 29.068L50.1278 26.9279C49.6109 25.7505 49.065 24.6595 48.9149 24.503C48.2418 23.8017 40.5338 28.9297 35.1997 33.6265L33.5304 35.0965L37.6239 39.4654C39.8752 41.8679 42.2681 44.4014 42.9416 45.0955L44.1663 46.3567L45.4035 45.201C49.7012 41.1864 55.9301 37.7531 61.4489 36.3578C64.0137 35.7091 65.4571 35.594 69.6659 35.7026L74.7715 35.8344L74.7715 33.2887C74.7711 31.1174 74.6641 30.7094 74.0432 30.5121ZM73.7693 49.8826C73.2569 52.5811 72.887 54.8308 72.9476 54.8826C73.0078 54.9345 73.4424 55.0952 73.914 55.2399L74.7711 55.5036L74.7357 50.2399L74.7006 44.9766L73.7693 49.8826ZM73.6748 60.6826C73.0718 60.3265 71.7046 59.8476 70.6365 59.6187C68.2306 59.1025 65.419 59.8111 63.0435 61.5317C61.4272 62.7031 59.7134 65.4244 60.0464 66.2922C60.2205 66.7455 63.0107 67.6418 64.248 67.6418C64.5604 67.6418 64.9283 67.2872 65.0658 66.8537C65.4193 65.7402 67.4725 64.5974 69.1231 64.5959C70.9352 64.594 72.7027 66.0548 73.3 68.0475C73.6805 69.3186 73.6432 69.77 73.0466 71.093C71.35 74.8554 66.1012 74.588 64.4724 70.6561C63.9985 69.5121 63.9097 69.4737 62.2325 69.6832C61.2722 69.8032 57.9882 70.1075 54.9351 70.3593L49.3842 70.818L49.748 72.6582L50.1118 74.4985L62.4416 74.4985L74.7711 74.4985L74.7711 67.9145L74.7711 61.3302L73.6748 60.6826ZM70.1047 40.1191C64.9352 39.7473 60.5267 40.6725 55.6592 43.1508C45.3491 48.4 39.0226 60.2533 40.2778 71.971L40.5482 74.4985L42.9961 74.4985L45.4443 74.4985L45.2051 71.3558C44.4219 61.0697 49.5179 51.6246 58.0789 47.4953C61.3834 45.9011 63.7905 45.1922 65.9504 45.1762L67.2242 45.1671L66.9518 47.167C66.6417 49.4441 66.5237 49.5641 64.2918 49.87C57.3136 50.8265 51.0527 57.7765 49.7914 65.9665L49.5507 67.5294L51.0188 67.7717C54.273 68.3096 54.4837 68.2181 54.7682 66.1478C55.3191 62.145 58.4777 57.5381 61.8523 55.8163C63.6126 54.9181 67.9316 54.2065 69.6572 54.5303C70.3748 54.6648 70.9618 54.6255 70.9618 54.4431C70.9618 54.2606 71.3881 51.113 71.9092 47.4488C72.4299 43.7843 72.8585 40.6809 72.8615 40.5518C72.8642 40.423 71.6239 40.228 70.1047 40.1191ZM65.3432 20.1429C62.2615 20.3829 58.1174 21.1649 54.7648 22.1397L52.7966 22.7119L53.5923 25.0827C54.0304 26.387 54.3965 27.4898 54.4064 27.534C54.4163 27.5778 55.524 27.2715 56.8679 26.8533C59.0426 26.1764 61.1598 25.8042 66.6764 25.1292L68.2953 24.9311L68.2953 22.4223L68.2953 19.9132L65.3432 20.1429ZM46.9928 6.12211C46.2084 3.9314 46.2477 3.93597 42.3801 5.58157C28.8774 11.3275 17.3993 21.5218 9.99296 34.3465L8.14051 37.5535L10.3994 38.694C11.642 39.321 12.7326 39.8341 12.8232 39.8341C12.9139 39.8341 13.5417 38.8487 14.2182 37.6438C18.1261 30.6858 25.4738 22.2685 31.5153 17.8295C34.9242 15.3245 40.8941 11.9225 44.6089 10.3672C46.2149 9.69483 47.5619 8.89298 47.6023 8.58557C47.6423 8.27816 47.368 7.16966 46.9928 6.12211ZM37.5283 42.6221C34.442 40.0703 31.7454 37.9382 31.5359 37.8842C30.9588 37.7356 27.3964 43.016 25.4662 46.8813C21.8447 54.1341 20.3016 60.8171 20.2997 69.2607L20.2986 74.4985L22.9148 74.4985L25.531 74.4985L25.7374 68.4989C25.9599 62.0304 26.8829 57.3015 28.8679 52.46C29.6518 50.5477 31.7648 46.3777 32.3438 45.6006C32.4002 45.5248 33.228 46.1034 34.1833 46.8859L35.92 48.3094L35.1539 49.5493C33.3758 52.4264 31.5565 57.9198 30.7881 62.7339C30.5729 64.0828 30.5981 64.1163 32.0044 64.3487C32.7941 64.4793 33.9856 64.5879 34.6515 64.5902C35.8225 64.5944 35.8769 64.522 36.2956 62.404C37.2216 57.7194 38.7446 54.0027 41.2941 50.2072C42.3173 48.6842 43.1507 47.3986 43.1469 47.3502C43.1431 47.3018 40.6145 45.1743 37.5283 42.6221ZM35.6331 70.0226L35.5048 66.8799L33.0444 66.8799L30.5836 66.8799L30.5836 70.0866C30.5836 74.5137 30.5737 74.4985 33.4813 74.4985C35.576 74.4985 35.9059 74.4051 35.8388 73.8318C35.7966 73.4654 35.7036 71.7512 35.6331 70.0226ZM14.8284 70.6892C14.3336 70.6892 13.1337 70.7981 12.162 70.9315C10.2916 71.1878 10.0783 71.5661 10.6344 73.6414C10.8424 74.4166 11.0961 74.4985 13.296 74.4985L15.7274 74.4985L15.7274 72.5938C15.7274 70.8461 15.6531 70.6892 14.8284 70.6892ZM8.37059 43.4621C7.12229 42.9204 6.05304 42.5254 5.99513 42.5844C5.93723 42.6431 5.20318 44.7481 4.36362 47.2622C1.99425 54.36 1.19888 59.0679 0.969182 67.3561L0.771481 74.4985L3.39264 74.4992L6.0138 74.5L5.89076 70.4043C5.6782 63.3194 6.99964 54.8983 9.40938 47.9814L10.6409 44.4464L8.37059 43.4621Z" fill="#CCCCCC"/>
</svg>
