<svg width="21" height="20" viewBox="0 0 21 20" fill="none" xmlns="http://www.w3.org/2000/svg">
<g clip-path="url(#clip0_83_2607)">
<path d="M15.5908 13.3333L16.9491 11.975C14.6408 9.45829 14.6408 5.67496 16.9491 3.02496L15.5908 1.66663C12.3408 4.90829 12.3324 9.95829 15.5908 13.3333ZM19.7491 9.12496C19.0491 8.14163 19.0491 6.86663 19.7491 5.88329L18.3491 4.47496C16.6658 6.15829 16.6658 8.69996 18.3491 10.5333L19.7491 9.12496ZM8.14909 10.8333C9.99076 10.8333 11.4824 9.34163 11.4824 7.49996C11.4824 5.65829 9.99076 4.16663 8.14909 4.16663C6.30742 4.16663 4.81576 5.65829 4.81576 7.49996C4.81576 9.34163 6.30742 10.8333 8.14909 10.8333ZM13.4741 12.9666C12.0741 12.25 10.2574 11.6666 8.14909 11.6666C6.04076 11.6666 4.22409 12.25 2.82409 12.9666C1.99076 13.3916 1.48242 14.25 1.48242 15.1833V17.5H14.8158V15.1833C14.8158 14.25 14.3074 13.3916 13.4741 12.9666Z" fill="#5544B1"/>
</g>
<defs>
<clipPath id="clip0_83_2607">
<rect width="20" height="20" fill="white" transform="translate(0.646484)"/>
</clipPath>
</defs>
</svg>
