<svg width="21" height="20" viewBox="0 0 21 20" fill="none" xmlns="http://www.w3.org/2000/svg">
<g clip-path="url(#clip0_83_2625)">
<path d="M18.4798 4.16663V5.83329H15.9798V8.33329H14.3132V5.83329H11.8132V4.16663H14.3132V1.66663H15.9798V4.16663H18.4798ZM15.9798 15.8333H4.31315V4.16663H9.31315V2.49996H4.31315C3.39648 2.49996 2.64648 3.24996 2.64648 4.16663V15.8333C2.64648 16.75 3.39648 17.5 4.31315 17.5H15.9798C16.8965 17.5 17.6465 16.75 17.6465 15.8333V10.8333H15.9798V15.8333ZM12.6465 10.8333V14.1666H14.3132V10.8333H12.6465ZM9.31315 14.1666H10.9798V7.49996H9.31315V14.1666ZM7.64648 14.1666V9.16663H5.97982V14.1666H7.64648Z" fill="#D4B477"/>
</g>
<defs>
<clipPath id="clip0_83_2625">
<rect width="20" height="20" fill="white" transform="translate(0.146484)"/>
</clipPath>
</defs>
</svg>
