<svg width="21" height="20" viewBox="0 0 21 20" fill="none" xmlns="http://www.w3.org/2000/svg">
<g clip-path="url(#clip0_83_2617)">
<path d="M10.0605 7.63329V1.66663C5.89388 2.08329 2.56055 5.65829 2.56055 9.99996C2.56055 14.3416 5.89388 17.9166 10.0605 18.3333V12.3666C9.22721 12.025 8.39388 11.1 8.39388 9.99996C8.39388 8.89996 9.22721 7.97496 10.0605 7.63329ZM13.2772 9.16663H19.2272C18.8272 5.20829 15.8939 2.05829 11.7272 1.66663V7.63329C12.5605 7.88329 12.9939 8.44996 13.2772 9.16663ZM11.7272 12.3666V18.3333C15.8939 17.9416 18.8272 14.7916 19.2272 10.8333H13.2772C12.9939 11.55 12.5605 12.1166 11.7272 12.3666Z" fill="#DDCC34"/>
</g>
<defs>
<clipPath id="clip0_83_2617">
<rect width="20" height="20" fill="white" transform="translate(0.896484)"/>
</clipPath>
</defs>
</svg>
