<svg width="21" height="20" viewBox="0 0 21 20" fill="none" xmlns="http://www.w3.org/2000/svg">
<g clip-path="url(#clip0_83_2596)">
<path d="M8.05221 5.29165C6.35221 7.19999 5.18555 9.94165 5.07721 10.2L2.06055 8.90832L5.43555 5.53332C5.82721 5.14165 6.39388 4.96665 6.94388 5.07499L8.05221 5.29165ZM9.70221 14.1667C9.70221 14.1667 12.8189 12.875 14.6105 11.0833C19.1105 6.58332 18.3605 3.06665 18.1189 2.27499C17.3272 2.02499 13.8105 1.28332 9.31055 5.78332C7.51888 7.57499 6.22721 10.6917 6.22721 10.6917L9.70221 14.1667ZM15.1022 12.3417C13.1939 14.0417 10.4522 15.2083 10.1939 15.3167L11.4855 18.3333L14.8605 14.9583C15.2522 14.5667 15.4272 14 15.3189 13.45L15.1022 12.3417ZM7.89388 15C7.89388 15.6917 7.61055 16.3167 7.16055 16.7667C6.17721 17.75 2.06055 18.3333 2.06055 18.3333C2.06055 18.3333 2.64388 14.2167 3.62721 13.2333C4.07721 12.7833 4.70221 12.5 5.39388 12.5C6.77721 12.5 7.89388 13.6167 7.89388 15ZM11.2272 7.49999C11.2272 6.58332 11.9772 5.83332 12.8939 5.83332C13.8105 5.83332 14.5605 6.58332 14.5605 7.49999C14.5605 8.41665 13.8105 9.16665 12.8939 9.16665C11.9772 9.16665 11.2272 8.41665 11.2272 7.49999Z" fill="#C53D6B"/>
</g>
<defs>
<clipPath id="clip0_83_2596">
<rect width="20" height="20" fill="white" transform="translate(0.396484)"/>
</clipPath>
</defs>
</svg>
