<svg width="17" height="16" viewBox="0 0 17 16" fill="none" xmlns="http://www.w3.org/2000/svg">
<g opacity="">
<path d="M9.23792 3.05002C9.36015 3.17225 9.42126 3.32503 9.42126 3.50836C9.42126 3.69169 9.36015 3.85002 9.23792 3.98336L5.87126 7.33336L13.5546 7.33336C13.7435 7.33336 13.899 7.39725 14.0213 7.52502C14.1435 7.6528 14.2046 7.81114 14.2046 8.00002C14.2046 8.18891 14.1435 8.34725 14.0213 8.47502C13.899 8.6028 13.7435 8.66669 13.5546 8.66669L5.87126 8.66669L9.23792 12.0334C9.36015 12.1556 9.42126 12.3111 9.42126 12.5C9.42126 12.6889 9.36015 12.8445 9.23792 12.9667C9.10459 13.0889 8.94626 13.15 8.76292 13.15C8.57959 13.15 8.42681 13.0889 8.30459 12.9667L3.78792 8.46669C3.72126 8.40002 3.67126 8.3278 3.63792 8.25002C3.60459 8.17225 3.58792 8.08891 3.58792 8.00002C3.58792 7.92225 3.60459 7.84169 3.63792 7.75836C3.67126 7.67502 3.72126 7.60002 3.78792 7.53336L8.30459 3.03336C8.42681 2.90002 8.57959 2.83891 8.76292 2.85002C8.94626 2.86114 9.10459 2.9278 9.23792 3.05002Z" fill="#14062E"/>
</g>
</svg>
