<svg width="17" height="16" viewBox="0 0 17 16" fill="none" xmlns="http://www.w3.org/2000/svg">
<path d="M8.30505 12.95C8.18282 12.8278 8.12171 12.675 8.12171 12.4916C8.12171 12.3083 8.18282 12.15 8.30505 12.0166L11.6717 8.66664L3.98838 8.66664C3.79949 8.66664 3.64393 8.60275 3.52171 8.47498C3.39949 8.3472 3.33838 8.18886 3.33838 7.99998C3.33838 7.81109 3.39949 7.65275 3.52171 7.52498C3.64393 7.3972 3.79949 7.33331 3.98838 7.33331L11.6717 7.33331L8.30505 3.96664C8.18282 3.84442 8.12171 3.68886 8.12171 3.49998C8.12171 3.31109 8.18282 3.15553 8.30505 3.03331C8.43838 2.91109 8.59671 2.84998 8.78005 2.84998C8.96338 2.84998 9.11616 2.91109 9.23838 3.03331L13.755 7.53331C13.8217 7.59998 13.8717 7.6722 13.905 7.74998C13.9384 7.82775 13.955 7.91109 13.955 7.99998C13.955 8.07775 13.9384 8.15831 13.905 8.24164C13.8717 8.32498 13.8217 8.39997 13.755 8.46664L9.23838 12.9666C9.11616 13.1 8.96338 13.1611 8.78005 13.15C8.59671 13.1389 8.43838 13.0722 8.30505 12.95Z" fill="#CD7FB4"/>
</svg>
