<svg width="19" height="19" viewBox="0 0 19 19" fill="none" xmlns="http://www.w3.org/2000/svg">
<g clip-path="url(#clip0_24_838)">
<path d="M17.1301 1.28473C15.8671 0.0217285 13.8338 0.0217285 9.76807 0.0217285H9.01807C4.95232 0.0217285 2.91907 0.0217285 1.65607 1.28473C0.393066 2.54773 0.393066 4.58098 0.393066 8.64673V9.39673C0.393066 13.4625 0.393066 15.495 1.65607 16.7587C2.91907 18.0225 4.95232 18.0217 9.01807 18.0217H9.76807C13.8338 18.0217 15.8663 18.0217 17.1301 16.7587C18.3931 15.4957 18.3931 13.4625 18.3931 9.39673V8.64673C18.3931 4.58098 18.3931 2.54773 17.1301 1.28473ZM15.0203 12.7717H13.7078C13.2076 12.7717 13.0606 12.3727 12.1703 11.4825C11.3911 10.7317 11.0573 10.6342 10.8631 10.6342C10.5983 10.6342 10.5196 10.7092 10.5196 11.0842V12.261C10.5196 12.5835 10.4168 12.7717 9.58207 12.7717C8.19157 12.7717 6.66307 11.9272 5.57782 10.3702C3.95032 8.08948 3.50557 6.36523 3.50557 6.01798C3.50557 5.82298 3.58057 5.64673 3.95557 5.64673H5.26882C5.60407 5.64673 5.73007 5.79373 5.85607 6.15673C6.49807 8.02648 7.58107 9.66073 8.02582 9.66073C8.19232 9.66073 8.26882 9.58348 8.26882 9.16048V7.22773C8.22007 6.33823 7.74682 6.26473 7.74682 5.94823C7.74682 5.80198 7.87207 5.64673 8.08057 5.64673H10.1438C10.4221 5.64673 10.5188 5.79523 10.5188 6.12898V8.72923C10.5188 9.00673 10.6396 9.10423 10.7228 9.10423C10.8901 9.10423 11.0288 9.00673 11.3348 8.70073C12.2806 7.64398 12.9481 6.01723 12.9481 6.01723C13.0321 5.82223 13.1851 5.64598 13.5196 5.64598H14.8321C15.2288 5.64598 15.3128 5.84998 15.2288 6.12823C15.0616 6.89323 13.4626 9.14548 13.4626 9.14548C13.3231 9.36823 13.2676 9.47923 13.4626 9.72973C13.6021 9.92473 14.0603 10.314 14.3663 10.6755C14.9303 11.31 15.3556 11.8447 15.4741 12.2137C15.5836 12.5842 15.3953 12.7717 15.0203 12.7717Z" fill="#14062E"/>
</g>
<defs>
<clipPath id="clip0_24_838">
<rect width="18" height="18" fill="white" transform="translate(0.393066 0.0217285)"/>
</clipPath>
</defs>
</svg>
