<svg width="99" height="103" viewBox="0 0 99 103" fill="none" xmlns="http://www.w3.org/2000/svg">
<g opacity="0.2">
<path fill-rule="evenodd" clip-rule="evenodd" d="M89.5039 123.719C90.049 122.305 89.9077 112.825 89.2465 106.406C88.69 101.006 87.2524 92.919 86.7626 92.4313C86.553 92.222 80.2035 93.7583 79.8851 94.0946C79.7911 94.1944 80.2422 96.828 80.8875 99.9471C81.7801 104.26 82.0728 107.893 82.1104 115.117L82.1605 124.616L85.6594 124.616C88.3244 124.616 89.2408 124.402 89.5039 123.719ZM74.8012 121.963C75.8167 115.22 73.989 99.8626 71.0335 90.3064C69.3026 84.7097 63.6537 73.1386 59.9931 67.6927C49.6293 52.2721 32.8595 39.6247 15.1444 33.8686C8.93895 31.852 1.5887 30.1819 -3.33918 29.6675L-6.82092 29.3046L-7.17748 31.4505C-8.01247 36.4807 -7.976 36.5385 -3.70142 36.9843C8.84496 38.2937 23.9572 44.1411 34.325 51.6971C44.4012 59.041 54.8254 71.3857 59.7043 81.7517C65.032 93.0715 67.2015 102.776 67.2903 115.683L67.3518 124.614L70.8769 124.615L74.4013 124.616L74.8012 121.963ZM59.78 122.942C60.0215 121.306 59.9617 121.261 57.0063 120.893C53.1064 120.409 52.2584 120.766 52.2584 122.897L52.2584 124.616L55.8962 124.616C59.4884 124.616 59.5363 124.595 59.78 122.942ZM44.5533 123.532C45.267 121.293 44.9377 109.519 44.043 105.274C42.1668 96.3789 38.7893 88.6402 34.0186 82.3035L31.8355 79.4044L34.3416 76.9551C36.8021 74.5512 36.8693 74.5257 38.0073 75.551C39.323 76.7362 44.3243 84.341 45.7608 87.3404L46.7125 89.3276L49.9123 87.9285C51.6728 87.159 53.3041 86.3463 53.5382 86.1229C54.5868 85.1208 46.9193 73.6455 39.8965 65.7044L37.6986 63.2194L31.1662 69.3135C27.574 72.665 23.7858 76.2276 22.7481 77.2302L20.8622 79.0534L22.5903 80.8953C28.5929 87.2934 33.7264 96.5666 35.8127 104.783C36.7827 108.601 36.9547 110.75 36.7924 117.016L36.5953 124.616L40.4017 124.616C43.6482 124.616 44.2583 124.457 44.5533 123.532ZM15.5903 123.124C11.5555 122.362 8.19168 121.811 8.11422 121.901C8.03676 121.991 7.79641 122.638 7.57997 123.34L7.18583 124.616L15.0561 124.563L22.9258 124.511L15.5903 123.124ZM-0.557984 122.984C-0.0254443 122.086 0.690513 120.051 1.03283 118.461C1.80459 114.879 0.745177 110.693 -1.82755 107.157C-3.57897 104.75 -7.64791 102.199 -8.94538 102.695C-9.62316 102.954 -10.9634 107.108 -10.9634 108.95C-10.9634 109.415 -10.4331 109.963 -9.78495 110.167C-8.12011 110.694 -6.41142 113.75 -6.40913 116.208C-6.40629 118.905 -8.59055 121.537 -11.5699 122.426C-13.4706 122.992 -14.1455 122.937 -16.1236 122.049C-21.7492 119.523 -21.3494 111.709 -15.4703 109.284C-13.7599 108.578 -13.7024 108.446 -14.0157 105.949C-14.1951 104.52 -14.6501 99.6306 -15.0266 95.0853L-15.7124 86.8215L-18.464 87.3631L-21.2155 87.9047L-21.2155 106.261L-21.2155 124.616L-11.3712 124.616L-1.52625 124.616L-0.557984 122.984ZM30.1889 117.669C30.7448 109.973 29.3613 103.41 25.6557 96.1634C17.8071 80.8143 0.0839263 71.3959 -17.4365 73.2645L-21.2155 73.6671L-21.2155 77.3113L-21.2155 80.956L-16.5166 80.5999C-1.13666 79.4339 12.9857 87.0206 19.1598 99.7656C21.5434 104.685 22.6034 108.269 22.6273 111.484L22.641 113.381L19.6508 112.975C16.2459 112.513 16.0665 112.338 15.6091 109.015C14.1789 98.6263 3.78724 89.3054 -8.45841 87.4278L-10.7954 87.0694L-11.1576 89.255C-11.9618 94.0997 -11.8251 94.4133 -8.72953 94.8369C-2.74454 95.657 4.14379 100.359 6.71822 105.383C8.06125 108.004 9.12519 114.434 8.64106 117.003C8.44 118.071 8.49867 118.945 8.77149 118.945C9.04431 118.945 13.7506 119.579 19.2293 120.355C24.7085 121.13 29.3488 121.768 29.5419 121.773C29.7344 121.777 30.026 119.931 30.1889 117.669ZM60.0574 110.58C59.6986 105.992 58.5293 99.8229 57.0718 94.8318L56.2163 91.9016L52.6713 93.0863C50.7211 93.7385 49.0722 94.2834 49.0061 94.2982C48.9406 94.3129 49.3986 95.962 50.024 97.9628C51.0361 101.2 51.5926 104.352 52.6018 112.565L52.898 114.975L56.6491 114.975L60.4009 114.975L60.0574 110.58ZM81.0214 83.2613C84.297 82.0936 84.2901 82.152 81.8296 76.3943C73.2383 56.2923 57.9956 39.2044 38.82 28.1783L34.0249 25.4205L32.3196 28.7834C31.3821 30.6333 30.6149 32.2569 30.6149 32.3919C30.6149 32.5269 32.0884 33.4614 33.8899 34.4686C44.2936 40.2865 56.8792 51.2253 63.5164 60.2195C67.2618 65.2944 72.3486 74.182 74.6741 79.7124C75.6794 82.1033 76.8784 84.1085 77.338 84.1686C77.7976 84.2282 79.4551 83.8199 81.0214 83.2613ZM26.4463 69.1711C30.2618 64.5765 33.4496 60.562 33.5305 60.2501C33.7526 59.3909 25.8573 54.0874 20.0779 51.2139C9.23341 45.8225 -0.75904 43.5252 -13.384 43.5223L-21.2155 43.5206L-21.2155 47.4155L-21.2155 51.3103L-12.2449 51.6177C-2.5731 51.9489 4.49747 53.323 11.7366 56.2781C14.5959 57.4452 20.8309 60.5909 21.9928 61.4529C22.1062 61.5368 21.241 62.7691 20.0711 64.1914L17.9426 66.7768L16.0887 65.6364C11.7868 62.9892 3.57306 60.2807 -3.6251 59.1369C-5.64194 58.8165 -5.69203 58.8539 -6.03946 60.9476C-6.23482 62.1232 -6.39717 63.8971 -6.40059 64.8884C-6.40685 66.6317 -6.29863 66.7128 -3.13185 67.336C3.87267 68.7146 9.4299 70.9819 15.1051 74.7775C17.3822 76.3007 19.3045 77.5415 19.3768 77.5359C19.4491 77.5302 22.6302 73.7658 26.4463 69.1711ZM-14.5231 66.3498L-9.82424 66.1587L-9.82424 62.4958L-9.82424 58.8323L-14.6189 58.8323C-21.2383 58.8323 -21.2155 58.8176 -21.2155 63.1463C-21.2155 66.2647 -21.076 66.7559 -20.2188 66.656C-19.6709 66.5931 -17.1078 66.4547 -14.5231 66.3498ZM-15.5199 35.3771C-15.5199 34.6404 -15.6828 32.8541 -15.8821 31.4074C-16.2654 28.6229 -16.831 28.3054 -19.934 29.1333C-21.0931 29.443 -21.2155 29.8207 -21.2155 33.0957L-21.2155 36.7154L-18.3677 36.7154C-15.7545 36.7154 -15.5199 36.6049 -15.5199 35.3771ZM25.1904 25.7631C26.0003 23.9047 26.5909 22.3128 26.5026 22.2266C26.4149 22.1404 23.2675 21.0476 19.5084 19.7977C8.89566 16.2704 1.8564 15.0863 -10.5362 14.7443L-21.2155 14.45L-21.2167 18.3522L-21.2178 22.2544L-15.0939 22.0712C-4.50052 21.7548 8.09086 23.7221 18.433 27.3095L23.7186 29.143L25.1904 25.7631Z" fill="#2C61B3"/>
</g>
</svg>
