<svg width="19" height="19" viewBox="0 0 19 19" fill="none" xmlns="http://www.w3.org/2000/svg">
<g clip-path="url(#clip0_103_12865)">
<path fill-rule="evenodd" clip-rule="evenodd" d="M9.39307 0.0217285C4.42282 0.0217285 0.393066 4.05148 0.393066 9.02173C0.393066 13.992 4.42282 18.0217 9.39307 18.0217C14.3633 18.0217 18.3931 13.992 18.3931 9.02173C18.3931 4.05148 14.3633 0.0217285 9.39307 0.0217285ZM13.5646 6.14248C13.4296 7.56523 12.8431 11.019 12.5453 12.6127C12.4193 13.2877 12.1703 13.5135 11.9303 13.5352C11.4076 13.5832 11.0108 13.1895 10.5046 12.858C9.71257 12.339 9.26482 12.0157 8.49607 11.5087C7.60732 10.923 8.18332 10.6012 8.68957 10.0755C8.82232 9.93748 11.1248 7.84273 11.1698 7.65298C11.1751 7.62898 11.1811 7.54048 11.1278 7.49398C11.0746 7.44748 10.9973 7.46323 10.9418 7.47598C10.8623 7.49398 9.59707 8.33023 7.14532 9.98473C6.78607 10.2315 6.46057 10.3515 6.16882 10.3455C5.84782 10.3387 5.22982 10.164 4.77007 10.014C4.20682 9.83098 3.75832 9.73348 3.79732 9.42298C3.81757 9.26098 4.04032 9.09523 4.46632 8.92573C7.08982 7.78273 8.83957 7.02898 9.71482 6.66448C12.2146 5.62498 12.7336 5.44423 13.0726 5.43823C13.4971 5.43223 13.5991 5.78248 13.5646 6.14248Z" fill="#14062E"/>
</g>
<defs>
<clipPath id="clip0_103_12865">
<rect width="18" height="18" fill="white" transform="translate(0.393066 0.0217285)"/>
</clipPath>
</defs>
</svg>
