<svg width="92" height="50" viewBox="0 0 92 50" fill="none" xmlns="http://www.w3.org/2000/svg">
<path d="M8.18329 9.59706V3.52622H12.4969V9.59706L17.4552 3.52622H22.3263L15.5865 11.7274L22.8495 20.5228H18.0033L12.4969 14.0944V20.5228H8.1739V14.0197H12.4969V9.59706H8.18329Z" fill="#14062E"/>
<path d="M30.2085 20.5228V16.7123C26.7744 15.3035 26.6308 9.07019 30.0573 7.46523C31.2892 6.88818 32.8912 6.75697 34.5721 7.46523C37.963 8.89398 38.4012 14.7995 34.5721 16.7123V20.4002C36.6486 20.1144 38.7878 18.5601 40.0338 17.0762C40.9538 15.9806 42.2308 13.1416 41.4894 10.1167C40.8396 7.46523 38.5536 4.43629 35.1212 3.74842C33.209 3.36522 32.0133 3.30805 30.2085 3.74842C25.8282 4.81729 22.6543 8.09506 23.2087 13.523C23.485 16.2282 26.3044 19.6001 30.2085 20.5228Z" fill="#14062E"/>
<path d="M49.3703 6.91722V20.5117V20.5933H46.4952C46.0046 20.2208 45.7179 20.0616 45.1874 19.8555V3.53398H50.8876V6.91722H49.3703Z" fill="#14062E"/>
<path d="M60.8153 20.5117H56.5405V6.91722H55.2883V3.53398H60.8153C61.178 3.53398 60.9664 14.8524 60.8153 20.5117Z" fill="#14062E"/>
<path d="M67.9614 20.5117H64.6366L64.6853 3.53398H68.9754V14.2954L77.7457 3.53398H80.9497V15.0557H76.6324V10.0325L67.9614 20.5117Z" fill="#14062E"/>
<path d="M0.393066 31.0576V27.5749H6.01218V31.0576H10.3143V27.5749H15.9627V31.0576H10.3143V44.5298H6.01218V31.0576H0.393066Z" fill="#14062E"/>
<path d="M21.5995 39.1947C22.3969 40.4748 23.6045 41.3998 26.5866 41.1351L28.8705 44.0225C21.5995 46.4378 17.6269 41.5052 16.6209 38.4316C15.7752 35.0164 16.7347 31.7963 19.1416 29.8123C21.2642 28.0626 23.8578 27.5517 26.1021 27.5517C29.7938 27.4379 32.9 30.1538 34.1197 32.8046C35.6484 35.8133 34.4287 40.2855 32.5422 41.5052L29.9587 38.3862C30.2951 37.3277 30.5418 36.2849 30.4336 35.0821C30.3285 33.9152 29.474 32.4111 28.1781 31.6296C26.89 30.8528 25.4915 30.7605 24.1122 31.1053C22.9251 31.402 20.9692 32.8252 20.8016 34.8604C20.6399 36.8232 20.8576 37.8025 21.5995 39.1947Z" fill="#14062E"/>
<path d="M40.0546 27.5517H36.4171L36.3962 32.8046C36.3962 35.87 38.1116 39.1171 42.7269 38.8107C44.3924 38.7002 45.1364 38.6899 46.4076 38.2375V44.5001H50.6656V34.7394H46.3158C42.1758 36.0103 40.7045 34.4381 40.7045 31.89V28.0948C40.4001 27.8937 40.2629 27.7737 40.0546 27.5517Z" fill="#14062E"/>
<path d="M50.6656 30.8497H46.4307V28.0111C46.6248 27.8465 46.7243 27.7447 46.8901 27.5517H50.6656V30.8497Z" fill="#14062E"/>
<path d="M54.441 41.9707V27.5517H58.8229V34.3174H59.7833L65.2156 27.5517H70.0176L63.3848 35.758L70.4078 44.0415L77.1606 27.4745H81.0023L85.204 37.949H81.1823L79.0214 32.1865L76.9205 37.949H79.3215L80.1919 40.8002H76.2002L74.6095 44.5001H65.7858L60.2035 37.9189H58.8229V41.9707H54.441Z" fill="#14062E"/>
<path d="M83.4863 44.5001L81.9472 40.8002H86.3539L87.9092 44.5001H83.4863Z" fill="#14062E"/>
<rect x="3.82227" y="9.50415" width="4.5523" height="4.5523" fill="#CD7FB4"/>
<rect x="30.0756" y="20.2966" width="4.5121" height="3.92163" fill="#CD7FB4"/>
<rect x="23.7382" y="37.5493" width="4.35762" height="4.46011" transform="rotate(-38.2486 23.7382 37.5493)" fill="#CD7FB4"/>
<rect x="54.3931" y="45.4009" width="4.48621" height="3.62084" fill="#CD7FB4"/>
<rect x="76.4741" y="18.0791" width="4.60476" height="3.55922" fill="#CD7FB4"/>
<path d="M85.2188 38.0352L90.3553 38.0352L91.4291 40.705H86.2732L85.2188 38.0352Z" fill="#CD7FB4"/>
<rect x="50.8675" width="4.4226" height="3.55527" fill="#CD7FB4"/>
<circle cx="43.4163" cy="24.314" r="4.81791" fill="#CD7FB4"/>
<path d="M42.5149 22.4336H41.6324V26.0727H42.376L44.3853 23.7895V26.0727H45.2002V22.4336H44.5679L42.657 24.787H42.5149V22.4336Z" fill="#14062E"/>
</svg>
