<svg width="15" height="14" viewBox="0 0 15 14" fill="none" xmlns="http://www.w3.org/2000/svg">
<g clip-path="url(#clip0_24_879)">
<path d="M7.39309 3.5C6.9316 3.5 6.48047 3.63685 6.09676 3.89324C5.71304 4.14963 5.41397 4.51404 5.23737 4.94041C5.06076 5.36677 5.01456 5.83592 5.10459 6.28854C5.19462 6.74117 5.41685 7.15693 5.74317 7.48325C6.06949 7.80957 6.48526 8.0318 6.93788 8.12183C7.3905 8.21186 7.85966 8.16566 8.28602 7.98905C8.71238 7.81245 9.07679 7.51338 9.33318 7.12966C9.58957 6.74595 9.72642 6.29482 9.72642 5.83333C9.72642 5.21449 9.48059 4.621 9.043 4.18342C8.60542 3.74583 8.01193 3.5 7.39309 3.5ZM7.39309 7C7.16234 7 6.93678 6.93158 6.74492 6.80338C6.55307 6.67519 6.40353 6.49298 6.31523 6.2798C6.22693 6.06662 6.20382 5.83204 6.24884 5.60573C6.29385 5.37942 6.40497 5.17154 6.56813 5.00838C6.73129 4.84521 6.93917 4.7341 7.16548 4.68908C7.39179 4.64407 7.62637 4.66717 7.83955 4.75547C8.05273 4.84378 8.23494 4.99331 8.36314 5.18517C8.49133 5.37703 8.55976 5.60259 8.55976 5.83333C8.55976 6.14275 8.43684 6.4395 8.21805 6.65829C7.99925 6.87708 7.70251 7 7.39309 7Z" fill="#14062E"/>
<path d="M7.3931 13.9999C6.9019 14.0025 6.41724 13.8873 5.97972 13.664C5.54219 13.4407 5.16453 13.1158 4.87835 12.7166C2.65526 9.65003 1.52768 7.3447 1.52768 5.8642C1.52768 4.30859 2.14564 2.8167 3.24562 1.71672C4.3456 0.616741 5.83749 -0.0012207 7.3931 -0.0012207C8.9487 -0.0012207 10.4406 0.616741 11.5406 1.71672C12.6406 2.8167 13.2585 4.30859 13.2585 5.8642C13.2585 7.3447 12.1309 9.65003 9.90785 12.7166C9.62167 13.1158 9.244 13.4407 8.80648 13.664C8.36895 13.8873 7.8843 14.0025 7.3931 13.9999ZM7.3931 1.2722C6.17534 1.27359 5.00786 1.75795 4.14677 2.61904C3.28569 3.48012 2.80132 4.64761 2.79993 5.86536C2.79993 7.03786 3.90418 9.20611 5.90851 11.9705C6.07867 12.2049 6.3019 12.3957 6.55993 12.5272C6.81796 12.6587 7.10347 12.7273 7.3931 12.7273C7.68272 12.7273 7.96823 12.6587 8.22626 12.5272C8.4843 12.3957 8.70752 12.2049 8.87768 11.9705C10.882 9.20611 11.9863 7.03786 11.9863 5.86536C11.9849 4.64761 11.5005 3.48012 10.6394 2.61904C9.77834 1.75795 8.61085 1.27359 7.3931 1.2722Z" fill="#14062E"/>
</g>
<defs>
<clipPath id="clip0_24_879">
<rect width="14" height="14" fill="white" transform="translate(0.393097)"/>
</clipPath>
</defs>
</svg>
