<svg width="15" height="14" viewBox="0 0 15 14" fill="none" xmlns="http://www.w3.org/2000/svg">
<g clip-path="url(#clip0_24_871)">
<path d="M9.16936 -5.07812e-05C9.15361 -0.000634115 5.63261 -0.000634115 5.61686 -5.07812e-05C4.02086 0.0139492 2.72644 1.31712 2.72644 2.91603V11.0827C2.72644 12.691 4.03486 13.9994 5.64311 13.9994H9.14311C10.7514 13.9994 12.0598 12.691 12.0598 11.0827V2.91662C12.0598 1.31712 10.7654 0.0145326 9.16936 -5.07812e-05ZM10.8931 11.0827C10.8931 12.0475 10.1079 12.8327 9.14311 12.8327H5.64311C4.67827 12.8327 3.89311 12.0475 3.89311 11.0827V2.91662C3.89311 2.06903 4.49861 1.36087 5.29952 1.20045L5.70436 2.0107C5.80294 2.20845 6.00536 2.33328 6.22644 2.33328H8.55977C8.78086 2.33328 8.98269 2.20845 9.08186 2.0107L9.48669 1.20045C10.2876 1.36028 10.8931 2.06903 10.8931 2.91662V11.0827ZM7.97644 11.666H6.80977C6.48777 11.666 6.22644 11.4047 6.22644 11.0827C6.22644 10.7607 6.48777 10.4994 6.80977 10.4994H7.97644C8.29844 10.4994 8.55977 10.7607 8.55977 11.0827C8.55977 11.4047 8.29844 11.666 7.97644 11.666Z" fill="#14062E"/>
</g>
<defs>
<clipPath id="clip0_24_871">
<rect width="14" height="14" fill="white" transform="translate(0.393097)"/>
</clipPath>
</defs>
</svg>
