<svg width="19" height="19" viewBox="0 0 19 19" fill="none" xmlns="http://www.w3.org/2000/svg">
<g clip-path="url(#clip0_103_12868)">
<path fill-rule="evenodd" clip-rule="evenodd" d="M15.7393 2.63773C14.0548 0.951729 11.8153 0.0224785 9.42956 0.0217285C4.51331 0.0217285 0.512064 4.02223 0.509814 8.94073C0.509064 10.5127 0.920064 12.0472 1.70081 13.4002L0.434814 18.0217L5.16281 16.7812C6.46556 17.4922 7.93256 17.8665 9.42506 17.8672H9.42881C14.3443 17.8672 18.3463 13.866 18.3486 8.94748C18.3501 6.56473 17.4231 4.32298 15.7393 2.63773ZM9.42956 16.3605H9.42656C8.09606 16.3605 6.79181 16.0027 5.65331 15.327L5.38256 15.1665L2.57681 15.9022L3.32606 13.1662L3.14981 12.8857C2.40731 11.7052 2.01581 10.341 2.01656 8.94073C2.01806 4.85323 5.34431 1.52773 9.43331 1.52773C11.4133 1.52773 13.2748 2.30023 14.6743 3.70123C16.0738 5.10298 16.8441 6.96523 16.8433 8.94598C16.8411 13.035 13.5156 16.3605 9.42956 16.3605ZM13.4961 10.8082C13.2733 10.6965 12.1776 10.1572 11.9728 10.083C11.7688 10.0087 11.6203 9.97123 11.4711 10.194C11.3218 10.4167 10.8958 10.9192 10.7653 11.0685C10.6356 11.217 10.5051 11.2357 10.2823 11.124C10.0596 11.0122 9.34106 10.7775 8.48981 10.0177C7.82756 9.42673 7.37981 8.69698 7.25006 8.47348C7.12031 8.24998 7.23656 8.12998 7.34756 8.01898C7.44806 7.91923 7.57031 7.75873 7.68206 7.62823C7.79456 7.49923 7.83131 7.40623 7.90631 7.25698C7.98056 7.10848 7.94381 6.97798 7.88756 6.86623C7.83131 6.75523 7.38581 5.65798 7.20056 5.21173C7.01981 4.77673 6.83606 4.83598 6.69881 4.82923C6.56906 4.82248 6.42056 4.82173 6.27131 4.82173C6.12281 4.82173 5.88131 4.87723 5.67731 5.10073C5.47331 5.32423 4.89731 5.86348 4.89731 6.95998C4.89731 8.05723 5.69606 9.11698 5.80706 9.26548C5.91806 9.41398 7.37831 11.6655 9.61406 12.6307C10.1458 12.8602 10.5613 12.9975 10.8846 13.1002C11.4186 13.2697 11.9046 13.2457 12.2886 13.1887C12.7168 13.125 13.6071 12.6495 13.7931 12.129C13.9791 11.6085 13.9791 11.1615 13.9228 11.0692C13.8673 10.9755 13.7188 10.92 13.4961 10.8082Z" fill="#14062E"/>
</g>
<defs>
<clipPath id="clip0_103_12868">
<rect width="18" height="18" fill="white" transform="translate(0.393066 0.0217285)"/>
</clipPath>
</defs>
</svg>
