<svg width="15" height="14" viewBox="0 0 15 14" fill="none" xmlns="http://www.w3.org/2000/svg">
<g clip-path="url(#clip0_24_875)">
<path d="M7.39301 0C5.53711 0.0020073 3.75779 0.74015 2.44547 2.05247C1.13315 3.36479 0.395012 5.1441 0.393005 7C0.319505 12.5842 6.90242 16.0002 11.418 12.7266C11.4829 12.6834 11.5385 12.6277 11.5815 12.5627C11.6245 12.4977 11.654 12.4247 11.6683 12.3481C11.6827 12.2715 11.6815 12.1928 11.6649 12.1167C11.6483 12.0405 11.6166 11.9685 11.5717 11.9048C11.5268 11.8411 11.4696 11.787 11.4034 11.7458C11.3373 11.7046 11.2635 11.677 11.1866 11.6648C11.1096 11.6526 11.031 11.6559 10.9553 11.6745C10.8796 11.6932 10.8085 11.7268 10.746 11.7734C6.98467 14.4993 1.50134 11.6538 1.55967 7C1.87992 -0.7385 12.9073 -0.73675 13.2263 7V8.16667C13.2263 8.47609 13.1034 8.77283 12.8846 8.99162C12.6658 9.21042 12.3691 9.33333 12.0597 9.33333C11.7503 9.33333 11.4535 9.21042 11.2347 8.99162C11.0159 8.77283 10.893 8.47609 10.893 8.16667V7C10.746 2.37475 4.03942 2.37533 3.89301 7C3.89979 7.70933 4.12135 8.39996 4.52848 8.98086C4.9356 9.56176 5.50919 10.0057 6.17364 10.2541C6.83808 10.5025 7.5622 10.5437 8.25056 10.3724C8.93892 10.2011 9.55921 9.82516 10.0297 9.29425C10.2827 9.74086 10.676 10.0916 11.1486 10.292C11.6211 10.4925 12.1466 10.5315 12.6436 10.4031C13.1406 10.2747 13.5814 9.98593 13.8976 9.58161C14.2139 9.17729 14.388 8.67997 14.393 8.16667V7C14.391 5.1441 13.6529 3.36479 12.3405 2.05247C11.0282 0.74015 9.24891 0.0020073 7.39301 0ZM7.39301 9.33333C6.77417 9.33333 6.18067 9.0875 5.74309 8.64992C5.3055 8.21233 5.05967 7.61884 5.05967 7C5.05967 6.38116 5.3055 5.78767 5.74309 5.35008C6.18067 4.9125 6.77417 4.66667 7.39301 4.66667C8.01184 4.66667 8.60534 4.9125 9.04292 5.35008C9.48051 5.78767 9.72634 6.38116 9.72634 7C9.72634 7.61884 9.48051 8.21233 9.04292 8.64992C8.60534 9.0875 8.01184 9.33333 7.39301 9.33333Z" fill="#14062E"/>
</g>
<defs>
<clipPath id="clip0_24_875">
<rect width="14" height="14" fill="white" transform="translate(0.393097)"/>
</clipPath>
</defs>
</svg>
