<svg width="15" height="14" viewBox="0 0 15 14" fill="none" xmlns="http://www.w3.org/2000/svg">
<g clip-path="url(#clip0_24_884)">
<path d="M7.3931 14C3.53318 14 0.393097 10.8599 0.393097 7C0.393097 3.14008 3.53318 0 7.3931 0C11.253 0 14.3931 3.14008 14.3931 7C14.3931 10.8599 11.253 14 7.3931 14ZM7.3931 1.16667C4.1766 1.16667 1.55976 3.7835 1.55976 7C1.55976 10.2165 4.1766 12.8333 7.3931 12.8333C10.6096 12.8333 13.2264 10.2165 13.2264 7C13.2264 3.7835 10.6096 1.16667 7.3931 1.16667ZM10.3098 7C10.3098 6.67742 10.049 6.41667 9.72643 6.41667H7.97643V3.5C7.97643 3.17742 7.7151 2.91667 7.3931 2.91667C7.0711 2.91667 6.80976 3.17742 6.80976 3.5V7C6.80976 7.32258 7.0711 7.58333 7.3931 7.58333H9.72643C10.049 7.58333 10.3098 7.32258 10.3098 7Z" fill="#14062E"/>
</g>
<defs>
<clipPath id="clip0_24_884">
<rect width="14" height="14" fill="white" transform="translate(0.393097)"/>
</clipPath>
</defs>
</svg>
