<svg width="15" height="14" viewBox="0 0 15 14" fill="none" xmlns="http://www.w3.org/2000/svg">
<path d="M3.06181 6.59168C3.16876 6.48474 3.30244 6.43127 3.46286 6.43127C3.62327 6.43127 3.76181 6.48474 3.87848 6.59168L6.80973 9.53752L6.80973 2.8146C6.80973 2.64932 6.86563 2.51321 6.97744 2.40627C7.08925 2.29932 7.22779 2.24585 7.39306 2.24585C7.55834 2.24585 7.69688 2.29932 7.80869 2.40627C7.9205 2.51321 7.9764 2.64932 7.9764 2.8146L7.9764 9.53752L10.9222 6.59168C11.0292 6.48474 11.1653 6.43127 11.3306 6.43127C11.4958 6.43127 11.632 6.48474 11.7389 6.59168C11.8458 6.70835 11.8993 6.84689 11.8993 7.00731C11.8993 7.16772 11.8458 7.30141 11.7389 7.40835L7.8014 11.3604C7.74306 11.4188 7.67987 11.4625 7.61181 11.4917C7.54376 11.5208 7.47084 11.5354 7.39306 11.5354C7.32501 11.5354 7.25452 11.5208 7.18161 11.4917C7.10869 11.4625 7.04306 11.4188 6.98473 11.3604L3.04723 7.40835C2.93056 7.30141 2.87709 7.16772 2.88681 7.00731C2.89654 6.84689 2.95487 6.70835 3.06181 6.59168Z" fill="#14062E"/>
</svg>
