<svg width="17" height="16" viewBox="0 0 17 16" fill="none" xmlns="http://www.w3.org/2000/svg">
<g clip-path="url(#clip0_9_671)">
<path d="M15.2704 1.12267C14.1477 0 12.3404 0 8.7264 0H8.05973C4.44573 0 2.6384 0 1.51573 1.12267C0.393066 2.24533 0.393066 4.05267 0.393066 7.66667V8.33333C0.393066 11.9473 0.393066 13.754 1.51573 14.8773C2.6384 16.0007 4.44573 16 8.05973 16H8.7264C12.3404 16 14.1471 16 15.2704 14.8773C16.3931 13.7547 16.3931 11.9473 16.3931 8.33333V7.66667C16.3931 4.05267 16.3931 2.24533 15.2704 1.12267ZM13.3951 11.3333H12.2284C11.7837 11.3333 11.6531 10.9787 10.8617 10.1873C10.1691 9.52 9.8724 9.43333 9.69973 9.43333C9.4644 9.43333 9.3944 9.5 9.3944 9.83333V10.8793C9.3944 11.166 9.30307 11.3333 8.56107 11.3333C7.32507 11.3333 5.9664 10.5827 5.00173 9.19867C3.55507 7.17133 3.15973 5.63867 3.15973 5.33C3.15973 5.15667 3.2264 5 3.55973 5H4.72707C5.02507 5 5.13707 5.13067 5.24907 5.45333C5.81973 7.11533 6.7824 8.568 7.17773 8.568C7.32573 8.568 7.39373 8.49933 7.39373 8.12333V6.40533C7.3504 5.61467 6.92973 5.54933 6.92973 5.268C6.92973 5.138 7.04107 5 7.2264 5H9.0604C9.30773 5 9.39373 5.132 9.39373 5.42867V7.74C9.39373 7.98667 9.50107 8.07333 9.57507 8.07333C9.72373 8.07333 9.84707 7.98667 10.1191 7.71467C10.9597 6.77533 11.5531 5.32933 11.5531 5.32933C11.6277 5.156 11.7637 4.99933 12.0611 4.99933H13.2277C13.5804 4.99933 13.6551 5.18067 13.5804 5.428C13.4317 6.108 12.0104 8.11 12.0104 8.11C11.8864 8.308 11.8371 8.40667 12.0104 8.62933C12.1344 8.80267 12.5417 9.14867 12.8137 9.47C13.3151 10.034 13.6931 10.5093 13.7984 10.8373C13.8957 11.1667 13.7284 11.3333 13.3951 11.3333Z" fill="white"/>
</g>
<defs>
<clipPath id="clip0_9_671">
<rect width="16" height="16" fill="white" transform="translate(0.393066)"/>
</clipPath>
</defs>
</svg>
