<svg width="71" height="38" viewBox="0 0 71 38" fill="none" xmlns="http://www.w3.org/2000/svg">
<path d="M6.40079 7.49877V2.81701H9.72737V7.49877L13.5512 2.81701H17.3077L12.11 9.14166L17.7112 15.9246H13.9739L9.72737 10.9671V15.9246H6.39356V10.9094H9.72737V7.49877H6.40079Z" fill="white"/>
<path d="M23.3864 15.9246V12.986C20.738 11.8995 20.6273 7.09245 23.2698 5.85473C24.2198 5.40971 25.4552 5.30852 26.7516 5.85473C29.3666 6.95656 29.7045 11.5108 26.7516 12.986V15.83C28.3529 15.6096 30.0026 14.4109 30.9635 13.2666C31.6731 12.4217 32.6578 10.2323 32.0861 7.89948C31.5849 5.85473 29.822 3.51884 27.175 2.98837C25.7003 2.69285 24.7782 2.64876 23.3864 2.98837C20.0083 3.81267 17.5607 6.34045 17.9882 10.5264C18.2013 12.6126 20.3756 15.213 23.3864 15.9246Z" fill="white"/>
<path d="M38.1637 5.43211V15.916V15.9789H35.9465C35.5681 15.6917 35.3471 15.5689 34.9379 15.41V2.823H39.3339V5.43211H38.1637Z" fill="white"/>
<path d="M46.99 15.916H43.6933V5.43211H42.7277V2.823H46.99C47.2697 2.823 47.1065 11.5517 46.99 15.916Z" fill="white"/>
<path d="M52.501 15.916H49.937L49.9745 2.823H53.283V11.1221L60.0465 2.823H62.5174V11.7084H59.188V7.83455L52.501 15.916Z" fill="white"/>
<path d="M0.393066 24.0489V21.3631H4.72646V24.0489H8.04422V21.3631H12.4002V24.0489H8.04422V34.4385H4.72646V24.0489H0.393066Z" fill="white"/>
<path d="M16.7472 30.3241C17.3622 31.3114 18.2934 32.0247 20.5932 31.8206L22.3545 34.0473C16.7472 35.9099 13.6836 32.106 12.9078 29.7356C12.2556 27.1019 12.9956 24.6186 14.8517 23.0885C16.4886 21.7392 18.4888 21.3452 20.2196 21.3452C23.0665 21.2574 25.462 23.3519 26.4026 25.3962C27.5816 27.7164 26.6409 31.1654 25.1861 32.106L23.1938 29.7006C23.4532 28.8843 23.6435 28.0801 23.56 27.1525C23.479 26.2527 22.8199 25.0927 21.8205 24.49C20.8272 23.8909 19.7487 23.8197 18.685 24.0857C17.7695 24.3145 16.2611 25.412 16.1319 26.9816C16.0072 28.4952 16.1751 29.2505 16.7472 30.3241Z" fill="white"/>
<path d="M30.9796 21.3452H28.1744L28.1582 25.3962C28.1582 27.7602 29.4811 30.2643 33.0404 30.028C34.3248 29.9428 34.8986 29.9349 35.8789 29.586V34.4156H39.1626V26.8883H35.8082C32.6154 27.8683 31.4808 26.6559 31.4808 24.6908V21.764C31.246 21.6089 31.1403 21.5164 30.9796 21.3452Z" fill="white"/>
<path d="M39.1626 23.8886H35.8968V21.6995C36.0464 21.5726 36.1232 21.494 36.251 21.3452H39.1626V23.8886Z" fill="white"/>
<path d="M42.0742 32.4649V21.3452H45.4535V26.5628H46.1941L50.3834 21.3452H54.0867L48.9716 27.6738L54.3876 34.062L59.5953 21.2857H62.5579L65.7983 29.3634H62.6968L61.0303 24.9195L59.4102 29.3634H61.2618L61.933 31.5623H58.8547L57.628 34.4156H50.8232L46.5182 29.3403H45.4535V32.4649H42.0742Z" fill="white"/>
<path d="M64.4736 34.4156L63.2867 31.5623H66.6851L67.8845 34.4156H64.4736Z" fill="white"/>
<rect x="3.0376" y="7.42691" width="3.51068" height="3.51068" fill="#CD7FB4"/>
<rect x="23.2839" y="15.75" width="3.47968" height="3.02432" fill="#CD7FB4"/>
<rect x="18.3965" y="29.055" width="3.36055" height="3.43959" transform="rotate(-38.2486 18.3965 29.055)" fill="#CD7FB4"/>
<rect x="42.0372" y="35.1102" width="3.45972" height="2.79235" fill="#CD7FB4"/>
<rect x="59.0659" y="14.04" width="3.55114" height="2.74483" fill="#CD7FB4"/>
<path d="M65.8097 29.4297L69.7709 29.4297L70.599 31.4887H66.6228L65.8097 29.4297Z" fill="#CD7FB4"/>
<rect x="39.3184" y="0.0975037" width="3.41066" height="2.74179" fill="#CD7FB4"/>
<circle cx="33.5721" cy="18.8482" r="3.71552" fill="#CD7FB4"/>
<path d="M32.8769 17.3981H32.1964V20.2046H32.7698L34.3193 18.4438V20.2046H34.9478V17.3981H34.4602L32.9866 19.2131H32.8769V17.3981Z" fill="#14062E"/>
</svg>
