<svg width="15" height="15" viewBox="0 0 15 15" fill="none" xmlns="http://www.w3.org/2000/svg">
<g clip-path="url(#clip0_3_370)">
<path d="M9.16932 0.50001C9.15357 0.499427 5.63257 0.499427 5.61682 0.50001C4.02082 0.51401 2.7264 1.81718 2.7264 3.41609V11.5828C2.7264 13.191 4.03482 14.4994 5.64307 14.4994H9.14307C10.7513 14.4994 12.0597 13.191 12.0597 11.5828V3.41668C12.0597 1.81718 10.7653 0.514594 9.16932 0.50001ZM10.8931 11.5828C10.8931 12.5476 10.1079 13.3328 9.14307 13.3328H5.64307C4.67824 13.3328 3.89307 12.5476 3.89307 11.5828V3.41668C3.89307 2.56909 4.49857 1.86093 5.29949 1.70051L5.70432 2.51076C5.8029 2.70851 6.00532 2.83334 6.2264 2.83334H8.55974C8.78082 2.83334 8.98265 2.70851 9.08182 2.51076L9.48665 1.70051C10.2876 1.86034 10.8931 2.56909 10.8931 3.41668V11.5828ZM7.9764 12.1661H6.80974C6.48774 12.1661 6.2264 11.9048 6.2264 11.5828C6.2264 11.2608 6.48774 10.9994 6.80974 10.9994H7.9764C8.2984 10.9994 8.55974 11.2608 8.55974 11.5828C8.55974 11.9048 8.2984 12.1661 7.9764 12.1661Z" fill="white"/>
</g>
<defs>
<clipPath id="clip0_3_370">
<rect width="14" height="14" fill="white" transform="translate(0.393066 0.5)"/>
</clipPath>
</defs>
</svg>
