<svg width="17" height="16" viewBox="0 0 17 16" fill="none" xmlns="http://www.w3.org/2000/svg">
<g clip-path="url(#clip0_103_12730)">
<path fill-rule="evenodd" clip-rule="evenodd" d="M8.39307 0C3.97507 0 0.393066 3.582 0.393066 8C0.393066 12.418 3.97507 16 8.39307 16C12.8111 16 16.3931 12.418 16.3931 8C16.3931 3.582 12.8111 0 8.39307 0ZM12.1011 5.44067C11.9811 6.70533 11.4597 9.77533 11.1951 11.192C11.0831 11.792 10.8617 11.9927 10.6484 12.012C10.1837 12.0547 9.83107 11.7047 9.38107 11.41C8.67707 10.9487 8.27907 10.6613 7.59573 10.2107C6.80573 9.69 7.31773 9.404 7.76773 8.93667C7.88573 8.814 9.9324 6.952 9.9724 6.78333C9.97707 6.762 9.9824 6.68333 9.93507 6.642C9.88773 6.60067 9.81907 6.61467 9.76973 6.626C9.69907 6.642 8.5744 7.38533 6.39507 8.856C6.07573 9.07533 5.7864 9.182 5.52707 9.17667C5.24173 9.17067 4.6924 9.01533 4.28373 8.882C3.78307 8.71933 3.3844 8.63267 3.41907 8.35667C3.43707 8.21267 3.63507 8.06533 4.01373 7.91467C6.34573 6.89867 7.90107 6.22867 8.67907 5.90467C10.9011 4.98067 11.3624 4.82 11.6637 4.81467C12.0411 4.80933 12.1317 5.12067 12.1011 5.44067Z" fill="white"/>
</g>
<defs>
<clipPath id="clip0_103_12730">
<rect width="16" height="16" fill="white" transform="translate(0.393066)"/>
</clipPath>
</defs>
</svg>
