<svg width="15" height="14" viewBox="0 0 15 14" fill="none" xmlns="http://www.w3.org/2000/svg">
<g clip-path="url(#clip0_172_8)">
<path d="M4.68233 0H2.93233C2.31349 0 1.72 0.245833 1.28242 0.683418C0.844832 1.121 0.598999 1.71449 0.598999 2.33333L0.598999 4.08333C0.598999 4.70217 0.844832 5.29566 1.28242 5.73325C1.72 6.17083 2.31349 6.41667 2.93233 6.41667H4.68233C5.30117 6.41667 5.89466 6.17083 6.33225 5.73325C6.76983 5.29566 7.01567 4.70217 7.01567 4.08333V2.33333C7.01567 1.71449 6.76983 1.121 6.33225 0.683418C5.89466 0.245833 5.30117 0 4.68233 0ZM5.849 4.08333C5.849 4.39275 5.72608 4.6895 5.50729 4.90829C5.2885 5.12708 4.99175 5.25 4.68233 5.25H2.93233C2.62291 5.25 2.32617 5.12708 2.10737 4.90829C1.88858 4.6895 1.76567 4.39275 1.76567 4.08333V2.33333C1.76567 2.02391 1.88858 1.72717 2.10737 1.50838C2.32617 1.28958 2.62291 1.16667 2.93233 1.16667H4.68233C4.99175 1.16667 5.2885 1.28958 5.50729 1.50838C5.72608 1.72717 5.849 2.02391 5.849 2.33333V4.08333Z" fill="white"/>
<path d="M4.68233 7.58334H2.93233C2.31349 7.58334 1.72 7.82918 1.28242 8.26676C0.844832 8.70435 0.598999 9.29784 0.598999 9.91668L0.598999 11.6667C0.598999 12.2855 0.844832 12.879 1.28242 13.3166C1.72 13.7542 2.31349 14 2.93233 14H4.68233C5.30117 14 5.89466 13.7542 6.33225 13.3166C6.76983 12.879 7.01567 12.2855 7.01567 11.6667V9.91668C7.01567 9.29784 6.76983 8.70435 6.33225 8.26676C5.89466 7.82918 5.30117 7.58334 4.68233 7.58334ZM5.849 11.6667C5.849 11.9761 5.72608 12.2728 5.50729 12.4916C5.2885 12.7104 4.99175 12.8333 4.68233 12.8333H2.93233C2.62291 12.8333 2.32617 12.7104 2.10737 12.4916C1.88858 12.2728 1.76567 11.9761 1.76567 11.6667V9.91668C1.76567 9.60726 1.88858 9.31051 2.10737 9.09172C2.32617 8.87293 2.62291 8.75001 2.93233 8.75001H4.68233C4.99175 8.75001 5.2885 8.87293 5.50729 9.09172C5.72608 9.31051 5.849 9.60726 5.849 9.91668V11.6667Z" fill="white"/>
<path d="M12.2656 7.58334H10.5156C9.89681 7.58334 9.30331 7.82918 8.86573 8.26676C8.42814 8.70435 8.18231 9.29784 8.18231 9.91668V11.6667C8.18231 12.2855 8.42814 12.879 8.86573 13.3166C9.30331 13.7542 9.89681 14 10.5156 14H12.2656C12.8845 14 13.478 13.7542 13.9156 13.3166C14.3531 12.879 14.599 12.2855 14.599 11.6667V9.91668C14.599 9.29784 14.3531 8.70435 13.9156 8.26676C13.478 7.82918 12.8845 7.58334 12.2656 7.58334ZM13.4323 11.6667C13.4323 11.9761 13.3094 12.2728 13.0906 12.4916C12.8718 12.7104 12.5751 12.8333 12.2656 12.8333H10.5156C10.2062 12.8333 9.90948 12.7104 9.69069 12.4916C9.4719 12.2728 9.34898 11.9761 9.34898 11.6667V9.91668C9.34898 9.60726 9.4719 9.31051 9.69069 9.09172C9.90948 8.87293 10.2062 8.75001 10.5156 8.75001H12.2656C12.5751 8.75001 12.8718 8.87293 13.0906 9.09172C13.3094 9.31051 13.4323 9.60726 13.4323 9.91668V11.6667Z" fill="white"/>
<path d="M8.76565 4.08334H10.5156V5.83334C10.5156 5.98805 10.5771 6.13643 10.6865 6.24582C10.7959 6.35522 10.9443 6.41668 11.099 6.41668C11.2537 6.41668 11.4021 6.35522 11.5115 6.24582C11.6209 6.13643 11.6823 5.98805 11.6823 5.83334V4.08334H13.4323C13.587 4.08334 13.7354 4.02189 13.8448 3.91249C13.9542 3.80309 14.0156 3.65472 14.0156 3.50001C14.0156 3.3453 13.9542 3.19693 13.8448 3.08753C13.7354 2.97814 13.587 2.91668 13.4323 2.91668H11.6823V1.16668C11.6823 1.01197 11.6209 0.863594 11.5115 0.754198C11.4021 0.644802 11.2537 0.583344 11.099 0.583344C10.9443 0.583344 10.7959 0.644802 10.6865 0.754198C10.5771 0.863594 10.5156 1.01197 10.5156 1.16668V2.91668H8.76565C8.61094 2.91668 8.46256 2.97814 8.35317 3.08753C8.24377 3.19693 8.18231 3.3453 8.18231 3.50001C8.18231 3.65472 8.24377 3.80309 8.35317 3.91249C8.46256 4.02189 8.61094 4.08334 8.76565 4.08334Z" fill="white"/>
</g>
<defs>
<clipPath id="clip0_172_8">
<rect width="14" height="14" fill="white" transform="translate(0.598999)"/>
</clipPath>
</defs>
</svg>
