<svg width="17" height="16" viewBox="0 0 17 16" fill="none" xmlns="http://www.w3.org/2000/svg">
<g clip-path="url(#clip0_103_12726)">
<path fill-rule="evenodd" clip-rule="evenodd" d="M14.0342 2.32533C12.5368 0.826667 10.5462 0.000666667 8.42551 0C4.05551 0 0.498842 3.556 0.496842 7.928C0.496176 9.32533 0.861509 10.6893 1.55551 11.892L0.430176 16L4.63284 14.8973C5.79084 15.5293 7.09484 15.862 8.42151 15.8627H8.42484C12.7942 15.8627 16.3515 12.306 16.3535 7.934C16.3548 5.816 15.5308 3.82333 14.0342 2.32533ZM8.42551 14.5233H8.42284C7.24018 14.5233 6.08084 14.2053 5.06884 13.6047L4.82818 13.462L2.33418 14.116L3.00018 11.684L2.84351 11.4347C2.18351 10.3853 1.83551 9.17267 1.83618 7.928C1.83751 4.29467 4.79418 1.33867 8.42884 1.33867C10.1888 1.33867 11.8435 2.02533 13.0875 3.27067C14.3315 4.51667 15.0162 6.172 15.0155 7.93267C15.0135 11.5673 12.0575 14.5233 8.42551 14.5233ZM12.0402 9.588C11.8422 9.48867 10.8682 9.00933 10.6862 8.94333C10.5048 8.87733 10.3728 8.844 10.2402 9.042C10.1075 9.24 9.72884 9.68667 9.61284 9.81933C9.49751 9.95133 9.38151 9.968 9.18351 9.86867C8.98551 9.76933 8.34684 9.56067 7.59018 8.88533C7.00151 8.36 6.60351 7.71133 6.48818 7.51267C6.37284 7.314 6.47618 7.20733 6.57484 7.10867C6.66418 7.02 6.77284 6.87733 6.87218 6.76133C6.97218 6.64667 7.00484 6.564 7.07151 6.43133C7.13751 6.29933 7.10484 6.18333 7.05484 6.084C7.00484 5.98533 6.60884 5.01 6.44418 4.61333C6.28351 4.22667 6.12018 4.27933 5.99818 4.27333C5.88284 4.26733 5.75084 4.26667 5.61818 4.26667C5.48618 4.26667 5.27151 4.316 5.09018 4.51467C4.90884 4.71333 4.39684 5.19267 4.39684 6.16733C4.39684 7.14267 5.10684 8.08467 5.20551 8.21667C5.30418 8.34867 6.60218 10.35 8.58951 11.208C9.06218 11.412 9.43151 11.534 9.71884 11.6253C10.1935 11.776 10.6255 11.7547 10.9668 11.704C11.3475 11.6473 12.1388 11.2247 12.3042 10.762C12.4695 10.2993 12.4695 9.902 12.4195 9.82C12.3702 9.73667 12.2382 9.68733 12.0402 9.588Z" fill="white"/>
</g>
<defs>
<clipPath id="clip0_103_12726">
<rect width="16" height="16" fill="white" transform="translate(0.393066)"/>
</clipPath>
</defs>
</svg>
