<svg width="13" height="12" viewBox="0 0 13 12" fill="none" xmlns="http://www.w3.org/2000/svg">
<g clip-path="url(#clip0_9_685)">
<path d="M6.39307 3C5.9975 3 5.61083 3.1173 5.28193 3.33706C4.95303 3.55682 4.69668 3.86918 4.54531 4.23463C4.39393 4.60009 4.35433 5.00222 4.4315 5.39018C4.50867 5.77814 4.69915 6.13451 4.97885 6.41421C5.25856 6.69392 5.61492 6.8844 6.00289 6.96157C6.39085 7.03874 6.79298 6.99913 7.15843 6.84776C7.52389 6.69638 7.83624 6.44004 8.05601 6.11114C8.27577 5.78224 8.39307 5.39556 8.39307 5C8.39307 4.46957 8.18235 3.96086 7.80728 3.58579C7.43221 3.21071 6.9235 3 6.39307 3ZM6.39307 6C6.19529 6 6.00195 5.94135 5.8375 5.83147C5.67305 5.72159 5.54488 5.56541 5.46919 5.38268C5.3935 5.19996 5.3737 4.99889 5.41228 4.80491C5.45087 4.61093 5.54611 4.43275 5.68596 4.29289C5.82581 4.15304 6.004 4.0578 6.19798 4.01921C6.39196 3.98063 6.59302 4.00043 6.77575 4.07612C6.95848 4.15181 7.11466 4.27998 7.22454 4.44443C7.33442 4.60888 7.39307 4.80222 7.39307 5C7.39307 5.26522 7.28771 5.51957 7.10017 5.70711C6.91264 5.89464 6.65828 6 6.39307 6Z" fill="white"/>
<path d="M6.39307 12C5.97204 12.0021 5.55663 11.9034 5.1816 11.712C4.80658 11.5206 4.48287 11.2422 4.23757 10.9C2.33207 8.27149 1.36557 6.29549 1.36557 5.02649C1.36557 3.69312 1.89525 2.41435 2.83809 1.47151C3.78093 0.528675 5.05969 -0.00100708 6.39307 -0.00100708C7.72645 -0.00100708 9.00521 0.528675 9.94805 1.47151C10.8909 2.41435 11.4206 3.69312 11.4206 5.02649C11.4206 6.29549 10.4541 8.27149 8.54857 10.9C8.30327 11.2422 7.97956 11.5206 7.60454 11.712C7.22952 11.9034 6.8141 12.0021 6.39307 12ZM6.39307 1.09049C5.34928 1.09168 4.34858 1.50686 3.61051 2.24493C2.87243 2.983 2.45726 3.9837 2.45607 5.02749C2.45607 6.03249 3.40257 7.89099 5.12057 10.2605C5.26642 10.4614 5.45776 10.6249 5.67893 10.7376C5.9001 10.8504 6.14482 10.9091 6.39307 10.9091C6.64132 10.9091 6.88604 10.8504 7.10721 10.7376C7.32839 10.6249 7.51972 10.4614 7.66557 10.2605C9.38357 7.89099 10.3301 6.03249 10.3301 5.02749C10.3289 3.9837 9.91371 2.983 9.17563 2.24493C8.43756 1.50686 7.43686 1.09168 6.39307 1.09049Z" fill="white"/>
</g>
<defs>
<clipPath id="clip0_9_685">
<rect width="12" height="12" fill="white" transform="translate(0.393066)"/>
</clipPath>
</defs>
</svg>
