<svg width="1441" height="100" viewBox="0 0 1441 100" fill="none" xmlns="http://www.w3.org/2000/svg">
<g opacity="0.2">
<path fill-rule="evenodd" clip-rule="evenodd" d="M-28.3951 66.2528C-27.1532 66.6775 -18.9469 66.2511 -13.409 65.4747C-8.74941 64.8214 -1.79136 63.3219 -1.38462 62.8838C-1.21009 62.6963 -2.74374 57.2702 -3.04518 57.0064C-3.13463 56.9286 -5.40118 57.4022 -8.08196 58.0589C-11.7887 58.9671 -14.9263 59.3362 -21.1816 59.6007L-29.407 59.949L-29.2951 62.9663C-29.2098 65.2644 -28.9954 66.0479 -28.3951 66.2528ZM-27.3447 53.5175C-21.4722 54.1766 -8.22942 52.1071 -0.0472948 49.2515C4.74467 47.5791 14.5858 42.336 19.1854 39.0043C32.2097 29.5717 42.6273 14.704 47.0461 -0.757605C48.5942 -6.17364 49.8056 -12.5658 50.0935 -16.8319L50.2965 -19.846L48.4265 -20.0846C44.0431 -20.6431 43.9942 -20.6098 43.7449 -16.9092C43.012 -6.04777 38.4309 7.17218 32.2182 16.3556C26.1799 25.2807 15.8216 34.6666 6.99961 39.2069C-2.63417 44.1649 -10.9696 46.3475 -22.1457 46.8387L-29.8787 47.1786L-29.7669 50.2185L-29.6552 53.2579L-27.3447 53.5175ZM-28.6734 40.5954C-27.2481 40.7511 -27.2117 40.6981 -26.9875 38.1376C-26.6923 34.759 -27.0293 34.0392 -28.8746 34.1076L-30.3634 34.1628L-30.247 37.2999C-30.1321 40.3977 -30.1129 40.4383 -28.6734 40.5954ZM-29.6712 27.4835C-27.7087 28.027 -17.5217 27.3649 -13.8739 26.4569C-6.22996 24.5533 0.364472 21.3921 5.70018 17.0745L8.1412 15.0988L10.3427 17.1812C12.5035 19.2258 12.5277 19.283 11.6761 20.2973C10.6916 21.4699 4.26503 26.0271 1.7132 27.3622L0.0225882 28.2468L1.33664 30.9612C2.05946 32.4547 2.81547 33.8353 3.01648 34.03C3.91791 34.902 13.6114 27.9213 20.2646 21.6102L22.3466 19.6349L16.8596 14.1975C13.8419 11.2074 10.6353 8.05504 9.73369 7.19235L8.09427 5.62467L6.55423 7.17404C1.20488 12.556 -6.66249 17.2807 -13.7118 19.3438C-16.9878 20.3029 -18.8433 20.5203 -24.2754 20.5815L-30.8648 20.6558L-30.7431 23.9382C-30.6387 26.7378 -30.4812 27.2588 -29.6712 27.4835ZM-30.2444 2.49409C-29.7128 -1.00984 -29.3435 -3.92834 -29.424 -3.99225C-29.5041 -4.05617 -30.0722 -4.24265 -30.6872 -4.40674L-31.8049 -4.70565L-31.5075 2.07959L-31.2107 8.86438L-30.2444 2.49409ZM-30.639 -11.436C-29.8445 -11.0056 -28.0588 -10.4535 -26.6706 -10.2094C-23.5437 -9.65896 -19.9523 -10.707 -16.9717 -13.0392C-14.9437 -14.6268 -12.8641 -18.2177 -13.3348 -19.3206C-13.581 -19.8968 -17.2216 -20.9191 -18.8169 -20.8599C-19.2197 -20.845 -19.6772 -20.3701 -19.8338 -19.8046C-20.2363 -18.352 -22.8291 -16.7803 -24.9572 -16.6994C-27.2936 -16.6103 -29.6425 -18.4094 -30.5079 -20.9501C-31.0594 -22.5709 -31.0328 -23.1548 -30.3269 -24.8891C-28.3192 -29.8215 -21.5386 -29.7277 -19.2504 -24.7358C-18.5847 -23.2835 -18.4684 -23.2381 -16.3158 -23.5884C-15.0833 -23.7891 -10.8635 -24.3386 -6.93886 -24.8092L0.196487 -25.6661L-0.360579 -28.0215L-0.917648 -30.3769L-16.8157 -29.7873L-32.7133 -29.1977L-32.3985 -20.7083L-32.0836 -12.2185L-30.639 -11.436ZM-25.0524 14.908C-18.369 15.1401 -12.729 13.7363 -6.5714 10.308C6.47148 3.04663 14.0619 -12.5396 11.8832 -27.5883L11.4136 -30.8343L8.25734 -30.7172L5.10061 -30.6001L5.55935 -26.5594C7.06109 -13.3339 0.941955 -0.911749 -9.89905 4.8219C-14.0837 7.03546 -17.1535 8.06464 -19.9376 8.18856L-21.5796 8.26125L-21.3241 5.6696C-21.0332 2.71858 -20.8867 2.55821 -18.0235 2.05707C-9.0716 0.490041 -1.33116 -8.77069 -0.0965616 -19.3911L0.139112 -21.4179L-1.76543 -21.66C-5.98719 -22.1979 -6.25443 -22.07 -6.52232 -19.3869C-7.04113 -14.1994 -10.8936 -8.10814 -15.1625 -5.72669C-17.3892 -4.48434 -22.924 -3.36031 -25.1645 -3.69528C-26.0963 -3.83434 -26.8513 -3.75568 -26.8426 -3.52041C-26.8338 -3.28515 -27.2329 0.793766 -27.7296 5.54322C-28.2258 10.2931 -28.6299 14.3152 -28.6277 14.4818C-28.625 14.648 -27.0164 14.8401 -25.0524 14.908ZM-17.9575 40.4375C-13.9955 39.9807 -8.68949 38.7741 -4.41335 37.3569L-1.90285 36.5251L-3.04228 33.5061C-3.66949 31.8453 -4.19424 30.4409 -4.20913 30.3844C-4.22399 30.3284 -5.63766 30.7763 -7.35049 31.3798C-10.1222 32.3566 -12.8343 32.9377 -19.9151 34.0719L-21.9931 34.4047L-21.8731 37.6395L-21.7531 40.8749L-17.9575 40.4375ZM6.37391 57.6383C7.48999 60.4255 7.43918 60.4215 12.3473 58.1147C29.4829 50.0602 43.7952 36.3667 52.7317 19.4764L54.9668 15.2527L51.9997 13.8902C50.3675 13.1411 48.9368 12.5317 48.8199 12.536C48.703 12.5404 47.9407 13.841 47.126 15.4269C42.4198 24.5855 33.3482 35.7901 25.7706 41.8026C21.495 45.1955 13.9601 49.8676 9.24463 52.0507C7.20602 52.9944 5.5076 54.0928 5.47024 54.4911C5.43337 54.8893 5.84002 56.3055 6.37391 57.6383ZM16.8319 10.1226C20.9334 13.2654 24.5123 15.8855 24.7851 15.9452C25.5363 16.1091 29.8772 9.13022 32.181 4.05405C36.5037 -5.47094 38.1738 -14.1618 37.7725 -25.049L37.5235 -31.8026L34.1502 -31.6775L30.7768 -31.5524L30.7975 -23.8067C30.82 -15.4555 29.8561 -9.31407 27.5281 -2.97642C26.6088 -0.473267 24.0837 5.00459 23.3743 6.03426C23.3052 6.1347 22.2102 5.42819 20.941 4.46502L18.6337 2.71258L19.5621 1.07719C21.7173 -2.71763 23.8004 -9.88773 24.5608 -16.1318C24.7739 -17.8814 24.7398 -17.9234 22.9153 -18.1557C21.8909 -18.2864 20.3493 -18.3694 19.4907 -18.3405C17.9806 -18.2899 17.9138 -18.194 17.4753 -15.4431C16.5053 -9.35845 14.7194 -4.49332 11.6135 0.522587C10.3671 2.5352 9.3539 4.23275 9.36112 4.29495C9.36835 4.35714 12.7305 6.97941 16.8319 10.1226ZM17.9651 -25.2981L18.281 -21.2521L21.4534 -21.3698L24.6263 -21.4875L24.473 -25.6221C24.2613 -31.3305 24.2748 -31.3113 20.5257 -31.1722C17.8248 -31.072 17.4039 -30.9359 17.5178 -30.1999C17.5898 -29.7295 17.7916 -27.5237 17.9651 -25.2981ZM44.7588 -27.1526C45.3968 -27.1762 46.9388 -27.3741 48.1854 -27.5925C50.5848 -28.0125 50.8417 -28.5104 50.0254 -31.1597C49.7201 -32.1493 49.3891 -32.2427 46.5526 -32.1375L43.4175 -32.0212L43.5086 -29.5654C43.5922 -27.3119 43.6954 -27.1131 44.7588 -27.1526ZM54.3876 7.64523C56.0231 8.28397 57.4207 8.74218 57.4925 8.66328C57.5644 8.58487 58.4102 5.83557 59.3725 2.55372C62.0881 -6.71149 62.8885 -12.8199 62.7883 -23.5176L62.7017 -32.7365L59.3219 -32.6121L55.9422 -32.4877L56.2967 -27.2126C56.9096 -18.0876 55.6084 -7.16614 52.8321 1.8677L51.4132 6.48463L54.3876 7.64523Z" fill="#CD7FB4"/>
</g>
<g opacity="0.2" clip-path="url(#clip0_2001_3308)">
<path fill-rule="evenodd" clip-rule="evenodd" d="M652.325 -11.4917C652.719 -10.2399 657.929 -3.88501 661.838 0.113617C665.128 3.47804 670.461 8.1914 671.055 8.25912C671.31 8.28849 674.769 3.83582 674.803 3.43668C674.812 3.3185 673.087 1.77434 670.968 0.00522354C668.039 -2.44088 665.881 -4.74829 661.959 -9.62816L656.8 -16.0446L654.437 -14.1653C652.637 -12.7338 652.134 -12.0965 652.325 -11.4917ZM663.202 -18.1981C666.154 -13.0788 675.673 -3.64296 682.825 1.2518C687.013 4.11848 697.071 8.93326 702.481 10.6611C717.8 15.5546 735.949 15.126 751.019 9.51504C756.298 7.54979 762.163 4.73457 765.769 2.43651L768.316 0.812534L767.399 -0.834631C765.25 -4.69525 765.194 -4.7149 762.066 -2.72121C752.886 3.12971 739.525 7.28066 728.446 7.72412C717.679 8.1548 703.979 5.3803 695.091 0.96936C685.386 -3.84754 678.686 -9.26489 671.663 -17.9725L666.803 -23.9974L664.422 -22.1048L662.041 -20.2124L663.202 -18.1981ZM672.819 -26.9309C673.539 -25.691 673.603 -25.6931 675.798 -27.0309C678.693 -28.7968 679.073 -29.4951 677.924 -30.9403L676.996 -32.1063L674.539 -30.1523C672.113 -28.2227 672.092 -28.1832 672.819 -26.9309ZM682.785 -35.5098C683.511 -33.6074 690.085 -25.7975 692.979 -23.3988C699.045 -18.3728 705.501 -14.9376 712.142 -13.2017L715.18 -12.4079L714.809 -9.40032C714.444 -6.44801 714.412 -6.39461 713.091 -6.47885C711.563 -6.57613 704.082 -9.04828 701.494 -10.3113L699.779 -11.148L698.373 -8.48024C697.599 -7.01258 696.935 -5.58513 696.898 -5.30782C696.73 -4.06486 708.099 -0.399339 717.127 1.21516L719.952 1.72023L721.076 -5.92234C721.694 -10.1253 722.331 -14.5767 722.491 -15.8142L722.781 -18.0639L720.62 -18.3852C713.114 -19.5009 704.645 -23.0338 698.803 -27.4864C696.088 -29.5555 694.813 -30.9206 691.542 -35.2581L687.575 -40.5199L685.004 -38.4753C682.811 -36.7311 682.485 -36.2954 682.785 -35.5098ZM702.566 -50.7904C705.703 -52.4403 708.272 -53.8736 708.275 -53.9764C708.279 -54.0787 708.093 -54.6468 707.86 -55.2393L707.438 -56.3165L702.151 -52.0533L696.864 -47.7908L702.566 -50.7904ZM713.549 -59.3689C713.673 -58.4739 714.288 -56.7087 714.914 -55.4462C716.325 -52.602 719.299 -50.3317 722.944 -49.3148C725.425 -48.6233 729.55 -49.0782 730.159 -50.1114C730.477 -50.6512 729.141 -54.1889 728.147 -55.4383C727.896 -55.7538 727.243 -55.8406 726.695 -55.6313C725.286 -55.094 722.483 -56.2496 721.156 -57.9152C719.699 -59.7436 719.755 -62.7018 721.287 -64.9053C722.265 -66.3105 722.751 -66.6354 724.566 -67.0955C729.728 -68.4038 733.674 -62.8886 731.011 -58.0858C730.237 -56.6885 730.269 -56.568 731.828 -55.0425C732.72 -54.1691 735.665 -51.0972 738.371 -48.2162L743.292 -42.979L744.859 -44.8243L746.425 -46.6697L736.522 -59.121L726.62 -71.572L719.971 -66.2842L713.322 -60.9961L713.549 -59.3689ZM695.65 -39.2483C699.426 -33.7292 703.901 -30.0204 710.313 -27.0954C723.894 -20.8994 740.945 -24.0304 751.771 -34.7088L754.106 -37.0118L752.14 -39.4838L750.174 -41.9562L747.192 -39.1906C737.433 -30.1385 723.802 -27.6991 712.757 -33.0281C708.493 -35.0848 705.844 -36.9463 704.093 -39.1146L703.061 -40.3936L705.299 -41.7247C707.848 -43.2405 708.064 -43.2176 710.165 -41.2094C716.736 -34.9307 728.782 -34.1898 738.066 -39.4938L739.838 -40.5059L738.903 -42.1831C736.833 -45.9014 736.571 -46.0407 734.252 -44.6653C729.768 -42.0067 722.578 -41.4965 718.129 -43.5216C715.809 -44.5778 711.621 -48.3678 710.562 -50.3705C710.122 -51.2032 709.611 -51.7645 709.426 -51.618C709.242 -51.4714 705.721 -49.3739 701.602 -46.9574C697.484 -44.5401 694.005 -42.4804 693.873 -42.3798C693.74 -42.2791 694.54 -40.8699 695.65 -39.2483ZM679.301 -18.3962C682.018 -15.4769 686.136 -11.92 689.813 -9.31735L691.972 -7.78923L693.727 -10.497C694.692 -11.9869 695.512 -13.2422 695.548 -13.2877C695.585 -13.3329 694.386 -14.2056 692.884 -15.2268C690.454 -16.8793 688.378 -18.7185 683.265 -23.7473L681.765 -25.2231L679.232 -23.2082L676.698 -21.193L679.301 -18.3962ZM679.88 11.3956C678.297 13.9471 678.27 13.9038 683.038 16.4878C699.685 25.5089 719.199 28.9127 738.098 26.0921L742.824 25.3871L742.162 22.19C741.797 20.4316 741.439 18.9181 741.367 18.8266C741.294 18.735 739.794 18.8925 738.034 19.177C727.869 20.8188 713.468 20.1589 704.133 17.6229C698.865 16.1923 690.635 12.8958 686.081 10.3936C684.112 9.31173 682.221 8.59549 681.878 8.80161C681.535 9.00811 680.636 10.1754 679.88 11.3956ZM724.341 -8.36107C724.242 -3.19492 724.255 1.24056 724.369 1.49558C724.682 2.19769 732.876 1.55434 738.329 0.399192C748.562 -1.76866 756.55 -5.57766 765.079 -12.3571L770.369 -16.5626L768.268 -19.2046L766.167 -21.8466L759.942 -17.2366C753.231 -12.2661 747.714 -9.40032 741.231 -7.51646C738.67 -6.77233 732.762 -5.55707 731.512 -5.51768C731.39 -5.51373 731.31 -6.81436 731.333 -8.40753L731.376 -11.3046L733.243 -11.5268C737.577 -12.0419 744.585 -14.6165 750.064 -17.707C751.599 -18.573 751.613 -18.6253 750.718 -20.2322C750.215 -21.1345 749.368 -22.425 748.836 -23.0993C747.899 -24.2852 747.783 -24.282 745.308 -23.0038C739.833 -20.1766 734.857 -18.7295 728.976 -18.2558C726.616 -18.066 724.649 -17.8751 724.603 -17.8324C724.557 -17.7897 724.439 -13.5275 724.341 -8.36107ZM753.533 -28.4536L750.463 -25.8L752.439 -23.3153L754.415 -20.8303L757.653 -23.4056C762.124 -26.9612 762.117 -26.939 759.781 -29.8752C758.099 -31.9906 757.74 -32.2488 757.215 -31.7206C756.879 -31.3836 755.222 -29.9131 753.533 -28.4536ZM770.915 -7.97919C771.313 -7.47949 772.386 -6.35524 773.302 -5.48099C775.063 -3.7981 775.616 -3.88649 777.265 -6.11486C777.881 -6.94747 777.76 -7.26945 775.993 -9.49098L774.04 -11.9464L772.117 -10.4167C770.352 -9.01308 770.253 -8.81203 770.915 -7.97919ZM748.606 20.4094C749.062 22.105 749.522 23.5021 749.628 23.5131C749.734 23.5245 752.449 22.5752 755.662 21.4038C764.733 18.096 770.126 15.1182 778.68 8.6936L786.052 3.15695L783.947 0.509342L781.843 -2.13826L777.806 1.27542C770.822 7.18017 761.256 12.609 752.336 15.7307L747.777 17.3261L748.606 20.4094Z" fill="#2C61B3"/>
</g>
<g opacity="0.15" clip-path="url(#clip1_2001_3308)">
<path fill-rule="evenodd" clip-rule="evenodd" d="M1479.24 -72.5146L1474.75 -70.0251L1473.6 -56.0727L1472.44 -42.1189L1478.34 -42.3524C1484.6 -42.6004 1492.85 -45.15 1496.05 -47.8212C1497.77 -49.2634 1497.73 -49.8687 1495.69 -53.5332L1493.41 -57.632L1489.07 -55.2127C1486.68 -53.882 1484.36 -52.8965 1483.92 -53.022C1483.48 -53.1475 1483.33 -55.464 1483.6 -58.1701C1483.96 -61.8667 1484.67 -63.432 1486.46 -64.4613C1488.76 -65.7806 1488.75 -66.0051 1486.29 -70.4178L1483.73 -75.0035L1479.24 -72.5146ZM1497.22 -38.4489L1491.98 -35.5306L1499.03 -22.8613L1506.09 -10.192L1511.33 -13.1103L1516.57 -16.0286L1514.14 -20.3973C1512.8 -22.8001 1511.31 -24.5472 1510.83 -24.2796C1510.35 -24.0121 1508.97 -25.5626 1507.77 -27.7251C1506.57 -29.8876 1505.98 -31.8758 1506.46 -32.1434C1506.94 -32.4109 1506.24 -34.5957 1504.9 -36.9985L1502.47 -41.3672L1497.22 -38.4489ZM1523.31 13.4127C1508.16 21.8422 1487.99 25.8178 1468.84 24.1424C1465.05 23.8102 1461.65 23.7134 1461.29 23.9268C1460.93 24.1406 1460.4 26.4483 1460.12 29.0545L1459.61 33.7914L1464.82 34.4537C1472.07 35.373 1490.04 34.5892 1498.09 33.0048C1507.87 31.077 1517.25 27.9546 1527.3 23.2825L1536.16 19.1607L1533.42 14.2354L1530.68 9.31006L1523.31 13.4127ZM1530.6 31.8225C1514.68 39.4577 1500.31 43.0814 1482.88 43.8545C1458.43 44.939 1434.08 38.6232 1410.69 25.1315C1409.06 24.192 1408.78 24.381 1406.31 28.0485L1403.68 31.9698L1408.49 34.9695C1415.01 39.0392 1428.59 45.1061 1437.29 47.8426C1462.51 55.7691 1490.84 55.8665 1516.23 48.1139C1523.69 45.8325 1535.24 41.1032 1540.52 38.1625L1545.27 35.5224L1542.91 31.2848L1540.55 27.048L1530.6 31.8225ZM1518.86 -5.2298C1518.16 -5.08128 1513.66 -3.35364 1508.87 -1.38865C1486.71 7.69231 1461.9 7.05042 1440.06 -3.16728C1435.12 -5.47515 1418.09 -17.1081 1418.38 -17.9724C1418.46 -18.2165 1420.01 -19.5945 1421.82 -21.0338C1425.08 -23.6238 1425.15 -23.6234 1428.02 -20.975C1432.2 -17.1308 1441.2 -12.0176 1447.79 -9.75264L1453.47 -7.79885L1454.93 -12.7968L1456.39 -17.7956L1449.59 -20.6946C1441.39 -24.1874 1436.79 -27.2389 1430.94 -33.0619C1428.52 -35.4731 1426.28 -37.6042 1425.96 -37.7985C1425.35 -38.1659 1403.52 -20.0679 1403.19 -18.9276C1403.09 -18.574 1406 -15.3923 1409.66 -11.8574C1421.32 -0.598584 1433.92 6.81089 1449.35 11.4897C1473.29 18.7483 1495.22 17.0882 1518.4 6.26693L1524.98 3.19151L1522.56 -1.1545C1521.05 -3.86749 1519.66 -5.39774 1518.86 -5.2298ZM1466.21 -70.3979C1463.54 -68.911 1461.66 -67.4766 1462.03 -67.2119C1462.4 -66.9473 1463.8 -65.975 1465.15 -65.0521L1467.6 -63.3739L1469.66 -67.5642C1470.8 -69.869 1471.58 -72.0577 1471.4 -72.4279C1471.22 -72.7981 1468.88 -71.8847 1466.21 -70.3979ZM1480.5 -33.2959C1464.3 -32.905 1449.71 -38.7808 1440.57 -49.382L1436.64 -53.9382L1432.35 -51.5496L1428.06 -49.1604L1430.4 -46.3399C1442.54 -31.7303 1460.36 -23.3803 1479.07 -23.5319C1482.13 -23.5565 1482.89 -23.076 1484.56 -20.0764C1485.63 -18.1594 1486.25 -16.1471 1485.95 -15.6036C1485.19 -14.2385 1474.95 -13.9131 1466.88 -14.9985L1460.18 -15.9008L1459.2 -11.5162L1458.21 -7.13113L1463.88 -5.87636C1470.18 -4.48072 1486.89 -5.06413 1494.88 -6.95927L1500.08 -8.19089L1495.95 -16.9526C1493.68 -21.7726 1491.13 -27.4658 1490.29 -29.6049L1488.76 -33.4947L1480.5 -33.2959ZM1464.12 -54.3867C1461.79 -55.2773 1458.18 -57.5024 1456.1 -59.3327C1452.31 -62.6556 1452.3 -62.6571 1448.24 -60.393L1444.16 -58.1264L1446.59 -55.4167C1449.88 -51.7405 1457.76 -46.4765 1462.68 -44.6773L1466.72 -43.1991L1467.53 -47.9831L1468.35 -52.767L1464.12 -54.3867ZM1407.92 -37.9479L1394.57 -30.5174L1396.91 -27.1222L1399.24 -23.7265L1404.32 -27.2129C1407.12 -29.13 1412.7 -32.8684 1416.74 -35.5204L1424.07 -40.3424L1422.66 -42.8597L1421.26 -45.3778L1407.92 -37.9479ZM1446.1 20.2022C1438.95 18.4188 1424.28 11.3159 1416.66 5.95251C1407.88 -0.238994 1397.9 -9.94778 1392.9 -17.1747C1386.56 -26.3435 1386.8 -26.1954 1382.24 -23.6574L1378.21 -21.4108L1382.49 -15.1237C1395.55 4.03267 1418.14 20.9299 1441.04 28.6721L1448.49 31.19L1449.34 26.2062L1450.19 21.2224L1446.1 20.2022ZM1393.46 11.0825C1384.57 2.98501 1376.71 -6.1663 1373.14 -12.5805L1370.59 -17.1676L1365.84 -14.5275L1361.1 -11.8879L1364.34 -7.11002C1370.69 2.24936 1378.53 11.4867 1385.71 18.0542C1389.72 21.7197 1393.49 25.0096 1394.1 25.3661C1394.85 25.8069 1396.12 24.7366 1398.11 21.9899L1401.02 17.9672L1393.46 11.0825Z" fill="#14062E"/>
</g>
<defs>
<clipPath id="clip0_2001_3308">
<rect width="113.046" height="113.537" fill="white" transform="translate(642.393 -11.6561) rotate(-38.4951)"/>
</clipPath>
<clipPath id="clip1_2001_3308">
<rect width="177" height="173" fill="white" transform="translate(1485.55 -94.8986) rotate(60.8969)"/>
</clipPath>
</defs>
</svg>
