<svg width="15" height="15" viewBox="0 0 15 15" fill="none" xmlns="http://www.w3.org/2000/svg">
<path d="M6.98475 11.8313C6.87781 11.7243 6.82433 11.5906 6.82433 11.4302C6.82433 11.2698 6.87781 11.1313 6.98475 11.0146L9.93058 8.08336H3.20767C3.04239 8.08336 2.90628 8.02746 2.79933 7.91565C2.69239 7.80384 2.63892 7.6653 2.63892 7.50002C2.63892 7.33475 2.69239 7.19621 2.79933 7.0844C2.90628 6.97259 3.04239 6.91669 3.20767 6.91669H9.93058L6.98475 3.97086C6.87781 3.86391 6.82433 3.7278 6.82433 3.56252C6.82433 3.39725 6.87781 3.26114 6.98475 3.15419C7.10142 3.04725 7.23996 2.99377 7.40037 2.99377C7.56079 2.99377 7.69447 3.04725 7.80142 3.15419L11.7535 7.09169C11.8118 7.15002 11.8556 7.21322 11.8848 7.28127C11.9139 7.34933 11.9285 7.42225 11.9285 7.50002C11.9285 7.56808 11.9139 7.63857 11.8848 7.71148C11.8556 7.7844 11.8118 7.85002 11.7535 7.90836L7.80142 11.8459C7.69447 11.9625 7.56079 12.016 7.40037 12.0063C7.23996 11.9966 7.10142 11.9382 6.98475 11.8313Z" fill="white"/>
</svg>
