<svg width="19" height="18" viewBox="0 0 19 18" fill="none" xmlns="http://www.w3.org/2000/svg">
<g clip-path="url(#clip0_3_419)">
<path d="M7.14307 18H1.14307C0.944154 18 0.753389 17.921 0.612736 17.7803C0.472084 17.6397 0.393066 17.4489 0.393066 17.25C0.393066 17.0511 0.472084 16.8603 0.612736 16.7197C0.753389 16.579 0.944154 16.5 1.14307 16.5H7.14307C7.34198 16.5 7.53274 16.579 7.6734 16.7197C7.81405 16.8603 7.89307 17.0511 7.89307 17.25C7.89307 17.4489 7.81405 17.6397 7.6734 17.7803C7.53274 17.921 7.34198 18 7.14307 18Z" fill="white"/>
<path d="M5.64307 15H1.14307C0.944154 15 0.753389 14.921 0.612736 14.7803C0.472084 14.6397 0.393066 14.4489 0.393066 14.25C0.393066 14.0511 0.472084 13.8603 0.612736 13.7197C0.753389 13.579 0.944154 13.5 1.14307 13.5H5.64307C5.84198 13.5 6.03274 13.579 6.1734 13.7197C6.31405 13.8603 6.39307 14.0511 6.39307 14.25C6.39307 14.4489 6.31405 14.6397 6.1734 14.7803C6.03274 14.921 5.84198 15 5.64307 15Z" fill="white"/>
<path d="M4.14307 12H1.14307C0.944154 12 0.753389 11.921 0.612736 11.7803C0.472084 11.6397 0.393066 11.4489 0.393066 11.25C0.393066 11.0511 0.472084 10.8603 0.612736 10.7197C0.753389 10.579 0.944154 10.5 1.14307 10.5H4.14307C4.34198 10.5 4.53274 10.579 4.6734 10.7197C4.81405 10.8603 4.89307 11.0511 4.89307 11.25C4.89307 11.4489 4.81405 11.6397 4.6734 11.7803C4.53274 11.921 4.34198 12 4.14307 12Z" fill="white"/>
<path d="M10.1431 17.9663C9.94414 17.9751 9.74986 17.9046 9.60295 17.7702C9.45604 17.6358 9.36853 17.4486 9.35968 17.2496C9.35083 17.0507 9.42136 16.8565 9.55575 16.7095C9.69014 16.5626 9.87739 16.4751 10.0763 16.4663C11.4956 16.3364 12.8486 15.8048 13.9767 14.9337C15.1048 14.0626 15.9613 12.8881 16.446 11.5478C16.9306 10.2074 17.0233 8.75676 16.7132 7.36563C16.4031 5.9745 15.703 4.70054 14.695 3.69295C13.6869 2.68536 12.4127 1.98587 11.0214 1.6764C9.63012 1.36693 8.17947 1.4603 6.83936 1.94557C5.49924 2.43084 4.32514 3.28792 3.45457 4.41642C2.58401 5.54492 2.05302 6.89812 1.9238 8.31752C1.9059 8.51564 1.81003 8.69853 1.65728 8.82596C1.50453 8.95339 1.30742 9.01493 1.1093 8.99702C0.911187 8.97912 0.728296 8.88325 0.600865 8.7305C0.473434 8.57775 0.411901 8.38064 0.429803 8.18252C0.63897 5.875 1.73001 3.73705 3.4758 2.2137C5.22159 0.690348 7.48763 -0.101027 9.80222 0.00430903C12.1168 0.109645 14.3016 1.10357 15.9018 2.7792C17.502 4.45483 18.3943 6.68304 18.3931 9.00002C18.4045 11.2488 17.5691 13.4195 16.053 15.0803C14.5368 16.7411 12.451 17.7703 10.2106 17.9633C10.1881 17.9655 10.1648 17.9663 10.1431 17.9663Z" fill="white"/>
<path d="M9.39307 4.5C9.19415 4.5 9.00339 4.57902 8.86274 4.71967C8.72208 4.86032 8.64307 5.05109 8.64307 5.25V9C8.64311 9.1989 8.72215 9.38963 8.86282 9.53025L11.1128 11.7802C11.2543 11.9169 11.4437 11.9925 11.6404 11.9908C11.837 11.989 12.0251 11.9102 12.1642 11.7711C12.3032 11.6321 12.3821 11.4439 12.3838 11.2473C12.3855 11.0507 12.3099 10.8612 12.1733 10.7198L10.1431 8.6895V5.25C10.1431 5.05109 10.064 4.86032 9.9234 4.71967C9.78274 4.57902 9.59198 4.5 9.39307 4.5Z" fill="white"/>
</g>
<defs>
<clipPath id="clip0_3_419">
<rect width="18" height="18" fill="white" transform="translate(0.393066)"/>
</clipPath>
</defs>
</svg>
