<svg width="19" height="18" viewBox="0 0 19 18" fill="none" xmlns="http://www.w3.org/2000/svg">
<g clip-path="url(#clip0_3_427)">
<path d="M5.36978 2.25H3.11978V4.5H1.61978V0.75H5.36978V2.25ZM16.6198 4.5V0.75H12.8698V2.25H15.1198V4.5H16.6198ZM5.36978 15.75H3.11978V13.5H1.61978V17.25H5.36978V15.75ZM15.1198 13.5V15.75H12.8698V17.25H16.6198V13.5H15.1198ZM14.3698 13.5C14.3698 14.325 13.6948 15 12.8698 15H5.36978C4.54478 15 3.86978 14.325 3.86978 13.5V4.5C3.86978 3.675 4.54478 3 5.36978 3H12.8698C13.6948 3 14.3698 3.675 14.3698 4.5V13.5ZM11.3698 6H6.86978V7.5H11.3698V6ZM11.3698 8.25H6.86978V9.75H11.3698V8.25ZM11.3698 10.5H6.86978V12H11.3698V10.5Z" fill="white"/>
</g>
<defs>
<clipPath id="clip0_3_427">
<rect width="18" height="18" fill="white" transform="translate(0.119781)"/>
</clipPath>
</defs>
</svg>
