<svg width="135" height="47" viewBox="0 0 135 47" fill="none" xmlns="http://www.w3.org/2000/svg">
<g opacity="0.3">
<path d="M75.9704 -77.9439C75.9704 -75.8817 74.2986 -74.2099 72.2364 -74.2099C70.1742 -74.2099 68.5024 -75.8817 68.5024 -77.9439C68.5024 -80.0061 70.1742 -81.6779 72.2364 -81.6779C74.2986 -81.6779 75.9704 -80.0061 75.9704 -77.9439Z" fill="url(#paint0_radial_52_1015)"/>
<path d="M89.6617 -77.9439C89.6617 -75.8817 87.9899 -74.2099 85.9277 -74.2099C83.8655 -74.2099 82.1937 -75.8817 82.1937 -77.9439C82.1937 -80.0061 83.8655 -81.6779 85.9277 -81.6779C87.9899 -81.6779 89.6617 -80.0061 89.6617 -77.9439Z" fill="url(#paint1_radial_52_1015)"/>
<path d="M103.353 -77.9439C103.353 -75.8817 101.681 -74.2099 99.619 -74.2099C97.5568 -74.2099 95.885 -75.8817 95.885 -77.9439C95.885 -80.0061 97.5568 -81.6779 99.619 -81.6779C101.681 -81.6779 103.353 -80.0061 103.353 -77.9439Z" fill="url(#paint2_radial_52_1015)"/>
<path d="M117.044 -77.9439C117.044 -75.8817 115.372 -74.2099 113.31 -74.2099C111.248 -74.2099 109.576 -75.8817 109.576 -77.9439C109.576 -80.0061 111.248 -81.6779 113.31 -81.6779C115.372 -81.6779 117.044 -80.0061 117.044 -77.9439Z" fill="url(#paint3_radial_52_1015)"/>
<path d="M62.2795 -64.2526C62.2795 -62.1904 60.6077 -60.5186 58.5455 -60.5186C56.4833 -60.5186 54.8115 -62.1904 54.8115 -64.2526C54.8115 -66.3148 56.4833 -67.9866 58.5455 -67.9866C60.6077 -67.9866 62.2795 -66.3148 62.2795 -64.2526Z" fill="url(#paint4_radial_52_1015)"/>
<path d="M48.5882 -64.2526C48.5882 -62.1904 46.9164 -60.5186 44.8542 -60.5186C42.792 -60.5186 41.1202 -62.1904 41.1202 -64.2526C41.1202 -66.3148 42.792 -67.9866 44.8542 -67.9866C46.9164 -67.9866 48.5882 -66.3148 48.5882 -64.2526Z" fill="url(#paint5_radial_52_1015)"/>
<path d="M75.9704 -64.2526C75.9704 -62.1904 74.2986 -60.5186 72.2364 -60.5186C70.1742 -60.5186 68.5024 -62.1904 68.5024 -64.2526C68.5024 -66.3148 70.1742 -67.9866 72.2364 -67.9866C74.2986 -67.9866 75.9704 -66.3148 75.9704 -64.2526Z" fill="url(#paint6_radial_52_1015)"/>
<path d="M89.6617 -64.2526C89.6617 -62.1904 87.9899 -60.5186 85.9277 -60.5186C83.8655 -60.5186 82.1937 -62.1904 82.1937 -64.2526C82.1937 -66.3148 83.8655 -67.9866 85.9277 -67.9866C87.9899 -67.9866 89.6617 -66.3148 89.6617 -64.2526Z" fill="url(#paint7_radial_52_1015)"/>
<path d="M103.353 -64.2526C103.353 -62.1904 101.681 -60.5186 99.619 -60.5186C97.5568 -60.5186 95.885 -62.1904 95.885 -64.2526C95.885 -66.3148 97.5568 -67.9866 99.619 -67.9866C101.681 -67.9866 103.353 -66.3148 103.353 -64.2526Z" fill="url(#paint8_radial_52_1015)"/>
<path d="M117.044 -64.2526C117.044 -62.1904 115.372 -60.5186 113.31 -60.5186C111.248 -60.5186 109.576 -62.1904 109.576 -64.2526C109.576 -66.3148 111.248 -67.9866 113.31 -67.9866C115.372 -67.9866 117.044 -66.3148 117.044 -64.2526Z" fill="url(#paint9_radial_52_1015)"/>
<path d="M130.736 -64.2526C130.736 -62.1904 129.064 -60.5186 127.002 -60.5186C124.939 -60.5186 123.268 -62.1904 123.268 -64.2526C123.268 -66.3148 124.939 -67.9866 127.002 -67.9866C129.064 -67.9866 130.736 -66.3148 130.736 -64.2526Z" fill="url(#paint10_radial_52_1015)"/>
<path d="M144.427 -64.2526C144.427 -62.1904 142.755 -60.5186 140.693 -60.5186C138.631 -60.5186 136.959 -62.1904 136.959 -64.2526C136.959 -66.3148 138.631 -67.9866 140.693 -67.9866C142.755 -67.9866 144.427 -66.3148 144.427 -64.2526Z" fill="url(#paint11_radial_52_1015)"/>
<path d="M21.2056 -50.5613C21.2056 -48.4991 19.5339 -46.8274 17.4716 -46.8274C15.4094 -46.8274 13.7377 -48.4991 13.7377 -50.5613C13.7377 -52.6235 15.4094 -54.2953 17.4716 -54.2953C19.5339 -54.2953 21.2056 -52.6235 21.2056 -50.5613Z" fill="url(#paint12_radial_52_1015)"/>
<path d="M34.8969 -50.5613C34.8969 -48.4991 33.2251 -46.8274 31.1629 -46.8274C29.1007 -46.8274 27.429 -48.4991 27.429 -50.5613C27.429 -52.6235 29.1007 -54.2953 31.1629 -54.2953C33.2251 -54.2953 34.8969 -52.6235 34.8969 -50.5613Z" fill="url(#paint13_radial_52_1015)"/>
<path d="M48.5882 -50.5613C48.5882 -48.4991 46.9164 -46.8274 44.8542 -46.8274C42.792 -46.8274 41.1202 -48.4991 41.1202 -50.5613C41.1202 -52.6235 42.792 -54.2953 44.8542 -54.2953C46.9164 -54.2953 48.5882 -52.6235 48.5882 -50.5613Z" fill="url(#paint14_radial_52_1015)"/>
<path d="M62.2795 -50.5613C62.2795 -48.4991 60.6077 -46.8274 58.5455 -46.8274C56.4833 -46.8274 54.8115 -48.4991 54.8115 -50.5613C54.8115 -52.6235 56.4833 -54.2953 58.5455 -54.2953C60.6077 -54.2953 62.2795 -52.6235 62.2795 -50.5613Z" fill="url(#paint15_radial_52_1015)"/>
<path d="M75.9704 -50.5613C75.9704 -48.4991 74.2986 -46.8274 72.2364 -46.8274C70.1742 -46.8274 68.5024 -48.4991 68.5024 -50.5613C68.5024 -52.6235 70.1742 -54.2953 72.2364 -54.2953C74.2986 -54.2953 75.9704 -52.6235 75.9704 -50.5613Z" fill="url(#paint16_radial_52_1015)"/>
<path d="M89.6617 -50.5613C89.6617 -48.4991 87.9899 -46.8274 85.9277 -46.8274C83.8655 -46.8274 82.1937 -48.4991 82.1937 -50.5613C82.1937 -52.6235 83.8655 -54.2953 85.9277 -54.2953C87.9899 -54.2953 89.6617 -52.6235 89.6617 -50.5613Z" fill="url(#paint17_radial_52_1015)"/>
<path d="M103.353 -50.5613C103.353 -48.4991 101.681 -46.8274 99.619 -46.8274C97.5568 -46.8274 95.885 -48.4991 95.885 -50.5613C95.885 -52.6235 97.5568 -54.2953 99.619 -54.2953C101.681 -54.2953 103.353 -52.6235 103.353 -50.5613Z" fill="url(#paint18_radial_52_1015)"/>
<path d="M117.044 -50.5613C117.044 -48.4991 115.372 -46.8274 113.31 -46.8274C111.248 -46.8274 109.576 -48.4991 109.576 -50.5613C109.576 -52.6235 111.248 -54.2953 113.31 -54.2953C115.372 -54.2953 117.044 -52.6235 117.044 -50.5613Z" fill="url(#paint19_radial_52_1015)"/>
<path d="M130.736 -50.5613C130.736 -48.4991 129.064 -46.8274 127.002 -46.8274C124.939 -46.8274 123.268 -48.4991 123.268 -50.5613C123.268 -52.6235 124.939 -54.2953 127.002 -54.2953C129.064 -54.2953 130.736 -52.6235 130.736 -50.5613Z" fill="url(#paint20_radial_52_1015)"/>
<path d="M144.426 -50.5613C144.426 -48.4991 142.755 -46.8274 140.692 -46.8274C138.63 -46.8274 136.958 -48.4991 136.958 -50.5613C136.958 -52.6235 138.63 -54.2953 140.692 -54.2953C142.755 -54.2953 144.426 -52.6235 144.426 -50.5613Z" fill="url(#paint21_radial_52_1015)"/>
<path d="M158.118 -50.5613C158.118 -48.4991 156.446 -46.8274 154.384 -46.8274C152.322 -46.8274 150.65 -48.4991 150.65 -50.5613C150.65 -52.6235 152.322 -54.2953 154.384 -54.2953C156.446 -54.2953 158.118 -52.6235 158.118 -50.5613Z" fill="url(#paint22_radial_52_1015)"/>
<path d="M171.809 -50.5613C171.809 -48.4991 170.137 -46.8274 168.075 -46.8274C166.013 -46.8274 164.341 -48.4991 164.341 -50.5613C164.341 -52.6235 166.013 -54.2953 168.075 -54.2953C170.137 -54.2953 171.809 -52.6235 171.809 -50.5613Z" fill="url(#paint23_radial_52_1015)"/>
<path d="M7.51432 -36.8704C7.51432 -34.8082 5.84257 -33.1364 3.78035 -33.1364C1.71814 -33.1364 0.0463867 -34.8082 0.0463867 -36.8704C0.0463867 -38.9326 1.71814 -40.6044 3.78035 -40.6044C5.84257 -40.6044 7.51432 -38.9326 7.51432 -36.8704Z" fill="url(#paint24_radial_52_1015)"/>
<path d="M21.2056 -36.8704C21.2056 -34.8082 19.5339 -33.1364 17.4716 -33.1364C15.4094 -33.1364 13.7377 -34.8082 13.7377 -36.8704C13.7377 -38.9326 15.4094 -40.6044 17.4716 -40.6044C19.5339 -40.6044 21.2056 -38.9326 21.2056 -36.8704Z" fill="url(#paint25_radial_52_1015)"/>
<path d="M34.8969 -36.8704C34.8969 -34.8082 33.2251 -33.1364 31.1629 -33.1364C29.1007 -33.1364 27.429 -34.8082 27.429 -36.8704C27.429 -38.9326 29.1007 -40.6044 31.1629 -40.6044C33.2251 -40.6044 34.8969 -38.9326 34.8969 -36.8704Z" fill="url(#paint26_radial_52_1015)"/>
<path d="M48.5882 -36.8704C48.5882 -34.8082 46.9164 -33.1364 44.8542 -33.1364C42.792 -33.1364 41.1202 -34.8082 41.1202 -36.8704C41.1202 -38.9326 42.792 -40.6044 44.8542 -40.6044C46.9164 -40.6044 48.5882 -38.9326 48.5882 -36.8704Z" fill="url(#paint27_radial_52_1015)"/>
<path d="M62.2795 -36.8704C62.2795 -34.8082 60.6077 -33.1364 58.5455 -33.1364C56.4833 -33.1364 54.8115 -34.8082 54.8115 -36.8704C54.8115 -38.9326 56.4833 -40.6044 58.5455 -40.6044C60.6077 -40.6044 62.2795 -38.9326 62.2795 -36.8704Z" fill="url(#paint28_radial_52_1015)"/>
<path d="M75.9704 -36.8704C75.9704 -34.8082 74.2986 -33.1364 72.2364 -33.1364C70.1742 -33.1364 68.5024 -34.8082 68.5024 -36.8704C68.5024 -38.9326 70.1742 -40.6044 72.2364 -40.6044C74.2986 -40.6044 75.9704 -38.9326 75.9704 -36.8704Z" fill="url(#paint29_radial_52_1015)"/>
<path d="M89.6617 -36.8704C89.6617 -34.8082 87.9899 -33.1364 85.9277 -33.1364C83.8655 -33.1364 82.1937 -34.8082 82.1937 -36.8704C82.1937 -38.9326 83.8655 -40.6044 85.9277 -40.6044C87.9899 -40.6044 89.6617 -38.9326 89.6617 -36.8704Z" fill="url(#paint30_radial_52_1015)"/>
<path d="M103.353 -36.8704C103.353 -34.8082 101.681 -33.1364 99.619 -33.1364C97.5568 -33.1364 95.885 -34.8082 95.885 -36.8704C95.885 -38.9326 97.5568 -40.6044 99.619 -40.6044C101.681 -40.6044 103.353 -38.9326 103.353 -36.8704Z" fill="url(#paint31_radial_52_1015)"/>
<path d="M117.044 -36.8704C117.044 -34.8082 115.372 -33.1364 113.31 -33.1364C111.248 -33.1364 109.576 -34.8082 109.576 -36.8704C109.576 -38.9326 111.248 -40.6044 113.31 -40.6044C115.372 -40.6044 117.044 -38.9326 117.044 -36.8704Z" fill="url(#paint32_radial_52_1015)"/>
<path d="M130.736 -36.8704C130.736 -34.8082 129.064 -33.1364 127.002 -33.1364C124.939 -33.1364 123.268 -34.8082 123.268 -36.8704C123.268 -38.9326 124.939 -40.6044 127.002 -40.6044C129.064 -40.6044 130.736 -38.9326 130.736 -36.8704Z" fill="url(#paint33_radial_52_1015)"/>
<path d="M144.426 -36.8704C144.426 -34.8082 142.755 -33.1364 140.692 -33.1364C138.63 -33.1364 136.958 -34.8082 136.958 -36.8704C136.958 -38.9326 138.63 -40.6044 140.692 -40.6044C142.755 -40.6044 144.426 -38.9326 144.426 -36.8704Z" fill="url(#paint34_radial_52_1015)"/>
<path d="M158.118 -36.8704C158.118 -34.8082 156.446 -33.1364 154.384 -33.1364C152.322 -33.1364 150.65 -34.8082 150.65 -36.8704C150.65 -38.9326 152.322 -40.6044 154.384 -40.6044C156.446 -40.6044 158.118 -38.9326 158.118 -36.8704Z" fill="url(#paint35_radial_52_1015)"/>
<path d="M171.809 -36.8704C171.809 -34.8082 170.137 -33.1364 168.075 -33.1364C166.013 -33.1364 164.341 -34.8082 164.341 -36.8704C164.341 -38.9326 166.013 -40.6044 168.075 -40.6044C170.137 -40.6044 171.809 -38.9326 171.809 -36.8704Z" fill="url(#paint36_radial_52_1015)"/>
<path d="M185.5 -36.8704C185.5 -34.8082 183.829 -33.1364 181.766 -33.1364C179.704 -33.1364 178.032 -34.8082 178.032 -36.8704C178.032 -38.9326 179.704 -40.6044 181.766 -40.6044C183.829 -40.6044 185.5 -38.9326 185.5 -36.8704Z" fill="url(#paint37_radial_52_1015)"/>
<path d="M7.51432 -23.1791C7.51432 -21.1169 5.84257 -19.4452 3.78035 -19.4452C1.71814 -19.4452 0.0463867 -21.1169 0.0463867 -23.1791C0.0463867 -25.2413 1.71814 -26.9131 3.78035 -26.9131C5.84257 -26.9131 7.51432 -25.2413 7.51432 -23.1791Z" fill="url(#paint38_radial_52_1015)"/>
<path d="M21.2056 -23.1791C21.2056 -21.1169 19.5339 -19.4452 17.4716 -19.4452C15.4094 -19.4452 13.7377 -21.1169 13.7377 -23.1791C13.7377 -25.2413 15.4094 -26.9131 17.4716 -26.9131C19.5339 -26.9131 21.2056 -25.2413 21.2056 -23.1791Z" fill="url(#paint39_radial_52_1015)"/>
<path d="M34.8969 -23.1791C34.8969 -21.1169 33.2251 -19.4452 31.1629 -19.4452C29.1007 -19.4452 27.429 -21.1169 27.429 -23.1791C27.429 -25.2413 29.1007 -26.9131 31.1629 -26.9131C33.2251 -26.9131 34.8969 -25.2413 34.8969 -23.1791Z" fill="url(#paint40_radial_52_1015)"/>
<path d="M48.5882 -23.1791C48.5882 -21.1169 46.9164 -19.4452 44.8542 -19.4452C42.792 -19.4452 41.1202 -21.1169 41.1202 -23.1791C41.1202 -25.2413 42.792 -26.9131 44.8542 -26.9131C46.9164 -26.9131 48.5882 -25.2413 48.5882 -23.1791Z" fill="url(#paint41_radial_52_1015)"/>
<path d="M62.2795 -23.1791C62.2795 -21.1169 60.6077 -19.4452 58.5455 -19.4452C56.4833 -19.4452 54.8115 -21.1169 54.8115 -23.1791C54.8115 -25.2413 56.4833 -26.9131 58.5455 -26.9131C60.6077 -26.9131 62.2795 -25.2413 62.2795 -23.1791Z" fill="url(#paint42_radial_52_1015)"/>
<path d="M75.9704 -23.1791C75.9704 -21.1169 74.2986 -19.4452 72.2364 -19.4452C70.1742 -19.4452 68.5024 -21.1169 68.5024 -23.1791C68.5024 -25.2413 70.1742 -26.9131 72.2364 -26.9131C74.2986 -26.9131 75.9704 -25.2413 75.9704 -23.1791Z" fill="url(#paint43_radial_52_1015)"/>
<path d="M89.6617 -23.1791C89.6617 -21.1169 87.9899 -19.4452 85.9277 -19.4452C83.8655 -19.4452 82.1937 -21.1169 82.1937 -23.1791C82.1937 -25.2413 83.8655 -26.9131 85.9277 -26.9131C87.9899 -26.9131 89.6617 -25.2413 89.6617 -23.1791Z" fill="url(#paint44_radial_52_1015)"/>
<path d="M103.353 -23.1791C103.353 -21.1169 101.681 -19.4452 99.619 -19.4452C97.5568 -19.4452 95.885 -21.1169 95.885 -23.1791C95.885 -25.2413 97.5568 -26.9131 99.619 -26.9131C101.681 -26.9131 103.353 -25.2413 103.353 -23.1791Z" fill="url(#paint45_radial_52_1015)"/>
<path d="M117.044 -23.1791C117.044 -21.1169 115.372 -19.4452 113.31 -19.4452C111.248 -19.4452 109.576 -21.1169 109.576 -23.1791C109.576 -25.2413 111.248 -26.9131 113.31 -26.9131C115.372 -26.9131 117.044 -25.2413 117.044 -23.1791Z" fill="url(#paint46_radial_52_1015)"/>
<path d="M130.736 -23.1791C130.736 -21.1169 129.064 -19.4452 127.002 -19.4452C124.939 -19.4452 123.268 -21.1169 123.268 -23.1791C123.268 -25.2413 124.939 -26.9131 127.002 -26.9131C129.064 -26.9131 130.736 -25.2413 130.736 -23.1791Z" fill="url(#paint47_radial_52_1015)"/>
<path d="M144.426 -23.1791C144.426 -21.1169 142.755 -19.4452 140.692 -19.4452C138.63 -19.4452 136.958 -21.1169 136.958 -23.1791C136.958 -25.2413 138.63 -26.9131 140.692 -26.9131C142.755 -26.9131 144.426 -25.2413 144.426 -23.1791Z" fill="url(#paint48_radial_52_1015)"/>
<path d="M158.118 -23.1791C158.118 -21.1169 156.446 -19.4452 154.384 -19.4452C152.322 -19.4452 150.65 -21.1169 150.65 -23.1791C150.65 -25.2413 152.322 -26.9131 154.384 -26.9131C156.446 -26.9131 158.118 -25.2413 158.118 -23.1791Z" fill="url(#paint49_radial_52_1015)"/>
<path d="M171.809 -23.1791C171.809 -21.1169 170.137 -19.4452 168.075 -19.4452C166.013 -19.4452 164.341 -21.1169 164.341 -23.1791C164.341 -25.2413 166.013 -26.9131 168.075 -26.9131C170.137 -26.9131 171.809 -25.2413 171.809 -23.1791Z" fill="url(#paint50_radial_52_1015)"/>
<path d="M185.5 -23.1791C185.5 -21.1169 183.829 -19.4452 181.766 -19.4452C179.704 -19.4452 178.032 -21.1169 178.032 -23.1791C178.032 -25.2413 179.704 -26.9131 181.766 -26.9131C183.829 -26.9131 185.5 -25.2413 185.5 -23.1791Z" fill="url(#paint51_radial_52_1015)"/>
<path d="M7.51432 -9.48783C7.51432 -7.42562 5.84257 -5.75387 3.78035 -5.75387C1.71814 -5.75387 0.0463867 -7.42562 0.0463867 -9.48783C0.0463867 -11.55 1.71814 -13.2218 3.78035 -13.2218C5.84257 -13.2218 7.51432 -11.55 7.51432 -9.48783Z" fill="url(#paint52_radial_52_1015)"/>
<path d="M21.2056 -9.48783C21.2056 -7.42562 19.5339 -5.75387 17.4716 -5.75387C15.4094 -5.75387 13.7377 -7.42562 13.7377 -9.48783C13.7377 -11.55 15.4094 -13.2218 17.4716 -13.2218C19.5339 -13.2218 21.2056 -11.55 21.2056 -9.48783Z" fill="url(#paint53_radial_52_1015)"/>
<path d="M34.8969 -9.48783C34.8969 -7.42562 33.2251 -5.75387 31.1629 -5.75387C29.1007 -5.75387 27.429 -7.42562 27.429 -9.48783C27.429 -11.55 29.1007 -13.2218 31.1629 -13.2218C33.2251 -13.2218 34.8969 -11.55 34.8969 -9.48783Z" fill="url(#paint54_radial_52_1015)"/>
<path d="M48.5882 -9.48783C48.5882 -7.42562 46.9164 -5.75387 44.8542 -5.75387C42.792 -5.75387 41.1202 -7.42562 41.1202 -9.48783C41.1202 -11.55 42.792 -13.2218 44.8542 -13.2218C46.9164 -13.2218 48.5882 -11.55 48.5882 -9.48783Z" fill="url(#paint55_radial_52_1015)"/>
<path d="M62.2795 -9.48783C62.2795 -7.42562 60.6077 -5.75387 58.5455 -5.75387C56.4833 -5.75387 54.8115 -7.42562 54.8115 -9.48783C54.8115 -11.55 56.4833 -13.2218 58.5455 -13.2218C60.6077 -13.2218 62.2795 -11.55 62.2795 -9.48783Z" fill="url(#paint56_radial_52_1015)"/>
<path d="M75.9704 -9.48783C75.9704 -7.42562 74.2986 -5.75387 72.2364 -5.75387C70.1742 -5.75387 68.5024 -7.42562 68.5024 -9.48783C68.5024 -11.55 70.1742 -13.2218 72.2364 -13.2218C74.2986 -13.2218 75.9704 -11.55 75.9704 -9.48783Z" fill="url(#paint57_radial_52_1015)"/>
<path d="M89.6617 -9.48783C89.6617 -7.42562 87.9899 -5.75387 85.9277 -5.75387C83.8655 -5.75387 82.1937 -7.42562 82.1937 -9.48783C82.1937 -11.55 83.8655 -13.2218 85.9277 -13.2218C87.9899 -13.2218 89.6617 -11.55 89.6617 -9.48783Z" fill="url(#paint58_radial_52_1015)"/>
<path d="M103.353 -9.48783C103.353 -7.42562 101.681 -5.75387 99.619 -5.75387C97.5568 -5.75387 95.885 -7.42562 95.885 -9.48783C95.885 -11.55 97.5568 -13.2218 99.619 -13.2218C101.681 -13.2218 103.353 -11.55 103.353 -9.48783Z" fill="url(#paint59_radial_52_1015)"/>
<path d="M117.044 -9.48783C117.044 -7.42562 115.372 -5.75387 113.31 -5.75387C111.248 -5.75387 109.576 -7.42562 109.576 -9.48783C109.576 -11.55 111.248 -13.2218 113.31 -13.2218C115.372 -13.2218 117.044 -11.55 117.044 -9.48783Z" fill="url(#paint60_radial_52_1015)"/>
<path d="M130.736 -9.48783C130.736 -7.42562 129.064 -5.75387 127.002 -5.75387C124.939 -5.75387 123.268 -7.42562 123.268 -9.48783C123.268 -11.55 124.939 -13.2218 127.002 -13.2218C129.064 -13.2218 130.736 -11.55 130.736 -9.48783Z" fill="url(#paint61_radial_52_1015)"/>
<path d="M144.426 -9.48783C144.426 -7.42562 142.755 -5.75387 140.692 -5.75387C138.63 -5.75387 136.958 -7.42562 136.958 -9.48783C136.958 -11.55 138.63 -13.2218 140.692 -13.2218C142.755 -13.2218 144.426 -11.55 144.426 -9.48783Z" fill="url(#paint62_radial_52_1015)"/>
<path d="M158.118 -9.48783C158.118 -7.42562 156.446 -5.75387 154.384 -5.75387C152.322 -5.75387 150.65 -7.42562 150.65 -9.48783C150.65 -11.55 152.322 -13.2218 154.384 -13.2218C156.446 -13.2218 158.118 -11.55 158.118 -9.48783Z" fill="url(#paint63_radial_52_1015)"/>
<path d="M171.809 -9.48783C171.809 -7.42562 170.137 -5.75387 168.075 -5.75387C166.013 -5.75387 164.341 -7.42562 164.341 -9.48783C164.341 -11.55 166.013 -13.2218 168.075 -13.2218C170.137 -13.2218 171.809 -11.55 171.809 -9.48783Z" fill="url(#paint64_radial_52_1015)"/>
<path d="M185.5 -9.48783C185.5 -7.42562 183.829 -5.75387 181.766 -5.75387C179.704 -5.75387 178.032 -7.42562 178.032 -9.48783C178.032 -11.55 179.704 -13.2218 181.766 -13.2218C183.829 -13.2218 185.5 -11.55 185.5 -9.48783Z" fill="url(#paint65_radial_52_1015)"/>
<path d="M7.51432 4.20345C7.51432 6.26566 5.84257 7.93742 3.78035 7.93742C1.71814 7.93742 0.0463867 6.26566 0.0463867 4.20345C0.0463867 2.14124 1.71814 0.469482 3.78035 0.469482C5.84257 0.469482 7.51432 2.14124 7.51432 4.20345Z" fill="url(#paint66_radial_52_1015)"/>
<path d="M21.2056 4.20345C21.2056 6.26566 19.5339 7.93742 17.4716 7.93742C15.4094 7.93742 13.7377 6.26566 13.7377 4.20345C13.7377 2.14124 15.4094 0.469482 17.4716 0.469482C19.5339 0.469482 21.2056 2.14124 21.2056 4.20345Z" fill="url(#paint67_radial_52_1015)"/>
<path d="M34.8969 4.20345C34.8969 6.26566 33.2251 7.93742 31.1629 7.93742C29.1007 7.93742 27.429 6.26566 27.429 4.20345C27.429 2.14124 29.1007 0.469482 31.1629 0.469482C33.2251 0.469482 34.8969 2.14124 34.8969 4.20345Z" fill="url(#paint68_radial_52_1015)"/>
<path d="M48.5882 4.20345C48.5882 6.26566 46.9164 7.93742 44.8542 7.93742C42.792 7.93742 41.1202 6.26566 41.1202 4.20345C41.1202 2.14124 42.792 0.469482 44.8542 0.469482C46.9164 0.469482 48.5882 2.14124 48.5882 4.20345Z" fill="url(#paint69_radial_52_1015)"/>
<path d="M62.2795 4.20345C62.2795 6.26566 60.6077 7.93742 58.5455 7.93742C56.4833 7.93742 54.8115 6.26566 54.8115 4.20345C54.8115 2.14124 56.4833 0.469482 58.5455 0.469482C60.6077 0.469482 62.2795 2.14124 62.2795 4.20345Z" fill="url(#paint70_radial_52_1015)"/>
<path d="M75.9704 4.20345C75.9704 6.26566 74.2986 7.93742 72.2364 7.93742C70.1742 7.93742 68.5024 6.26566 68.5024 4.20345C68.5024 2.14124 70.1742 0.469482 72.2364 0.469482C74.2986 0.469482 75.9704 2.14124 75.9704 4.20345Z" fill="url(#paint71_radial_52_1015)"/>
<path d="M89.6617 4.20345C89.6617 6.26566 87.9899 7.93742 85.9277 7.93742C83.8655 7.93742 82.1937 6.26566 82.1937 4.20345C82.1937 2.14124 83.8655 0.469482 85.9277 0.469482C87.9899 0.469482 89.6617 2.14124 89.6617 4.20345Z" fill="url(#paint72_radial_52_1015)"/>
<path d="M103.353 4.20345C103.353 6.26566 101.681 7.93742 99.619 7.93742C97.5568 7.93742 95.885 6.26566 95.885 4.20345C95.885 2.14124 97.5568 0.469482 99.619 0.469482C101.681 0.469482 103.353 2.14124 103.353 4.20345Z" fill="url(#paint73_radial_52_1015)"/>
<path d="M117.044 4.20345C117.044 6.26566 115.372 7.93742 113.31 7.93742C111.248 7.93742 109.576 6.26566 109.576 4.20345C109.576 2.14124 111.248 0.469482 113.31 0.469482C115.372 0.469482 117.044 2.14124 117.044 4.20345Z" fill="url(#paint74_radial_52_1015)"/>
<path d="M130.736 4.20345C130.736 6.26566 129.064 7.93742 127.002 7.93742C124.939 7.93742 123.268 6.26566 123.268 4.20345C123.268 2.14124 124.939 0.469482 127.002 0.469482C129.064 0.469482 130.736 2.14124 130.736 4.20345Z" fill="url(#paint75_radial_52_1015)"/>
<path d="M144.426 4.20345C144.426 6.26566 142.755 7.93742 140.692 7.93742C138.63 7.93742 136.958 6.26566 136.958 4.20345C136.958 2.14124 138.63 0.469482 140.692 0.469482C142.755 0.469482 144.426 2.14124 144.426 4.20345Z" fill="url(#paint76_radial_52_1015)"/>
<path d="M158.118 4.20345C158.118 6.26566 156.446 7.93742 154.384 7.93742C152.322 7.93742 150.65 6.26566 150.65 4.20345C150.65 2.14124 152.322 0.469482 154.384 0.469482C156.446 0.469482 158.118 2.14124 158.118 4.20345Z" fill="url(#paint77_radial_52_1015)"/>
<path d="M171.809 4.20345C171.809 6.26566 170.137 7.93742 168.075 7.93742C166.013 7.93742 164.341 6.26566 164.341 4.20345C164.341 2.14124 166.013 0.469482 168.075 0.469482C170.137 0.469482 171.809 2.14124 171.809 4.20345Z" fill="url(#paint78_radial_52_1015)"/>
<path d="M185.5 4.20345C185.5 6.26566 183.829 7.93742 181.766 7.93742C179.704 7.93742 178.032 6.26566 178.032 4.20345C178.032 2.14124 179.704 0.469482 181.766 0.469482C183.829 0.469482 185.5 2.14124 185.5 4.20345Z" fill="url(#paint79_radial_52_1015)"/>
<path d="M7.51432 17.8947C7.51432 19.957 5.84257 21.6287 3.78035 21.6287C1.71814 21.6287 0.0463867 19.957 0.0463867 17.8947C0.0463867 15.8325 1.71814 14.1608 3.78035 14.1608C5.84257 14.1608 7.51432 15.8325 7.51432 17.8947Z" fill="url(#paint80_radial_52_1015)"/>
<path d="M21.2056 17.8947C21.2056 19.957 19.5339 21.6287 17.4716 21.6287C15.4094 21.6287 13.7377 19.957 13.7377 17.8947C13.7377 15.8325 15.4094 14.1608 17.4716 14.1608C19.5339 14.1608 21.2056 15.8325 21.2056 17.8947Z" fill="url(#paint81_radial_52_1015)"/>
<path d="M34.8969 17.8947C34.8969 19.957 33.2251 21.6287 31.1629 21.6287C29.1007 21.6287 27.429 19.957 27.429 17.8947C27.429 15.8325 29.1007 14.1608 31.1629 14.1608C33.2251 14.1608 34.8969 15.8325 34.8969 17.8947Z" fill="url(#paint82_radial_52_1015)"/>
<path d="M48.5882 17.8947C48.5882 19.957 46.9164 21.6287 44.8542 21.6287C42.792 21.6287 41.1202 19.957 41.1202 17.8947C41.1202 15.8325 42.792 14.1608 44.8542 14.1608C46.9164 14.1608 48.5882 15.8325 48.5882 17.8947Z" fill="url(#paint83_radial_52_1015)"/>
<path d="M62.2795 17.8947C62.2795 19.957 60.6077 21.6287 58.5455 21.6287C56.4833 21.6287 54.8115 19.957 54.8115 17.8947C54.8115 15.8325 56.4833 14.1608 58.5455 14.1608C60.6077 14.1608 62.2795 15.8325 62.2795 17.8947Z" fill="url(#paint84_radial_52_1015)"/>
<path d="M75.9704 17.8947C75.9704 19.957 74.2986 21.6287 72.2364 21.6287C70.1742 21.6287 68.5024 19.957 68.5024 17.8947C68.5024 15.8325 70.1742 14.1608 72.2364 14.1608C74.2986 14.1608 75.9704 15.8325 75.9704 17.8947Z" fill="url(#paint85_radial_52_1015)"/>
<path d="M89.6617 17.8947C89.6617 19.957 87.9899 21.6287 85.9277 21.6287C83.8655 21.6287 82.1937 19.957 82.1937 17.8947C82.1937 15.8325 83.8655 14.1608 85.9277 14.1608C87.9899 14.1608 89.6617 15.8325 89.6617 17.8947Z" fill="url(#paint86_radial_52_1015)"/>
<path d="M103.353 17.8947C103.353 19.957 101.681 21.6287 99.619 21.6287C97.5568 21.6287 95.885 19.957 95.885 17.8947C95.885 15.8325 97.5568 14.1608 99.619 14.1608C101.681 14.1608 103.353 15.8325 103.353 17.8947Z" fill="url(#paint87_radial_52_1015)"/>
<path d="M117.044 17.8947C117.044 19.957 115.372 21.6287 113.31 21.6287C111.248 21.6287 109.576 19.957 109.576 17.8947C109.576 15.8325 111.248 14.1608 113.31 14.1608C115.372 14.1608 117.044 15.8325 117.044 17.8947Z" fill="url(#paint88_radial_52_1015)"/>
<path d="M130.736 17.8947C130.736 19.957 129.064 21.6287 127.002 21.6287C124.939 21.6287 123.268 19.957 123.268 17.8947C123.268 15.8325 124.939 14.1608 127.002 14.1608C129.064 14.1608 130.736 15.8325 130.736 17.8947Z" fill="url(#paint89_radial_52_1015)"/>
<path d="M144.426 17.8947C144.426 19.957 142.755 21.6287 140.692 21.6287C138.63 21.6287 136.958 19.957 136.958 17.8947C136.958 15.8325 138.63 14.1608 140.692 14.1608C142.755 14.1608 144.426 15.8325 144.426 17.8947Z" fill="url(#paint90_radial_52_1015)"/>
<path d="M158.118 17.8947C158.118 19.957 156.446 21.6287 154.384 21.6287C152.322 21.6287 150.65 19.957 150.65 17.8947C150.65 15.8325 152.322 14.1608 154.384 14.1608C156.446 14.1608 158.118 15.8325 158.118 17.8947Z" fill="url(#paint91_radial_52_1015)"/>
<path d="M171.809 17.8947C171.809 19.957 170.137 21.6287 168.075 21.6287C166.013 21.6287 164.341 19.957 164.341 17.8947C164.341 15.8325 166.013 14.1608 168.075 14.1608C170.137 14.1608 171.809 15.8325 171.809 17.8947Z" fill="url(#paint92_radial_52_1015)"/>
<path d="M185.5 17.8947C185.5 19.957 183.829 21.6287 181.766 21.6287C179.704 21.6287 178.032 19.957 178.032 17.8947C178.032 15.8325 179.704 14.1608 181.766 14.1608C183.829 14.1608 185.5 15.8325 185.5 17.8947Z" fill="url(#paint93_radial_52_1015)"/>
<path d="M7.51432 31.5856C7.51432 33.6479 5.84257 35.3196 3.78035 35.3196C1.71814 35.3196 0.0463867 33.6479 0.0463867 31.5856C0.0463867 29.5234 1.71814 27.8517 3.78035 27.8517C5.84257 27.8517 7.51432 29.5234 7.51432 31.5856Z" fill="url(#paint94_radial_52_1015)"/>
<path d="M21.2056 31.5856C21.2056 33.6479 19.5339 35.3196 17.4716 35.3196C15.4094 35.3196 13.7377 33.6479 13.7377 31.5856C13.7377 29.5234 15.4094 27.8517 17.4716 27.8517C19.5339 27.8517 21.2056 29.5234 21.2056 31.5856Z" fill="url(#paint95_radial_52_1015)"/>
<path d="M34.8969 31.5856C34.8969 33.6479 33.2251 35.3196 31.1629 35.3196C29.1007 35.3196 27.429 33.6479 27.429 31.5856C27.429 29.5234 29.1007 27.8517 31.1629 27.8517C33.2251 27.8517 34.8969 29.5234 34.8969 31.5856Z" fill="url(#paint96_radial_52_1015)"/>
<path d="M48.5882 31.5856C48.5882 33.6479 46.9164 35.3196 44.8542 35.3196C42.792 35.3196 41.1202 33.6479 41.1202 31.5856C41.1202 29.5234 42.792 27.8517 44.8542 27.8517C46.9164 27.8517 48.5882 29.5234 48.5882 31.5856Z" fill="url(#paint97_radial_52_1015)"/>
<path d="M62.2795 31.5856C62.2795 33.6479 60.6077 35.3196 58.5455 35.3196C56.4833 35.3196 54.8115 33.6479 54.8115 31.5856C54.8115 29.5234 56.4833 27.8517 58.5455 27.8517C60.6077 27.8517 62.2795 29.5234 62.2795 31.5856Z" fill="url(#paint98_radial_52_1015)"/>
<path d="M75.9704 31.5856C75.9704 33.6479 74.2986 35.3196 72.2364 35.3196C70.1742 35.3196 68.5024 33.6479 68.5024 31.5856C68.5024 29.5234 70.1742 27.8517 72.2364 27.8517C74.2986 27.8517 75.9704 29.5234 75.9704 31.5856Z" fill="url(#paint99_radial_52_1015)"/>
<path d="M89.6617 31.5856C89.6617 33.6479 87.9899 35.3196 85.9277 35.3196C83.8655 35.3196 82.1937 33.6479 82.1937 31.5856C82.1937 29.5234 83.8655 27.8517 85.9277 27.8517C87.9899 27.8517 89.6617 29.5234 89.6617 31.5856Z" fill="url(#paint100_radial_52_1015)"/>
<path d="M103.353 31.5856C103.353 33.6479 101.681 35.3196 99.619 35.3196C97.5568 35.3196 95.885 33.6479 95.885 31.5856C95.885 29.5234 97.5568 27.8517 99.619 27.8517C101.681 27.8517 103.353 29.5234 103.353 31.5856Z" fill="url(#paint101_radial_52_1015)"/>
<path d="M117.044 31.5856C117.044 33.6479 115.372 35.3196 113.31 35.3196C111.248 35.3196 109.576 33.6479 109.576 31.5856C109.576 29.5234 111.248 27.8517 113.31 27.8517C115.372 27.8517 117.044 29.5234 117.044 31.5856Z" fill="url(#paint102_radial_52_1015)"/>
<path d="M130.736 31.5856C130.736 33.6479 129.064 35.3196 127.002 35.3196C124.939 35.3196 123.268 33.6479 123.268 31.5856C123.268 29.5234 124.939 27.8517 127.002 27.8517C129.064 27.8517 130.736 29.5234 130.736 31.5856Z" fill="url(#paint103_radial_52_1015)"/>
<path d="M144.426 31.5856C144.426 33.6479 142.755 35.3196 140.692 35.3196C138.63 35.3196 136.958 33.6479 136.958 31.5856C136.958 29.5234 138.63 27.8517 140.692 27.8517C142.755 27.8517 144.426 29.5234 144.426 31.5856Z" fill="url(#paint104_radial_52_1015)"/>
<path d="M158.118 31.5856C158.118 33.6479 156.446 35.3196 154.384 35.3196C152.322 35.3196 150.65 33.6479 150.65 31.5856C150.65 29.5234 152.322 27.8517 154.384 27.8517C156.446 27.8517 158.118 29.5234 158.118 31.5856Z" fill="url(#paint105_radial_52_1015)"/>
<path d="M171.809 31.5856C171.809 33.6479 170.137 35.3196 168.075 35.3196C166.013 35.3196 164.341 33.6479 164.341 31.5856C164.341 29.5234 166.013 27.8517 168.075 27.8517C170.137 27.8517 171.809 29.5234 171.809 31.5856Z" fill="url(#paint106_radial_52_1015)"/>
<path d="M185.5 31.5856C185.5 33.6479 183.829 35.3196 181.766 35.3196C179.704 35.3196 178.032 33.6479 178.032 31.5856C178.032 29.5234 179.704 27.8517 181.766 27.8517C183.829 27.8517 185.5 29.5234 185.5 31.5856Z" fill="url(#paint107_radial_52_1015)"/>
<path d="M7.51432 45.2769C7.51432 47.3391 5.84257 49.0109 3.78035 49.0109C1.71814 49.0109 0.0463867 47.3391 0.0463867 45.2769C0.0463867 43.2147 1.71814 41.543 3.78035 41.543C5.84257 41.543 7.51432 43.2147 7.51432 45.2769Z" fill="url(#paint108_radial_52_1015)"/>
<path d="M21.2056 45.2769C21.2056 47.3391 19.5339 49.0109 17.4716 49.0109C15.4094 49.0109 13.7377 47.3391 13.7377 45.2769C13.7377 43.2147 15.4094 41.543 17.4716 41.543C19.5339 41.543 21.2056 43.2147 21.2056 45.2769Z" fill="url(#paint109_radial_52_1015)"/>
<path d="M34.8969 45.2769C34.8969 47.3391 33.2251 49.0109 31.1629 49.0109C29.1007 49.0109 27.429 47.3391 27.429 45.2769C27.429 43.2147 29.1007 41.543 31.1629 41.543C33.2251 41.543 34.8969 43.2147 34.8969 45.2769Z" fill="url(#paint110_radial_52_1015)"/>
<path d="M48.5882 45.2769C48.5882 47.3391 46.9164 49.0109 44.8542 49.0109C42.792 49.0109 41.1202 47.3391 41.1202 45.2769C41.1202 43.2147 42.792 41.543 44.8542 41.543C46.9164 41.543 48.5882 43.2147 48.5882 45.2769Z" fill="url(#paint111_radial_52_1015)"/>
<path d="M62.2795 45.2769C62.2795 47.3391 60.6077 49.0109 58.5455 49.0109C56.4833 49.0109 54.8115 47.3391 54.8115 45.2769C54.8115 43.2147 56.4833 41.543 58.5455 41.543C60.6077 41.543 62.2795 43.2147 62.2795 45.2769Z" fill="url(#paint112_radial_52_1015)"/>
<path d="M75.9704 45.2769C75.9704 47.3391 74.2986 49.0109 72.2364 49.0109C70.1742 49.0109 68.5024 47.3391 68.5024 45.2769C68.5024 43.2147 70.1742 41.543 72.2364 41.543C74.2986 41.543 75.9704 43.2147 75.9704 45.2769Z" fill="url(#paint113_radial_52_1015)"/>
<path d="M89.6617 45.2769C89.6617 47.3391 87.9899 49.0109 85.9277 49.0109C83.8655 49.0109 82.1937 47.3391 82.1937 45.2769C82.1937 43.2147 83.8655 41.543 85.9277 41.543C87.9899 41.543 89.6617 43.2147 89.6617 45.2769Z" fill="url(#paint114_radial_52_1015)"/>
<path d="M103.353 45.2769C103.353 47.3391 101.681 49.0109 99.619 49.0109C97.5568 49.0109 95.885 47.3391 95.885 45.2769C95.885 43.2147 97.5568 41.543 99.619 41.543C101.681 41.543 103.353 43.2147 103.353 45.2769Z" fill="url(#paint115_radial_52_1015)"/>
<path d="M117.044 45.2769C117.044 47.3391 115.372 49.0109 113.31 49.0109C111.248 49.0109 109.576 47.3391 109.576 45.2769C109.576 43.2147 111.248 41.543 113.31 41.543C115.372 41.543 117.044 43.2147 117.044 45.2769Z" fill="url(#paint116_radial_52_1015)"/>
<path d="M130.736 45.2769C130.736 47.3391 129.064 49.0109 127.002 49.0109C124.939 49.0109 123.268 47.3391 123.268 45.2769C123.268 43.2147 124.939 41.543 127.002 41.543C129.064 41.543 130.736 43.2147 130.736 45.2769Z" fill="url(#paint117_radial_52_1015)"/>
<path d="M144.426 45.2769C144.426 47.3391 142.755 49.0109 140.692 49.0109C138.63 49.0109 136.958 47.3391 136.958 45.2769C136.958 43.2147 138.63 41.543 140.692 41.543C142.755 41.543 144.426 43.2147 144.426 45.2769Z" fill="url(#paint118_radial_52_1015)"/>
<path d="M158.118 45.2769C158.118 47.3391 156.446 49.0109 154.384 49.0109C152.322 49.0109 150.65 47.3391 150.65 45.2769C150.65 43.2147 152.322 41.543 154.384 41.543C156.446 41.543 158.118 43.2147 158.118 45.2769Z" fill="url(#paint119_radial_52_1015)"/>
<path d="M171.809 45.2769C171.809 47.3391 170.137 49.0109 168.075 49.0109C166.013 49.0109 164.341 47.3391 164.341 45.2769C164.341 43.2147 166.013 41.543 168.075 41.543C170.137 41.543 171.809 43.2147 171.809 45.2769Z" fill="url(#paint120_radial_52_1015)"/>
<path d="M185.5 45.2769C185.5 47.3391 183.829 49.0109 181.766 49.0109C179.704 49.0109 178.032 47.3391 178.032 45.2769C178.032 43.2147 179.704 41.543 181.766 41.543C183.829 41.543 185.5 43.2147 185.5 45.2769Z" fill="url(#paint121_radial_52_1015)"/>
<path d="M21.2056 58.9682C21.2056 61.0304 19.5339 62.7022 17.4716 62.7022C15.4094 62.7022 13.7377 61.0304 13.7377 58.9682C13.7377 56.906 15.4094 55.2343 17.4716 55.2343C19.5339 55.2343 21.2056 56.906 21.2056 58.9682Z" fill="url(#paint122_radial_52_1015)"/>
<path d="M34.8969 58.9682C34.8969 61.0304 33.2251 62.7022 31.1629 62.7022C29.1007 62.7022 27.429 61.0304 27.429 58.9682C27.429 56.906 29.1007 55.2343 31.1629 55.2343C33.2251 55.2343 34.8969 56.906 34.8969 58.9682Z" fill="url(#paint123_radial_52_1015)"/>
<path d="M48.5882 58.9682C48.5882 61.0304 46.9164 62.7022 44.8542 62.7022C42.792 62.7022 41.1202 61.0304 41.1202 58.9682C41.1202 56.906 42.792 55.2343 44.8542 55.2343C46.9164 55.2343 48.5882 56.906 48.5882 58.9682Z" fill="url(#paint124_radial_52_1015)"/>
<path d="M62.2795 58.9682C62.2795 61.0304 60.6077 62.7022 58.5455 62.7022C56.4833 62.7022 54.8115 61.0304 54.8115 58.9682C54.8115 56.906 56.4833 55.2343 58.5455 55.2343C60.6077 55.2343 62.2795 56.906 62.2795 58.9682Z" fill="url(#paint125_radial_52_1015)"/>
<path d="M75.9704 58.9682C75.9704 61.0304 74.2986 62.7022 72.2364 62.7022C70.1742 62.7022 68.5024 61.0304 68.5024 58.9682C68.5024 56.906 70.1742 55.2343 72.2364 55.2343C74.2986 55.2343 75.9704 56.906 75.9704 58.9682Z" fill="url(#paint126_radial_52_1015)"/>
<path d="M89.6617 58.9682C89.6617 61.0304 87.9899 62.7022 85.9277 62.7022C83.8655 62.7022 82.1937 61.0304 82.1937 58.9682C82.1937 56.906 83.8655 55.2343 85.9277 55.2343C87.9899 55.2343 89.6617 56.906 89.6617 58.9682Z" fill="url(#paint127_radial_52_1015)"/>
<path d="M103.353 58.9682C103.353 61.0304 101.681 62.7022 99.619 62.7022C97.5568 62.7022 95.885 61.0304 95.885 58.9682C95.885 56.906 97.5568 55.2343 99.619 55.2343C101.681 55.2343 103.353 56.906 103.353 58.9682Z" fill="url(#paint128_radial_52_1015)"/>
<path d="M117.044 58.9682C117.044 61.0304 115.372 62.7022 113.31 62.7022C111.248 62.7022 109.576 61.0304 109.576 58.9682C109.576 56.906 111.248 55.2343 113.31 55.2343C115.372 55.2343 117.044 56.906 117.044 58.9682Z" fill="url(#paint129_radial_52_1015)"/>
<path d="M130.736 58.9682C130.736 61.0304 129.064 62.7022 127.002 62.7022C124.939 62.7022 123.268 61.0304 123.268 58.9682C123.268 56.906 124.939 55.2343 127.002 55.2343C129.064 55.2343 130.736 56.906 130.736 58.9682Z" fill="url(#paint130_radial_52_1015)"/>
<path d="M144.426 58.9682C144.426 61.0304 142.755 62.7022 140.692 62.7022C138.63 62.7022 136.958 61.0304 136.958 58.9682C136.958 56.906 138.63 55.2343 140.692 55.2343C142.755 55.2343 144.426 56.906 144.426 58.9682Z" fill="url(#paint131_radial_52_1015)"/>
<path d="M158.118 58.9682C158.118 61.0304 156.446 62.7022 154.384 62.7022C152.322 62.7022 150.65 61.0304 150.65 58.9682C150.65 56.906 152.322 55.2343 154.384 55.2343C156.446 55.2343 158.118 56.906 158.118 58.9682Z" fill="url(#paint132_radial_52_1015)"/>
<path d="M171.809 58.9682C171.809 61.0304 170.137 62.7022 168.075 62.7022C166.013 62.7022 164.341 61.0304 164.341 58.9682C164.341 56.906 166.013 55.2343 168.075 55.2343C170.137 55.2343 171.809 56.906 171.809 58.9682Z" fill="url(#paint133_radial_52_1015)"/>
<path d="M48.5882 72.6595C48.5882 74.7217 46.9164 76.3935 44.8542 76.3935C42.792 76.3935 41.1202 74.7217 41.1202 72.6595C41.1202 70.5973 42.792 68.9255 44.8542 68.9255C46.9164 68.9255 48.5882 70.5973 48.5882 72.6595Z" fill="url(#paint134_radial_52_1015)"/>
<path d="M62.2795 72.6595C62.2795 74.7217 60.6077 76.3935 58.5455 76.3935C56.4833 76.3935 54.8115 74.7217 54.8115 72.6595C54.8115 70.5973 56.4833 68.9255 58.5455 68.9255C60.6077 68.9255 62.2795 70.5973 62.2795 72.6595Z" fill="url(#paint135_radial_52_1015)"/>
<path d="M75.9704 72.6595C75.9704 74.7217 74.2986 76.3935 72.2364 76.3935C70.1742 76.3935 68.5024 74.7217 68.5024 72.6595C68.5024 70.5973 70.1742 68.9255 72.2364 68.9255C74.2986 68.9255 75.9704 70.5973 75.9704 72.6595Z" fill="url(#paint136_radial_52_1015)"/>
<path d="M89.6617 72.6595C89.6617 74.7217 87.9899 76.3935 85.9277 76.3935C83.8655 76.3935 82.1937 74.7217 82.1937 72.6595C82.1937 70.5973 83.8655 68.9255 85.9277 68.9255C87.9899 68.9255 89.6617 70.5973 89.6617 72.6595Z" fill="url(#paint137_radial_52_1015)"/>
<path d="M103.353 72.6595C103.353 74.7217 101.681 76.3935 99.619 76.3935C97.5568 76.3935 95.885 74.7217 95.885 72.6595C95.885 70.5973 97.5568 68.9255 99.619 68.9255C101.681 68.9255 103.353 70.5973 103.353 72.6595Z" fill="url(#paint138_radial_52_1015)"/>
<path d="M117.044 72.6595C117.044 74.7217 115.372 76.3935 113.31 76.3935C111.248 76.3935 109.576 74.7217 109.576 72.6595C109.576 70.5973 111.248 68.9255 113.31 68.9255C115.372 68.9255 117.044 70.5973 117.044 72.6595Z" fill="url(#paint139_radial_52_1015)"/>
<path d="M130.736 72.6595C130.736 74.7217 129.064 76.3935 127.002 76.3935C124.939 76.3935 123.268 74.7217 123.268 72.6595C123.268 70.5973 124.939 68.9255 127.002 68.9255C129.064 68.9255 130.736 70.5973 130.736 72.6595Z" fill="url(#paint140_radial_52_1015)"/>
<path d="M144.426 72.6595C144.426 74.7217 142.755 76.3935 140.692 76.3935C138.63 76.3935 136.958 74.7217 136.958 72.6595C136.958 70.5973 138.63 68.9255 140.692 68.9255C142.755 68.9255 144.426 70.5973 144.426 72.6595Z" fill="url(#paint141_radial_52_1015)"/>
<path d="M75.9704 86.3508C75.9704 88.413 74.2986 90.0848 72.2364 90.0848C70.1742 90.0848 68.5024 88.413 68.5024 86.3508C68.5024 84.2886 70.1742 82.6168 72.2364 82.6168C74.2986 82.6168 75.9704 84.2886 75.9704 86.3508Z" fill="url(#paint142_radial_52_1015)"/>
<path d="M89.6617 86.3508C89.6617 88.413 87.9899 90.0848 85.9277 90.0848C83.8655 90.0848 82.1937 88.413 82.1937 86.3508C82.1937 84.2886 83.8655 82.6168 85.9277 82.6168C87.9899 82.6168 89.6617 84.2886 89.6617 86.3508Z" fill="url(#paint143_radial_52_1015)"/>
<path d="M103.353 86.3508C103.353 88.413 101.681 90.0848 99.619 90.0848C97.5568 90.0848 95.885 88.413 95.885 86.3508C95.885 84.2886 97.5568 82.6168 99.619 82.6168C101.681 82.6168 103.353 84.2886 103.353 86.3508Z" fill="url(#paint144_radial_52_1015)"/>
<path d="M117.044 86.3508C117.044 88.413 115.372 90.0848 113.31 90.0848C111.248 90.0848 109.576 88.413 109.576 86.3508C109.576 84.2886 111.248 82.6168 113.31 82.6168C115.372 82.6168 117.044 84.2886 117.044 86.3508Z" fill="url(#paint145_radial_52_1015)"/>
</g>
<defs>
<radialGradient id="paint0_radial_52_1015" cx="0" cy="0" r="1" gradientUnits="userSpaceOnUse" gradientTransform="translate(92.7733 4.20345) rotate(90) scale(85.8813 92.727)">
<stop stop-color="white"/>
<stop offset="1" stop-color="white" stop-opacity="0"/>
</radialGradient>
<radialGradient id="paint1_radial_52_1015" cx="0" cy="0" r="1" gradientUnits="userSpaceOnUse" gradientTransform="translate(92.7733 4.20345) rotate(90) scale(85.8813 92.727)">
<stop stop-color="white"/>
<stop offset="1" stop-color="white" stop-opacity="0"/>
</radialGradient>
<radialGradient id="paint2_radial_52_1015" cx="0" cy="0" r="1" gradientUnits="userSpaceOnUse" gradientTransform="translate(92.7733 4.20345) rotate(90) scale(85.8813 92.727)">
<stop stop-color="white"/>
<stop offset="1" stop-color="white" stop-opacity="0"/>
</radialGradient>
<radialGradient id="paint3_radial_52_1015" cx="0" cy="0" r="1" gradientUnits="userSpaceOnUse" gradientTransform="translate(92.7733 4.20345) rotate(90) scale(85.8813 92.727)">
<stop stop-color="white"/>
<stop offset="1" stop-color="white" stop-opacity="0"/>
</radialGradient>
<radialGradient id="paint4_radial_52_1015" cx="0" cy="0" r="1" gradientUnits="userSpaceOnUse" gradientTransform="translate(92.7733 4.20345) rotate(90) scale(85.8813 92.727)">
<stop stop-color="white"/>
<stop offset="1" stop-color="white" stop-opacity="0"/>
</radialGradient>
<radialGradient id="paint5_radial_52_1015" cx="0" cy="0" r="1" gradientUnits="userSpaceOnUse" gradientTransform="translate(92.7733 4.20345) rotate(90) scale(85.8813 92.727)">
<stop stop-color="white"/>
<stop offset="1" stop-color="white" stop-opacity="0"/>
</radialGradient>
<radialGradient id="paint6_radial_52_1015" cx="0" cy="0" r="1" gradientUnits="userSpaceOnUse" gradientTransform="translate(92.7733 4.20345) rotate(90) scale(85.8813 92.727)">
<stop stop-color="white"/>
<stop offset="1" stop-color="white" stop-opacity="0"/>
</radialGradient>
<radialGradient id="paint7_radial_52_1015" cx="0" cy="0" r="1" gradientUnits="userSpaceOnUse" gradientTransform="translate(92.7733 4.20345) rotate(90) scale(85.8813 92.727)">
<stop stop-color="white"/>
<stop offset="1" stop-color="white" stop-opacity="0"/>
</radialGradient>
<radialGradient id="paint8_radial_52_1015" cx="0" cy="0" r="1" gradientUnits="userSpaceOnUse" gradientTransform="translate(92.7733 4.20345) rotate(90) scale(85.8813 92.727)">
<stop stop-color="white"/>
<stop offset="1" stop-color="white" stop-opacity="0"/>
</radialGradient>
<radialGradient id="paint9_radial_52_1015" cx="0" cy="0" r="1" gradientUnits="userSpaceOnUse" gradientTransform="translate(92.7733 4.20345) rotate(90) scale(85.8813 92.727)">
<stop stop-color="white"/>
<stop offset="1" stop-color="white" stop-opacity="0"/>
</radialGradient>
<radialGradient id="paint10_radial_52_1015" cx="0" cy="0" r="1" gradientUnits="userSpaceOnUse" gradientTransform="translate(92.7733 4.20345) rotate(90) scale(85.8813 92.727)">
<stop stop-color="white"/>
<stop offset="1" stop-color="white" stop-opacity="0"/>
</radialGradient>
<radialGradient id="paint11_radial_52_1015" cx="0" cy="0" r="1" gradientUnits="userSpaceOnUse" gradientTransform="translate(92.7733 4.20345) rotate(90) scale(85.8813 92.727)">
<stop stop-color="white"/>
<stop offset="1" stop-color="white" stop-opacity="0"/>
</radialGradient>
<radialGradient id="paint12_radial_52_1015" cx="0" cy="0" r="1" gradientUnits="userSpaceOnUse" gradientTransform="translate(92.7733 4.20345) rotate(90) scale(85.8813 92.727)">
<stop stop-color="white"/>
<stop offset="1" stop-color="white" stop-opacity="0"/>
</radialGradient>
<radialGradient id="paint13_radial_52_1015" cx="0" cy="0" r="1" gradientUnits="userSpaceOnUse" gradientTransform="translate(92.7733 4.20345) rotate(90) scale(85.8813 92.727)">
<stop stop-color="white"/>
<stop offset="1" stop-color="white" stop-opacity="0"/>
</radialGradient>
<radialGradient id="paint14_radial_52_1015" cx="0" cy="0" r="1" gradientUnits="userSpaceOnUse" gradientTransform="translate(92.7733 4.20345) rotate(90) scale(85.8813 92.727)">
<stop stop-color="white"/>
<stop offset="1" stop-color="white" stop-opacity="0"/>
</radialGradient>
<radialGradient id="paint15_radial_52_1015" cx="0" cy="0" r="1" gradientUnits="userSpaceOnUse" gradientTransform="translate(92.7733 4.20345) rotate(90) scale(85.8813 92.727)">
<stop stop-color="white"/>
<stop offset="1" stop-color="white" stop-opacity="0"/>
</radialGradient>
<radialGradient id="paint16_radial_52_1015" cx="0" cy="0" r="1" gradientUnits="userSpaceOnUse" gradientTransform="translate(92.7733 4.20345) rotate(90) scale(85.8813 92.727)">
<stop stop-color="white"/>
<stop offset="1" stop-color="white" stop-opacity="0"/>
</radialGradient>
<radialGradient id="paint17_radial_52_1015" cx="0" cy="0" r="1" gradientUnits="userSpaceOnUse" gradientTransform="translate(92.7733 4.20345) rotate(90) scale(85.8813 92.727)">
<stop stop-color="white"/>
<stop offset="1" stop-color="white" stop-opacity="0"/>
</radialGradient>
<radialGradient id="paint18_radial_52_1015" cx="0" cy="0" r="1" gradientUnits="userSpaceOnUse" gradientTransform="translate(92.7733 4.20345) rotate(90) scale(85.8813 92.727)">
<stop stop-color="white"/>
<stop offset="1" stop-color="white" stop-opacity="0"/>
</radialGradient>
<radialGradient id="paint19_radial_52_1015" cx="0" cy="0" r="1" gradientUnits="userSpaceOnUse" gradientTransform="translate(92.7733 4.20345) rotate(90) scale(85.8813 92.727)">
<stop stop-color="white"/>
<stop offset="1" stop-color="white" stop-opacity="0"/>
</radialGradient>
<radialGradient id="paint20_radial_52_1015" cx="0" cy="0" r="1" gradientUnits="userSpaceOnUse" gradientTransform="translate(92.7733 4.20345) rotate(90) scale(85.8813 92.727)">
<stop stop-color="white"/>
<stop offset="1" stop-color="white" stop-opacity="0"/>
</radialGradient>
<radialGradient id="paint21_radial_52_1015" cx="0" cy="0" r="1" gradientUnits="userSpaceOnUse" gradientTransform="translate(92.7733 4.20345) rotate(90) scale(85.8813 92.727)">
<stop stop-color="white"/>
<stop offset="1" stop-color="white" stop-opacity="0"/>
</radialGradient>
<radialGradient id="paint22_radial_52_1015" cx="0" cy="0" r="1" gradientUnits="userSpaceOnUse" gradientTransform="translate(92.7733 4.20345) rotate(90) scale(85.8813 92.727)">
<stop stop-color="white"/>
<stop offset="1" stop-color="white" stop-opacity="0"/>
</radialGradient>
<radialGradient id="paint23_radial_52_1015" cx="0" cy="0" r="1" gradientUnits="userSpaceOnUse" gradientTransform="translate(92.7733 4.20345) rotate(90) scale(85.8813 92.727)">
<stop stop-color="white"/>
<stop offset="1" stop-color="white" stop-opacity="0"/>
</radialGradient>
<radialGradient id="paint24_radial_52_1015" cx="0" cy="0" r="1" gradientUnits="userSpaceOnUse" gradientTransform="translate(92.7733 4.20345) rotate(90) scale(85.8813 92.727)">
<stop stop-color="white"/>
<stop offset="1" stop-color="white" stop-opacity="0"/>
</radialGradient>
<radialGradient id="paint25_radial_52_1015" cx="0" cy="0" r="1" gradientUnits="userSpaceOnUse" gradientTransform="translate(92.7733 4.20345) rotate(90) scale(85.8813 92.727)">
<stop stop-color="white"/>
<stop offset="1" stop-color="white" stop-opacity="0"/>
</radialGradient>
<radialGradient id="paint26_radial_52_1015" cx="0" cy="0" r="1" gradientUnits="userSpaceOnUse" gradientTransform="translate(92.7733 4.20345) rotate(90) scale(85.8813 92.727)">
<stop stop-color="white"/>
<stop offset="1" stop-color="white" stop-opacity="0"/>
</radialGradient>
<radialGradient id="paint27_radial_52_1015" cx="0" cy="0" r="1" gradientUnits="userSpaceOnUse" gradientTransform="translate(92.7733 4.20345) rotate(90) scale(85.8813 92.727)">
<stop stop-color="white"/>
<stop offset="1" stop-color="white" stop-opacity="0"/>
</radialGradient>
<radialGradient id="paint28_radial_52_1015" cx="0" cy="0" r="1" gradientUnits="userSpaceOnUse" gradientTransform="translate(92.7733 4.20345) rotate(90) scale(85.8813 92.727)">
<stop stop-color="white"/>
<stop offset="1" stop-color="white" stop-opacity="0"/>
</radialGradient>
<radialGradient id="paint29_radial_52_1015" cx="0" cy="0" r="1" gradientUnits="userSpaceOnUse" gradientTransform="translate(92.7733 4.20345) rotate(90) scale(85.8813 92.727)">
<stop stop-color="white"/>
<stop offset="1" stop-color="white" stop-opacity="0"/>
</radialGradient>
<radialGradient id="paint30_radial_52_1015" cx="0" cy="0" r="1" gradientUnits="userSpaceOnUse" gradientTransform="translate(92.7733 4.20345) rotate(90) scale(85.8813 92.727)">
<stop stop-color="white"/>
<stop offset="1" stop-color="white" stop-opacity="0"/>
</radialGradient>
<radialGradient id="paint31_radial_52_1015" cx="0" cy="0" r="1" gradientUnits="userSpaceOnUse" gradientTransform="translate(92.7733 4.20345) rotate(90) scale(85.8813 92.727)">
<stop stop-color="white"/>
<stop offset="1" stop-color="white" stop-opacity="0"/>
</radialGradient>
<radialGradient id="paint32_radial_52_1015" cx="0" cy="0" r="1" gradientUnits="userSpaceOnUse" gradientTransform="translate(92.7733 4.20345) rotate(90) scale(85.8813 92.727)">
<stop stop-color="white"/>
<stop offset="1" stop-color="white" stop-opacity="0"/>
</radialGradient>
<radialGradient id="paint33_radial_52_1015" cx="0" cy="0" r="1" gradientUnits="userSpaceOnUse" gradientTransform="translate(92.7733 4.20345) rotate(90) scale(85.8813 92.727)">
<stop stop-color="white"/>
<stop offset="1" stop-color="white" stop-opacity="0"/>
</radialGradient>
<radialGradient id="paint34_radial_52_1015" cx="0" cy="0" r="1" gradientUnits="userSpaceOnUse" gradientTransform="translate(92.7733 4.20345) rotate(90) scale(85.8813 92.727)">
<stop stop-color="white"/>
<stop offset="1" stop-color="white" stop-opacity="0"/>
</radialGradient>
<radialGradient id="paint35_radial_52_1015" cx="0" cy="0" r="1" gradientUnits="userSpaceOnUse" gradientTransform="translate(92.7733 4.20345) rotate(90) scale(85.8813 92.727)">
<stop stop-color="white"/>
<stop offset="1" stop-color="white" stop-opacity="0"/>
</radialGradient>
<radialGradient id="paint36_radial_52_1015" cx="0" cy="0" r="1" gradientUnits="userSpaceOnUse" gradientTransform="translate(92.7733 4.20345) rotate(90) scale(85.8813 92.727)">
<stop stop-color="white"/>
<stop offset="1" stop-color="white" stop-opacity="0"/>
</radialGradient>
<radialGradient id="paint37_radial_52_1015" cx="0" cy="0" r="1" gradientUnits="userSpaceOnUse" gradientTransform="translate(92.7733 4.20345) rotate(90) scale(85.8813 92.727)">
<stop stop-color="white"/>
<stop offset="1" stop-color="white" stop-opacity="0"/>
</radialGradient>
<radialGradient id="paint38_radial_52_1015" cx="0" cy="0" r="1" gradientUnits="userSpaceOnUse" gradientTransform="translate(92.7733 4.20345) rotate(90) scale(85.8813 92.727)">
<stop stop-color="white"/>
<stop offset="1" stop-color="white" stop-opacity="0"/>
</radialGradient>
<radialGradient id="paint39_radial_52_1015" cx="0" cy="0" r="1" gradientUnits="userSpaceOnUse" gradientTransform="translate(92.7733 4.20345) rotate(90) scale(85.8813 92.727)">
<stop stop-color="white"/>
<stop offset="1" stop-color="white" stop-opacity="0"/>
</radialGradient>
<radialGradient id="paint40_radial_52_1015" cx="0" cy="0" r="1" gradientUnits="userSpaceOnUse" gradientTransform="translate(92.7733 4.20345) rotate(90) scale(85.8813 92.727)">
<stop stop-color="white"/>
<stop offset="1" stop-color="white" stop-opacity="0"/>
</radialGradient>
<radialGradient id="paint41_radial_52_1015" cx="0" cy="0" r="1" gradientUnits="userSpaceOnUse" gradientTransform="translate(92.7733 4.20345) rotate(90) scale(85.8813 92.727)">
<stop stop-color="white"/>
<stop offset="1" stop-color="white" stop-opacity="0"/>
</radialGradient>
<radialGradient id="paint42_radial_52_1015" cx="0" cy="0" r="1" gradientUnits="userSpaceOnUse" gradientTransform="translate(92.7733 4.20345) rotate(90) scale(85.8813 92.727)">
<stop stop-color="white"/>
<stop offset="1" stop-color="white" stop-opacity="0"/>
</radialGradient>
<radialGradient id="paint43_radial_52_1015" cx="0" cy="0" r="1" gradientUnits="userSpaceOnUse" gradientTransform="translate(92.7733 4.20345) rotate(90) scale(85.8813 92.727)">
<stop stop-color="white"/>
<stop offset="1" stop-color="white" stop-opacity="0"/>
</radialGradient>
<radialGradient id="paint44_radial_52_1015" cx="0" cy="0" r="1" gradientUnits="userSpaceOnUse" gradientTransform="translate(92.7733 4.20345) rotate(90) scale(85.8813 92.727)">
<stop stop-color="white"/>
<stop offset="1" stop-color="white" stop-opacity="0"/>
</radialGradient>
<radialGradient id="paint45_radial_52_1015" cx="0" cy="0" r="1" gradientUnits="userSpaceOnUse" gradientTransform="translate(92.7733 4.20345) rotate(90) scale(85.8813 92.727)">
<stop stop-color="white"/>
<stop offset="1" stop-color="white" stop-opacity="0"/>
</radialGradient>
<radialGradient id="paint46_radial_52_1015" cx="0" cy="0" r="1" gradientUnits="userSpaceOnUse" gradientTransform="translate(92.7733 4.20345) rotate(90) scale(85.8813 92.727)">
<stop stop-color="white"/>
<stop offset="1" stop-color="white" stop-opacity="0"/>
</radialGradient>
<radialGradient id="paint47_radial_52_1015" cx="0" cy="0" r="1" gradientUnits="userSpaceOnUse" gradientTransform="translate(92.7733 4.20345) rotate(90) scale(85.8813 92.727)">
<stop stop-color="white"/>
<stop offset="1" stop-color="white" stop-opacity="0"/>
</radialGradient>
<radialGradient id="paint48_radial_52_1015" cx="0" cy="0" r="1" gradientUnits="userSpaceOnUse" gradientTransform="translate(92.7733 4.20345) rotate(90) scale(85.8813 92.727)">
<stop stop-color="white"/>
<stop offset="1" stop-color="white" stop-opacity="0"/>
</radialGradient>
<radialGradient id="paint49_radial_52_1015" cx="0" cy="0" r="1" gradientUnits="userSpaceOnUse" gradientTransform="translate(92.7733 4.20345) rotate(90) scale(85.8813 92.727)">
<stop stop-color="white"/>
<stop offset="1" stop-color="white" stop-opacity="0"/>
</radialGradient>
<radialGradient id="paint50_radial_52_1015" cx="0" cy="0" r="1" gradientUnits="userSpaceOnUse" gradientTransform="translate(92.7733 4.20345) rotate(90) scale(85.8813 92.727)">
<stop stop-color="white"/>
<stop offset="1" stop-color="white" stop-opacity="0"/>
</radialGradient>
<radialGradient id="paint51_radial_52_1015" cx="0" cy="0" r="1" gradientUnits="userSpaceOnUse" gradientTransform="translate(92.7733 4.20345) rotate(90) scale(85.8813 92.727)">
<stop stop-color="white"/>
<stop offset="1" stop-color="white" stop-opacity="0"/>
</radialGradient>
<radialGradient id="paint52_radial_52_1015" cx="0" cy="0" r="1" gradientUnits="userSpaceOnUse" gradientTransform="translate(92.7733 4.20345) rotate(90) scale(85.8813 92.727)">
<stop stop-color="white"/>
<stop offset="1" stop-color="white" stop-opacity="0"/>
</radialGradient>
<radialGradient id="paint53_radial_52_1015" cx="0" cy="0" r="1" gradientUnits="userSpaceOnUse" gradientTransform="translate(92.7733 4.20345) rotate(90) scale(85.8813 92.727)">
<stop stop-color="white"/>
<stop offset="1" stop-color="white" stop-opacity="0"/>
</radialGradient>
<radialGradient id="paint54_radial_52_1015" cx="0" cy="0" r="1" gradientUnits="userSpaceOnUse" gradientTransform="translate(92.7733 4.20345) rotate(90) scale(85.8813 92.727)">
<stop stop-color="white"/>
<stop offset="1" stop-color="white" stop-opacity="0"/>
</radialGradient>
<radialGradient id="paint55_radial_52_1015" cx="0" cy="0" r="1" gradientUnits="userSpaceOnUse" gradientTransform="translate(92.7733 4.20345) rotate(90) scale(85.8813 92.727)">
<stop stop-color="white"/>
<stop offset="1" stop-color="white" stop-opacity="0"/>
</radialGradient>
<radialGradient id="paint56_radial_52_1015" cx="0" cy="0" r="1" gradientUnits="userSpaceOnUse" gradientTransform="translate(92.7733 4.20345) rotate(90) scale(85.8813 92.727)">
<stop stop-color="white"/>
<stop offset="1" stop-color="white" stop-opacity="0"/>
</radialGradient>
<radialGradient id="paint57_radial_52_1015" cx="0" cy="0" r="1" gradientUnits="userSpaceOnUse" gradientTransform="translate(92.7733 4.20345) rotate(90) scale(85.8813 92.727)">
<stop stop-color="white"/>
<stop offset="1" stop-color="white" stop-opacity="0"/>
</radialGradient>
<radialGradient id="paint58_radial_52_1015" cx="0" cy="0" r="1" gradientUnits="userSpaceOnUse" gradientTransform="translate(92.7733 4.20345) rotate(90) scale(85.8813 92.727)">
<stop stop-color="white"/>
<stop offset="1" stop-color="white" stop-opacity="0"/>
</radialGradient>
<radialGradient id="paint59_radial_52_1015" cx="0" cy="0" r="1" gradientUnits="userSpaceOnUse" gradientTransform="translate(92.7733 4.20345) rotate(90) scale(85.8813 92.727)">
<stop stop-color="white"/>
<stop offset="1" stop-color="white" stop-opacity="0"/>
</radialGradient>
<radialGradient id="paint60_radial_52_1015" cx="0" cy="0" r="1" gradientUnits="userSpaceOnUse" gradientTransform="translate(92.7733 4.20345) rotate(90) scale(85.8813 92.727)">
<stop stop-color="white"/>
<stop offset="1" stop-color="white" stop-opacity="0"/>
</radialGradient>
<radialGradient id="paint61_radial_52_1015" cx="0" cy="0" r="1" gradientUnits="userSpaceOnUse" gradientTransform="translate(92.7733 4.20345) rotate(90) scale(85.8813 92.727)">
<stop stop-color="white"/>
<stop offset="1" stop-color="white" stop-opacity="0"/>
</radialGradient>
<radialGradient id="paint62_radial_52_1015" cx="0" cy="0" r="1" gradientUnits="userSpaceOnUse" gradientTransform="translate(92.7733 4.20345) rotate(90) scale(85.8813 92.727)">
<stop stop-color="white"/>
<stop offset="1" stop-color="white" stop-opacity="0"/>
</radialGradient>
<radialGradient id="paint63_radial_52_1015" cx="0" cy="0" r="1" gradientUnits="userSpaceOnUse" gradientTransform="translate(92.7733 4.20345) rotate(90) scale(85.8813 92.727)">
<stop stop-color="white"/>
<stop offset="1" stop-color="white" stop-opacity="0"/>
</radialGradient>
<radialGradient id="paint64_radial_52_1015" cx="0" cy="0" r="1" gradientUnits="userSpaceOnUse" gradientTransform="translate(92.7733 4.20345) rotate(90) scale(85.8813 92.727)">
<stop stop-color="white"/>
<stop offset="1" stop-color="white" stop-opacity="0"/>
</radialGradient>
<radialGradient id="paint65_radial_52_1015" cx="0" cy="0" r="1" gradientUnits="userSpaceOnUse" gradientTransform="translate(92.7733 4.20345) rotate(90) scale(85.8813 92.727)">
<stop stop-color="white"/>
<stop offset="1" stop-color="white" stop-opacity="0"/>
</radialGradient>
<radialGradient id="paint66_radial_52_1015" cx="0" cy="0" r="1" gradientUnits="userSpaceOnUse" gradientTransform="translate(92.7733 4.20345) rotate(90) scale(85.8813 92.727)">
<stop stop-color="white"/>
<stop offset="1" stop-color="white" stop-opacity="0"/>
</radialGradient>
<radialGradient id="paint67_radial_52_1015" cx="0" cy="0" r="1" gradientUnits="userSpaceOnUse" gradientTransform="translate(92.7733 4.20345) rotate(90) scale(85.8813 92.727)">
<stop stop-color="white"/>
<stop offset="1" stop-color="white" stop-opacity="0"/>
</radialGradient>
<radialGradient id="paint68_radial_52_1015" cx="0" cy="0" r="1" gradientUnits="userSpaceOnUse" gradientTransform="translate(92.7733 4.20345) rotate(90) scale(85.8813 92.727)">
<stop stop-color="white"/>
<stop offset="1" stop-color="white" stop-opacity="0"/>
</radialGradient>
<radialGradient id="paint69_radial_52_1015" cx="0" cy="0" r="1" gradientUnits="userSpaceOnUse" gradientTransform="translate(92.7733 4.20345) rotate(90) scale(85.8813 92.727)">
<stop stop-color="white"/>
<stop offset="1" stop-color="white" stop-opacity="0"/>
</radialGradient>
<radialGradient id="paint70_radial_52_1015" cx="0" cy="0" r="1" gradientUnits="userSpaceOnUse" gradientTransform="translate(92.7733 4.20345) rotate(90) scale(85.8813 92.727)">
<stop stop-color="white"/>
<stop offset="1" stop-color="white" stop-opacity="0"/>
</radialGradient>
<radialGradient id="paint71_radial_52_1015" cx="0" cy="0" r="1" gradientUnits="userSpaceOnUse" gradientTransform="translate(92.7733 4.20345) rotate(90) scale(85.8813 92.727)">
<stop stop-color="white"/>
<stop offset="1" stop-color="white" stop-opacity="0"/>
</radialGradient>
<radialGradient id="paint72_radial_52_1015" cx="0" cy="0" r="1" gradientUnits="userSpaceOnUse" gradientTransform="translate(92.7733 4.20345) rotate(90) scale(85.8813 92.727)">
<stop stop-color="white"/>
<stop offset="1" stop-color="white" stop-opacity="0"/>
</radialGradient>
<radialGradient id="paint73_radial_52_1015" cx="0" cy="0" r="1" gradientUnits="userSpaceOnUse" gradientTransform="translate(92.7733 4.20345) rotate(90) scale(85.8813 92.727)">
<stop stop-color="white"/>
<stop offset="1" stop-color="white" stop-opacity="0"/>
</radialGradient>
<radialGradient id="paint74_radial_52_1015" cx="0" cy="0" r="1" gradientUnits="userSpaceOnUse" gradientTransform="translate(92.7733 4.20345) rotate(90) scale(85.8813 92.727)">
<stop stop-color="white"/>
<stop offset="1" stop-color="white" stop-opacity="0"/>
</radialGradient>
<radialGradient id="paint75_radial_52_1015" cx="0" cy="0" r="1" gradientUnits="userSpaceOnUse" gradientTransform="translate(92.7733 4.20345) rotate(90) scale(85.8813 92.727)">
<stop stop-color="white"/>
<stop offset="1" stop-color="white" stop-opacity="0"/>
</radialGradient>
<radialGradient id="paint76_radial_52_1015" cx="0" cy="0" r="1" gradientUnits="userSpaceOnUse" gradientTransform="translate(92.7733 4.20345) rotate(90) scale(85.8813 92.727)">
<stop stop-color="white"/>
<stop offset="1" stop-color="white" stop-opacity="0"/>
</radialGradient>
<radialGradient id="paint77_radial_52_1015" cx="0" cy="0" r="1" gradientUnits="userSpaceOnUse" gradientTransform="translate(92.7733 4.20345) rotate(90) scale(85.8813 92.727)">
<stop stop-color="white"/>
<stop offset="1" stop-color="white" stop-opacity="0"/>
</radialGradient>
<radialGradient id="paint78_radial_52_1015" cx="0" cy="0" r="1" gradientUnits="userSpaceOnUse" gradientTransform="translate(92.7733 4.20345) rotate(90) scale(85.8813 92.727)">
<stop stop-color="white"/>
<stop offset="1" stop-color="white" stop-opacity="0"/>
</radialGradient>
<radialGradient id="paint79_radial_52_1015" cx="0" cy="0" r="1" gradientUnits="userSpaceOnUse" gradientTransform="translate(92.7733 4.20345) rotate(90) scale(85.8813 92.727)">
<stop stop-color="white"/>
<stop offset="1" stop-color="white" stop-opacity="0"/>
</radialGradient>
<radialGradient id="paint80_radial_52_1015" cx="0" cy="0" r="1" gradientUnits="userSpaceOnUse" gradientTransform="translate(92.7733 4.20345) rotate(90) scale(85.8813 92.727)">
<stop stop-color="white"/>
<stop offset="1" stop-color="white" stop-opacity="0"/>
</radialGradient>
<radialGradient id="paint81_radial_52_1015" cx="0" cy="0" r="1" gradientUnits="userSpaceOnUse" gradientTransform="translate(92.7733 4.20345) rotate(90) scale(85.8813 92.727)">
<stop stop-color="white"/>
<stop offset="1" stop-color="white" stop-opacity="0"/>
</radialGradient>
<radialGradient id="paint82_radial_52_1015" cx="0" cy="0" r="1" gradientUnits="userSpaceOnUse" gradientTransform="translate(92.7733 4.20345) rotate(90) scale(85.8813 92.727)">
<stop stop-color="white"/>
<stop offset="1" stop-color="white" stop-opacity="0"/>
</radialGradient>
<radialGradient id="paint83_radial_52_1015" cx="0" cy="0" r="1" gradientUnits="userSpaceOnUse" gradientTransform="translate(92.7733 4.20345) rotate(90) scale(85.8813 92.727)">
<stop stop-color="white"/>
<stop offset="1" stop-color="white" stop-opacity="0"/>
</radialGradient>
<radialGradient id="paint84_radial_52_1015" cx="0" cy="0" r="1" gradientUnits="userSpaceOnUse" gradientTransform="translate(92.7733 4.20345) rotate(90) scale(85.8813 92.727)">
<stop stop-color="white"/>
<stop offset="1" stop-color="white" stop-opacity="0"/>
</radialGradient>
<radialGradient id="paint85_radial_52_1015" cx="0" cy="0" r="1" gradientUnits="userSpaceOnUse" gradientTransform="translate(92.7733 4.20345) rotate(90) scale(85.8813 92.727)">
<stop stop-color="white"/>
<stop offset="1" stop-color="white" stop-opacity="0"/>
</radialGradient>
<radialGradient id="paint86_radial_52_1015" cx="0" cy="0" r="1" gradientUnits="userSpaceOnUse" gradientTransform="translate(92.7733 4.20345) rotate(90) scale(85.8813 92.727)">
<stop stop-color="white"/>
<stop offset="1" stop-color="white" stop-opacity="0"/>
</radialGradient>
<radialGradient id="paint87_radial_52_1015" cx="0" cy="0" r="1" gradientUnits="userSpaceOnUse" gradientTransform="translate(92.7733 4.20345) rotate(90) scale(85.8813 92.727)">
<stop stop-color="white"/>
<stop offset="1" stop-color="white" stop-opacity="0"/>
</radialGradient>
<radialGradient id="paint88_radial_52_1015" cx="0" cy="0" r="1" gradientUnits="userSpaceOnUse" gradientTransform="translate(92.7733 4.20345) rotate(90) scale(85.8813 92.727)">
<stop stop-color="white"/>
<stop offset="1" stop-color="white" stop-opacity="0"/>
</radialGradient>
<radialGradient id="paint89_radial_52_1015" cx="0" cy="0" r="1" gradientUnits="userSpaceOnUse" gradientTransform="translate(92.7733 4.20345) rotate(90) scale(85.8813 92.727)">
<stop stop-color="white"/>
<stop offset="1" stop-color="white" stop-opacity="0"/>
</radialGradient>
<radialGradient id="paint90_radial_52_1015" cx="0" cy="0" r="1" gradientUnits="userSpaceOnUse" gradientTransform="translate(92.7733 4.20345) rotate(90) scale(85.8813 92.727)">
<stop stop-color="white"/>
<stop offset="1" stop-color="white" stop-opacity="0"/>
</radialGradient>
<radialGradient id="paint91_radial_52_1015" cx="0" cy="0" r="1" gradientUnits="userSpaceOnUse" gradientTransform="translate(92.7733 4.20345) rotate(90) scale(85.8813 92.727)">
<stop stop-color="white"/>
<stop offset="1" stop-color="white" stop-opacity="0"/>
</radialGradient>
<radialGradient id="paint92_radial_52_1015" cx="0" cy="0" r="1" gradientUnits="userSpaceOnUse" gradientTransform="translate(92.7733 4.20345) rotate(90) scale(85.8813 92.727)">
<stop stop-color="white"/>
<stop offset="1" stop-color="white" stop-opacity="0"/>
</radialGradient>
<radialGradient id="paint93_radial_52_1015" cx="0" cy="0" r="1" gradientUnits="userSpaceOnUse" gradientTransform="translate(92.7733 4.20345) rotate(90) scale(85.8813 92.727)">
<stop stop-color="white"/>
<stop offset="1" stop-color="white" stop-opacity="0"/>
</radialGradient>
<radialGradient id="paint94_radial_52_1015" cx="0" cy="0" r="1" gradientUnits="userSpaceOnUse" gradientTransform="translate(92.7733 4.20345) rotate(90) scale(85.8813 92.727)">
<stop stop-color="white"/>
<stop offset="1" stop-color="white" stop-opacity="0"/>
</radialGradient>
<radialGradient id="paint95_radial_52_1015" cx="0" cy="0" r="1" gradientUnits="userSpaceOnUse" gradientTransform="translate(92.7733 4.20345) rotate(90) scale(85.8813 92.727)">
<stop stop-color="white"/>
<stop offset="1" stop-color="white" stop-opacity="0"/>
</radialGradient>
<radialGradient id="paint96_radial_52_1015" cx="0" cy="0" r="1" gradientUnits="userSpaceOnUse" gradientTransform="translate(92.7733 4.20345) rotate(90) scale(85.8813 92.727)">
<stop stop-color="white"/>
<stop offset="1" stop-color="white" stop-opacity="0"/>
</radialGradient>
<radialGradient id="paint97_radial_52_1015" cx="0" cy="0" r="1" gradientUnits="userSpaceOnUse" gradientTransform="translate(92.7733 4.20345) rotate(90) scale(85.8813 92.727)">
<stop stop-color="white"/>
<stop offset="1" stop-color="white" stop-opacity="0"/>
</radialGradient>
<radialGradient id="paint98_radial_52_1015" cx="0" cy="0" r="1" gradientUnits="userSpaceOnUse" gradientTransform="translate(92.7733 4.20345) rotate(90) scale(85.8813 92.727)">
<stop stop-color="white"/>
<stop offset="1" stop-color="white" stop-opacity="0"/>
</radialGradient>
<radialGradient id="paint99_radial_52_1015" cx="0" cy="0" r="1" gradientUnits="userSpaceOnUse" gradientTransform="translate(92.7733 4.20345) rotate(90) scale(85.8813 92.727)">
<stop stop-color="white"/>
<stop offset="1" stop-color="white" stop-opacity="0"/>
</radialGradient>
<radialGradient id="paint100_radial_52_1015" cx="0" cy="0" r="1" gradientUnits="userSpaceOnUse" gradientTransform="translate(92.7733 4.20345) rotate(90) scale(85.8813 92.727)">
<stop stop-color="white"/>
<stop offset="1" stop-color="white" stop-opacity="0"/>
</radialGradient>
<radialGradient id="paint101_radial_52_1015" cx="0" cy="0" r="1" gradientUnits="userSpaceOnUse" gradientTransform="translate(92.7733 4.20345) rotate(90) scale(85.8813 92.727)">
<stop stop-color="white"/>
<stop offset="1" stop-color="white" stop-opacity="0"/>
</radialGradient>
<radialGradient id="paint102_radial_52_1015" cx="0" cy="0" r="1" gradientUnits="userSpaceOnUse" gradientTransform="translate(92.7733 4.20345) rotate(90) scale(85.8813 92.727)">
<stop stop-color="white"/>
<stop offset="1" stop-color="white" stop-opacity="0"/>
</radialGradient>
<radialGradient id="paint103_radial_52_1015" cx="0" cy="0" r="1" gradientUnits="userSpaceOnUse" gradientTransform="translate(92.7733 4.20345) rotate(90) scale(85.8813 92.727)">
<stop stop-color="white"/>
<stop offset="1" stop-color="white" stop-opacity="0"/>
</radialGradient>
<radialGradient id="paint104_radial_52_1015" cx="0" cy="0" r="1" gradientUnits="userSpaceOnUse" gradientTransform="translate(92.7733 4.20345) rotate(90) scale(85.8813 92.727)">
<stop stop-color="white"/>
<stop offset="1" stop-color="white" stop-opacity="0"/>
</radialGradient>
<radialGradient id="paint105_radial_52_1015" cx="0" cy="0" r="1" gradientUnits="userSpaceOnUse" gradientTransform="translate(92.7733 4.20345) rotate(90) scale(85.8813 92.727)">
<stop stop-color="white"/>
<stop offset="1" stop-color="white" stop-opacity="0"/>
</radialGradient>
<radialGradient id="paint106_radial_52_1015" cx="0" cy="0" r="1" gradientUnits="userSpaceOnUse" gradientTransform="translate(92.7733 4.20345) rotate(90) scale(85.8813 92.727)">
<stop stop-color="white"/>
<stop offset="1" stop-color="white" stop-opacity="0"/>
</radialGradient>
<radialGradient id="paint107_radial_52_1015" cx="0" cy="0" r="1" gradientUnits="userSpaceOnUse" gradientTransform="translate(92.7733 4.20345) rotate(90) scale(85.8813 92.727)">
<stop stop-color="white"/>
<stop offset="1" stop-color="white" stop-opacity="0"/>
</radialGradient>
<radialGradient id="paint108_radial_52_1015" cx="0" cy="0" r="1" gradientUnits="userSpaceOnUse" gradientTransform="translate(92.7733 4.20345) rotate(90) scale(85.8813 92.727)">
<stop stop-color="white"/>
<stop offset="1" stop-color="white" stop-opacity="0"/>
</radialGradient>
<radialGradient id="paint109_radial_52_1015" cx="0" cy="0" r="1" gradientUnits="userSpaceOnUse" gradientTransform="translate(92.7733 4.20345) rotate(90) scale(85.8813 92.727)">
<stop stop-color="white"/>
<stop offset="1" stop-color="white" stop-opacity="0"/>
</radialGradient>
<radialGradient id="paint110_radial_52_1015" cx="0" cy="0" r="1" gradientUnits="userSpaceOnUse" gradientTransform="translate(92.7733 4.20345) rotate(90) scale(85.8813 92.727)">
<stop stop-color="white"/>
<stop offset="1" stop-color="white" stop-opacity="0"/>
</radialGradient>
<radialGradient id="paint111_radial_52_1015" cx="0" cy="0" r="1" gradientUnits="userSpaceOnUse" gradientTransform="translate(92.7733 4.20345) rotate(90) scale(85.8813 92.727)">
<stop stop-color="white"/>
<stop offset="1" stop-color="white" stop-opacity="0"/>
</radialGradient>
<radialGradient id="paint112_radial_52_1015" cx="0" cy="0" r="1" gradientUnits="userSpaceOnUse" gradientTransform="translate(92.7733 4.20345) rotate(90) scale(85.8813 92.727)">
<stop stop-color="white"/>
<stop offset="1" stop-color="white" stop-opacity="0"/>
</radialGradient>
<radialGradient id="paint113_radial_52_1015" cx="0" cy="0" r="1" gradientUnits="userSpaceOnUse" gradientTransform="translate(92.7733 4.20345) rotate(90) scale(85.8813 92.727)">
<stop stop-color="white"/>
<stop offset="1" stop-color="white" stop-opacity="0"/>
</radialGradient>
<radialGradient id="paint114_radial_52_1015" cx="0" cy="0" r="1" gradientUnits="userSpaceOnUse" gradientTransform="translate(92.7733 4.20345) rotate(90) scale(85.8813 92.727)">
<stop stop-color="white"/>
<stop offset="1" stop-color="white" stop-opacity="0"/>
</radialGradient>
<radialGradient id="paint115_radial_52_1015" cx="0" cy="0" r="1" gradientUnits="userSpaceOnUse" gradientTransform="translate(92.7733 4.20345) rotate(90) scale(85.8813 92.727)">
<stop stop-color="white"/>
<stop offset="1" stop-color="white" stop-opacity="0"/>
</radialGradient>
<radialGradient id="paint116_radial_52_1015" cx="0" cy="0" r="1" gradientUnits="userSpaceOnUse" gradientTransform="translate(92.7733 4.20345) rotate(90) scale(85.8813 92.727)">
<stop stop-color="white"/>
<stop offset="1" stop-color="white" stop-opacity="0"/>
</radialGradient>
<radialGradient id="paint117_radial_52_1015" cx="0" cy="0" r="1" gradientUnits="userSpaceOnUse" gradientTransform="translate(92.7733 4.20345) rotate(90) scale(85.8813 92.727)">
<stop stop-color="white"/>
<stop offset="1" stop-color="white" stop-opacity="0"/>
</radialGradient>
<radialGradient id="paint118_radial_52_1015" cx="0" cy="0" r="1" gradientUnits="userSpaceOnUse" gradientTransform="translate(92.7733 4.20345) rotate(90) scale(85.8813 92.727)">
<stop stop-color="white"/>
<stop offset="1" stop-color="white" stop-opacity="0"/>
</radialGradient>
<radialGradient id="paint119_radial_52_1015" cx="0" cy="0" r="1" gradientUnits="userSpaceOnUse" gradientTransform="translate(92.7733 4.20345) rotate(90) scale(85.8813 92.727)">
<stop stop-color="white"/>
<stop offset="1" stop-color="white" stop-opacity="0"/>
</radialGradient>
<radialGradient id="paint120_radial_52_1015" cx="0" cy="0" r="1" gradientUnits="userSpaceOnUse" gradientTransform="translate(92.7733 4.20345) rotate(90) scale(85.8813 92.727)">
<stop stop-color="white"/>
<stop offset="1" stop-color="white" stop-opacity="0"/>
</radialGradient>
<radialGradient id="paint121_radial_52_1015" cx="0" cy="0" r="1" gradientUnits="userSpaceOnUse" gradientTransform="translate(92.7733 4.20345) rotate(90) scale(85.8813 92.727)">
<stop stop-color="white"/>
<stop offset="1" stop-color="white" stop-opacity="0"/>
</radialGradient>
<radialGradient id="paint122_radial_52_1015" cx="0" cy="0" r="1" gradientUnits="userSpaceOnUse" gradientTransform="translate(92.7733 4.20345) rotate(90) scale(85.8813 92.727)">
<stop stop-color="white"/>
<stop offset="1" stop-color="white" stop-opacity="0"/>
</radialGradient>
<radialGradient id="paint123_radial_52_1015" cx="0" cy="0" r="1" gradientUnits="userSpaceOnUse" gradientTransform="translate(92.7733 4.20345) rotate(90) scale(85.8813 92.727)">
<stop stop-color="white"/>
<stop offset="1" stop-color="white" stop-opacity="0"/>
</radialGradient>
<radialGradient id="paint124_radial_52_1015" cx="0" cy="0" r="1" gradientUnits="userSpaceOnUse" gradientTransform="translate(92.7733 4.20345) rotate(90) scale(85.8813 92.727)">
<stop stop-color="white"/>
<stop offset="1" stop-color="white" stop-opacity="0"/>
</radialGradient>
<radialGradient id="paint125_radial_52_1015" cx="0" cy="0" r="1" gradientUnits="userSpaceOnUse" gradientTransform="translate(92.7733 4.20345) rotate(90) scale(85.8813 92.727)">
<stop stop-color="white"/>
<stop offset="1" stop-color="white" stop-opacity="0"/>
</radialGradient>
<radialGradient id="paint126_radial_52_1015" cx="0" cy="0" r="1" gradientUnits="userSpaceOnUse" gradientTransform="translate(92.7733 4.20345) rotate(90) scale(85.8813 92.727)">
<stop stop-color="white"/>
<stop offset="1" stop-color="white" stop-opacity="0"/>
</radialGradient>
<radialGradient id="paint127_radial_52_1015" cx="0" cy="0" r="1" gradientUnits="userSpaceOnUse" gradientTransform="translate(92.7733 4.20345) rotate(90) scale(85.8813 92.727)">
<stop stop-color="white"/>
<stop offset="1" stop-color="white" stop-opacity="0"/>
</radialGradient>
<radialGradient id="paint128_radial_52_1015" cx="0" cy="0" r="1" gradientUnits="userSpaceOnUse" gradientTransform="translate(92.7733 4.20345) rotate(90) scale(85.8813 92.727)">
<stop stop-color="white"/>
<stop offset="1" stop-color="white" stop-opacity="0"/>
</radialGradient>
<radialGradient id="paint129_radial_52_1015" cx="0" cy="0" r="1" gradientUnits="userSpaceOnUse" gradientTransform="translate(92.7733 4.20345) rotate(90) scale(85.8813 92.727)">
<stop stop-color="white"/>
<stop offset="1" stop-color="white" stop-opacity="0"/>
</radialGradient>
<radialGradient id="paint130_radial_52_1015" cx="0" cy="0" r="1" gradientUnits="userSpaceOnUse" gradientTransform="translate(92.7733 4.20345) rotate(90) scale(85.8813 92.727)">
<stop stop-color="white"/>
<stop offset="1" stop-color="white" stop-opacity="0"/>
</radialGradient>
<radialGradient id="paint131_radial_52_1015" cx="0" cy="0" r="1" gradientUnits="userSpaceOnUse" gradientTransform="translate(92.7733 4.20345) rotate(90) scale(85.8813 92.727)">
<stop stop-color="white"/>
<stop offset="1" stop-color="white" stop-opacity="0"/>
</radialGradient>
<radialGradient id="paint132_radial_52_1015" cx="0" cy="0" r="1" gradientUnits="userSpaceOnUse" gradientTransform="translate(92.7733 4.20345) rotate(90) scale(85.8813 92.727)">
<stop stop-color="white"/>
<stop offset="1" stop-color="white" stop-opacity="0"/>
</radialGradient>
<radialGradient id="paint133_radial_52_1015" cx="0" cy="0" r="1" gradientUnits="userSpaceOnUse" gradientTransform="translate(92.7733 4.20345) rotate(90) scale(85.8813 92.727)">
<stop stop-color="white"/>
<stop offset="1" stop-color="white" stop-opacity="0"/>
</radialGradient>
<radialGradient id="paint134_radial_52_1015" cx="0" cy="0" r="1" gradientUnits="userSpaceOnUse" gradientTransform="translate(92.7733 4.20345) rotate(90) scale(85.8813 92.727)">
<stop stop-color="white"/>
<stop offset="1" stop-color="white" stop-opacity="0"/>
</radialGradient>
<radialGradient id="paint135_radial_52_1015" cx="0" cy="0" r="1" gradientUnits="userSpaceOnUse" gradientTransform="translate(92.7733 4.20345) rotate(90) scale(85.8813 92.727)">
<stop stop-color="white"/>
<stop offset="1" stop-color="white" stop-opacity="0"/>
</radialGradient>
<radialGradient id="paint136_radial_52_1015" cx="0" cy="0" r="1" gradientUnits="userSpaceOnUse" gradientTransform="translate(92.7733 4.20345) rotate(90) scale(85.8813 92.727)">
<stop stop-color="white"/>
<stop offset="1" stop-color="white" stop-opacity="0"/>
</radialGradient>
<radialGradient id="paint137_radial_52_1015" cx="0" cy="0" r="1" gradientUnits="userSpaceOnUse" gradientTransform="translate(92.7733 4.20345) rotate(90) scale(85.8813 92.727)">
<stop stop-color="white"/>
<stop offset="1" stop-color="white" stop-opacity="0"/>
</radialGradient>
<radialGradient id="paint138_radial_52_1015" cx="0" cy="0" r="1" gradientUnits="userSpaceOnUse" gradientTransform="translate(92.7733 4.20345) rotate(90) scale(85.8813 92.727)">
<stop stop-color="white"/>
<stop offset="1" stop-color="white" stop-opacity="0"/>
</radialGradient>
<radialGradient id="paint139_radial_52_1015" cx="0" cy="0" r="1" gradientUnits="userSpaceOnUse" gradientTransform="translate(92.7733 4.20345) rotate(90) scale(85.8813 92.727)">
<stop stop-color="white"/>
<stop offset="1" stop-color="white" stop-opacity="0"/>
</radialGradient>
<radialGradient id="paint140_radial_52_1015" cx="0" cy="0" r="1" gradientUnits="userSpaceOnUse" gradientTransform="translate(92.7733 4.20345) rotate(90) scale(85.8813 92.727)">
<stop stop-color="white"/>
<stop offset="1" stop-color="white" stop-opacity="0"/>
</radialGradient>
<radialGradient id="paint141_radial_52_1015" cx="0" cy="0" r="1" gradientUnits="userSpaceOnUse" gradientTransform="translate(92.7733 4.20345) rotate(90) scale(85.8813 92.727)">
<stop stop-color="white"/>
<stop offset="1" stop-color="white" stop-opacity="0"/>
</radialGradient>
<radialGradient id="paint142_radial_52_1015" cx="0" cy="0" r="1" gradientUnits="userSpaceOnUse" gradientTransform="translate(92.7733 4.20345) rotate(90) scale(85.8813 92.727)">
<stop stop-color="white"/>
<stop offset="1" stop-color="white" stop-opacity="0"/>
</radialGradient>
<radialGradient id="paint143_radial_52_1015" cx="0" cy="0" r="1" gradientUnits="userSpaceOnUse" gradientTransform="translate(92.7733 4.20345) rotate(90) scale(85.8813 92.727)">
<stop stop-color="white"/>
<stop offset="1" stop-color="white" stop-opacity="0"/>
</radialGradient>
<radialGradient id="paint144_radial_52_1015" cx="0" cy="0" r="1" gradientUnits="userSpaceOnUse" gradientTransform="translate(92.7733 4.20345) rotate(90) scale(85.8813 92.727)">
<stop stop-color="white"/>
<stop offset="1" stop-color="white" stop-opacity="0"/>
</radialGradient>
<radialGradient id="paint145_radial_52_1015" cx="0" cy="0" r="1" gradientUnits="userSpaceOnUse" gradientTransform="translate(92.7733 4.20345) rotate(90) scale(85.8813 92.727)">
<stop stop-color="white"/>
<stop offset="1" stop-color="white" stop-opacity="0"/>
</radialGradient>
</defs>
</svg>
