<svg width="75" height="75" viewBox="0 0 75 75" fill="none" xmlns="http://www.w3.org/2000/svg">
<path fill-rule="evenodd" clip-rule="evenodd" d="M74.1685 0.948967C73.2188 0.58442 66.8509 0.678888 62.5395 1.12114C58.912 1.49331 53.48 2.45478 53.1524 2.78237C53.0118 2.92255 54.0437 7.16912 54.2696 7.38206C54.3367 7.44491 56.1057 7.14321 58.2008 6.71162C61.0977 6.11471 63.5383 5.91893 68.3906 5.89378L74.7711 5.86026L74.7711 3.52022C74.7711 1.73787 74.6275 1.12495 74.1685 0.948967ZM72.9891 10.7822C68.4599 10.103 58.144 11.3254 51.725 13.302C47.9657 14.4597 40.1932 18.2377 36.5352 20.6859C26.177 27.6173 17.6816 38.8329 13.8152 50.6809C12.4606 54.8311 11.3388 59.7469 10.9933 63.0427L10.7495 65.3713L12.1909 65.6098C15.5697 66.1682 15.6086 66.1438 15.908 63.285C16.7876 54.8939 20.7153 44.7868 25.7908 37.8528C30.7238 31.1138 39.0158 24.1421 45.9787 20.879C53.5824 17.3159 60.1008 15.8649 68.7707 15.8055L74.7696 15.7644L74.7703 13.4068L74.7711 11.0496L72.9891 10.7822ZM73.647 20.8284C72.5476 20.6669 72.5179 20.7069 72.2707 22.6835C71.945 25.2917 72.1854 25.8589 73.6165 25.8589L74.7711 25.8589L74.7711 23.4259C74.7711 21.0234 74.7574 20.9914 73.647 20.8284ZM74.0432 31.0121C72.5389 30.5348 64.6301 30.755 61.7788 31.3534C55.804 32.6082 50.6059 34.8671 46.3494 38.0577L44.4021 39.5178L42.7569 37.8417C41.1421 36.1961 41.125 36.1512 41.8137 35.3901C42.6098 34.5101 47.7181 31.1652 49.7328 30.2045L51.0675 29.568L50.1278 27.4279C49.6109 26.2505 49.065 25.1595 48.9149 25.003C48.2418 24.3017 40.5338 29.4297 35.1997 34.1265L33.5304 35.5965L37.6239 39.9654C39.8752 42.3679 42.2681 44.9014 42.9416 45.5955L44.1663 46.8567L45.4035 45.701C49.7012 41.6864 55.9301 38.2531 61.4489 36.8578C64.0137 36.2091 65.4571 36.094 69.6659 36.2026L74.7715 36.3344L74.7715 33.7887C74.7711 31.6174 74.6641 31.2094 74.0432 31.0121ZM73.7693 50.3826C73.2569 53.0811 72.887 55.3308 72.9476 55.3826C73.0078 55.4345 73.4424 55.5952 73.914 55.7399L74.7711 56.0036L74.7357 50.7399L74.7006 45.4766L73.7693 50.3826ZM73.6748 61.1826C73.0718 60.8265 71.7046 60.3476 70.6365 60.1187C68.2306 59.6025 65.419 60.3111 63.0435 62.0317C61.4272 63.2031 59.7134 65.9244 60.0464 66.7922C60.2205 67.2455 63.0107 68.1418 64.248 68.1418C64.5604 68.1418 64.9283 67.7872 65.0658 67.3537C65.4193 66.2402 67.4725 65.0974 69.1231 65.0959C70.9352 65.094 72.7027 66.5548 73.3 68.5475C73.6805 69.8186 73.6432 70.27 73.0466 71.593C71.35 75.3554 66.1012 75.088 64.4724 71.1561C63.9985 70.0121 63.9097 69.9737 62.2325 70.1832C61.2722 70.3032 57.9882 70.6075 54.9351 70.8593L49.3842 71.318L49.748 73.1582L50.1118 74.9985L62.4416 74.9985L74.7711 74.9985L74.7711 68.4145L74.7711 61.8302L73.6748 61.1826ZM70.1047 40.6191C64.9352 40.2473 60.5267 41.1725 55.6592 43.6508C45.3491 48.9 39.0226 60.7533 40.2778 72.471L40.5482 74.9985L42.9961 74.9985L45.4443 74.9985L45.2051 71.8558C44.4219 61.5697 49.5179 52.1246 58.0789 47.9953C61.3834 46.4011 63.7905 45.6922 65.9504 45.6762L67.2242 45.6671L66.9518 47.667C66.6417 49.9441 66.5237 50.0641 64.2918 50.37C57.3136 51.3265 51.0527 58.2765 49.7914 66.4665L49.5507 68.0294L51.0188 68.2717C54.273 68.8096 54.4837 68.7181 54.7682 66.6478C55.3191 62.645 58.4777 58.0381 61.8523 56.3163C63.6126 55.4181 67.9316 54.7065 69.6572 55.0303C70.3748 55.1648 70.9618 55.1255 70.9618 54.9431C70.9618 54.7606 71.3881 51.613 71.9092 47.9488C72.4299 44.2843 72.8585 41.1809 72.8615 41.0518C72.8642 40.923 71.6239 40.728 70.1047 40.6191ZM65.3432 20.6429C62.2615 20.8829 58.1174 21.6649 54.7648 22.6397L52.7966 23.2119L53.5923 25.5827C54.0304 26.887 54.3965 27.9898 54.4064 28.034C54.4163 28.0778 55.524 27.7715 56.8679 27.3533C59.0426 26.6764 61.1598 26.3042 66.6764 25.6292L68.2953 25.4311L68.2953 22.9223L68.2953 20.4132L65.3432 20.6429ZM46.9928 6.62211C46.2084 4.4314 46.2477 4.43597 42.3801 6.08157C28.8774 11.8275 17.3993 22.0218 9.99296 34.8465L8.14051 38.0535L10.3994 39.194C11.642 39.821 12.7326 40.3341 12.8232 40.3341C12.9139 40.3341 13.5417 39.3487 14.2182 38.1438C18.1261 31.1858 25.4738 22.7685 31.5153 18.3295C34.9242 15.8245 40.8941 12.4225 44.6089 10.8672C46.2149 10.1948 47.5619 9.39298 47.6023 9.08557C47.6423 8.77816 47.368 7.66966 46.9928 6.62211ZM37.5283 43.1221C34.442 40.5703 31.7454 38.4382 31.5359 38.3842C30.9588 38.2356 27.3964 43.516 25.4662 47.3813C21.8447 54.6341 20.3016 61.3171 20.2997 69.7607L20.2986 74.9985L22.9148 74.9985L25.531 74.9985L25.7374 68.9989C25.9599 62.5304 26.8829 57.8015 28.8679 52.96C29.6518 51.0477 31.7648 46.8777 32.3438 46.1006C32.4002 46.0248 33.228 46.6034 34.1833 47.3859L35.92 48.8094L35.1539 50.0493C33.3758 52.9264 31.5565 58.4198 30.7881 63.2339C30.5729 64.5828 30.5981 64.6163 32.0044 64.8487C32.7941 64.9793 33.9856 65.0879 34.6515 65.0902C35.8225 65.0944 35.8769 65.022 36.2956 62.904C37.2216 58.2194 38.7446 54.5027 41.2941 50.7072C42.3173 49.1842 43.1507 47.8986 43.1469 47.8502C43.1431 47.8018 40.6145 45.6743 37.5283 43.1221ZM35.6331 70.5226L35.5048 67.3799L33.0444 67.3799L30.5836 67.3799L30.5836 70.5866C30.5836 75.0137 30.5737 74.9985 33.4813 74.9985C35.576 74.9985 35.9059 74.9051 35.8388 74.3318C35.7966 73.9654 35.7036 72.2512 35.6331 70.5226ZM14.8284 71.1892C14.3336 71.1892 13.1337 71.2981 12.162 71.4315C10.2916 71.6878 10.0783 72.0661 10.6344 74.1414C10.8424 74.9166 11.0961 74.9985 13.296 74.9985L15.7274 74.9985L15.7274 73.0938C15.7274 71.3461 15.6531 71.1892 14.8284 71.1892ZM8.37059 43.9621C7.12229 43.4204 6.05304 43.0254 5.99513 43.0844C5.93723 43.1431 5.20318 45.2481 4.36362 47.7622C1.99425 54.86 1.19888 59.5679 0.969182 67.8561L0.771481 74.9985L3.39264 74.9992L6.0138 75L5.89076 70.9043C5.6782 63.8194 6.99964 55.3983 9.40938 48.4814L10.6409 44.9464L8.37059 43.9621Z" fill="#CCCCCC"/>
</svg>
