<svg width="19" height="18" viewBox="0 0 19 18" fill="none" xmlns="http://www.w3.org/2000/svg">
<g opacity="1">
<path d="M9.91807 3.43126C10.0556 3.56876 10.1243 3.74064 10.1243 3.94689C10.1243 4.15314 10.0556 4.33126 9.91807 4.48126L6.13057 8.25001L14.7743 8.25001C14.9868 8.25001 15.1618 8.32189 15.2993 8.46564C15.4368 8.60939 15.5056 8.78751 15.5056 9.00001C15.5056 9.21251 15.4368 9.39064 15.2993 9.53439C15.1618 9.67814 14.9868 9.75001 14.7743 9.75001L6.13057 9.75001L9.91807 13.5375C10.0556 13.675 10.1243 13.85 10.1243 14.0625C10.1243 14.275 10.0556 14.45 9.91807 14.5875C9.76807 14.725 9.58994 14.7938 9.38369 14.7938C9.17744 14.7938 9.00557 14.725 8.86807 14.5875L3.78682 9.52501C3.71182 9.45001 3.65557 9.36876 3.61807 9.28126C3.58057 9.19376 3.56182 9.10001 3.56182 9.00001C3.56182 8.91251 3.58057 8.82189 3.61807 8.72814C3.65557 8.63439 3.71182 8.55001 3.78682 8.47501L8.86807 3.41251C9.00557 3.26251 9.17744 3.19376 9.38369 3.20626C9.58994 3.21876 9.76807 3.29376 9.91807 3.43126Z" fill="white"/>
</g>
</svg>
