<svg width="19" height="18" viewBox="0 0 19 18" fill="none" xmlns="http://www.w3.org/2000/svg">
<path d="M8.86807 14.5687C8.73057 14.4312 8.66182 14.2594 8.66182 14.0531C8.66182 13.8469 8.73057 13.6687 8.86807 13.5187L12.6556 9.74999H4.01182C3.79932 9.74999 3.62432 9.67811 3.48682 9.53436C3.34932 9.39061 3.28057 9.21249 3.28057 8.99999C3.28057 8.78749 3.34932 8.60936 3.48682 8.46561C3.62432 8.32186 3.79932 8.24999 4.01182 8.24999H12.6556L8.86807 4.46249C8.73057 4.32499 8.66182 4.14999 8.66182 3.93749C8.66182 3.72499 8.73057 3.54999 8.86807 3.41249C9.01807 3.27499 9.19619 3.20624 9.40244 3.20624C9.60869 3.20624 9.78057 3.27499 9.91807 3.41249L14.9993 8.47499C15.0743 8.54999 15.1306 8.63124 15.1681 8.71874C15.2056 8.80624 15.2243 8.89999 15.2243 8.99999C15.2243 9.08749 15.2056 9.17811 15.1681 9.27186C15.1306 9.36561 15.0743 9.44999 14.9993 9.52499L9.91807 14.5875C9.78057 14.7375 9.60869 14.8062 9.40244 14.7937C9.19619 14.7812 9.01807 14.7062 8.86807 14.5687Z" fill="white"/>
</svg>
