<svg width="101" height="17" viewBox="0 0 101 17" fill="none" xmlns="http://www.w3.org/2000/svg">
<g clip-path="url(#clip0_22_1006)">
<path fill-rule="evenodd" clip-rule="evenodd" d="M7.78736 2.18173C7.69499 2.24289 7.55167 2.51267 6.68646 4.25373L5.69174 6.25542L3.56146 6.56051C2.3898 6.72833 1.3718 6.88676 1.29924 6.91264C1.0553 6.99961 0.915768 7.25876 0.981393 7.50304C1.01836 7.64051 1.16121 7.78733 3.14161 9.72258L4.22702 10.7833L3.84877 12.9799L3.47052 15.1765L3.52396 15.3164C3.55602 15.4003 3.62214 15.4904 3.68933 15.5416C3.78374 15.6136 3.83111 15.6268 3.99124 15.6255C4.17927 15.624 4.20055 15.6138 6.11736 14.6021C7.18227 14.04 8.06274 13.5802 8.07396 13.5802C8.08517 13.5802 8.96467 14.0398 10.0284 14.6016C11.9501 15.6165 11.9636 15.623 12.1555 15.625C12.392 15.6275 12.4915 15.5654 12.6009 15.3472L12.6768 15.1955L12.297 12.9894L11.917 10.7833L12.9866 9.73836C14.9748 7.79589 15.1257 7.64073 15.1624 7.50104C15.2268 7.25611 15.0883 6.99976 14.8444 6.91242C14.7718 6.88645 13.7535 6.72729 12.5814 6.55876L10.4503 6.25233L9.45636 4.25217C8.34205 2.00979 8.40777 2.11142 8.0718 2.11142C7.93924 2.11142 7.86633 2.12945 7.78736 2.18173Z" fill="#CD7FB4"/>
</g>
<g clip-path="url(#clip1_22_1006)">
<path fill-rule="evenodd" clip-rule="evenodd" d="M28.7874 2.18173C28.695 2.24289 28.5517 2.51267 27.6865 4.25373L26.6917 6.25542L24.5615 6.56051C23.3898 6.72833 22.3718 6.88676 22.2992 6.91264C22.0553 6.99961 21.9158 7.25876 21.9814 7.50304C22.0184 7.64051 22.1612 7.78733 24.1416 9.72258L25.227 10.7833L24.8488 12.9799L24.4705 15.1765L24.524 15.3164C24.556 15.4003 24.6221 15.4904 24.6893 15.5416C24.7837 15.6136 24.8311 15.6268 24.9912 15.6255C25.1793 15.624 25.2005 15.6138 27.1174 14.6021C28.1823 14.04 29.0627 13.5802 29.074 13.5802C29.0852 13.5802 29.9647 14.0398 31.0284 14.6016C32.9501 15.6165 32.9636 15.623 33.1555 15.625C33.392 15.6275 33.4915 15.5654 33.6009 15.3472L33.6768 15.1955L33.297 12.9894L32.917 10.7833L33.9866 9.73836C35.9748 7.79589 36.1257 7.64073 36.1624 7.50104C36.2268 7.25611 36.0883 6.99976 35.8444 6.91242C35.7718 6.88645 34.7535 6.72729 33.5814 6.55876L31.4503 6.25233L30.4564 4.25217C29.342 2.00979 29.4078 2.11142 29.0718 2.11142C28.9392 2.11142 28.8663 2.12945 28.7874 2.18173Z" fill="#CD7FB4"/>
</g>
<g clip-path="url(#clip2_22_1006)">
<path fill-rule="evenodd" clip-rule="evenodd" d="M49.7874 2.18173C49.695 2.24289 49.5517 2.51267 48.6865 4.25373L47.6917 6.25542L45.5615 6.56051C44.3898 6.72833 43.3718 6.88676 43.2992 6.91264C43.0553 6.99961 42.9158 7.25876 42.9814 7.50304C43.0184 7.64051 43.1612 7.78733 45.1416 9.72258L46.227 10.7833L45.8488 12.9799L45.4705 15.1765L45.524 15.3164C45.556 15.4003 45.6221 15.4904 45.6893 15.5416C45.7837 15.6136 45.8311 15.6268 45.9912 15.6255C46.1793 15.624 46.2005 15.6138 48.1174 14.6021C49.1823 14.04 50.0627 13.5802 50.074 13.5802C50.0852 13.5802 50.9647 14.0398 52.0284 14.6016C53.9501 15.6165 53.9636 15.623 54.1555 15.625C54.392 15.6275 54.4915 15.5654 54.6009 15.3472L54.6768 15.1955L54.297 12.9894L53.917 10.7833L54.9866 9.73836C56.9748 7.79589 57.1257 7.64073 57.1624 7.50104C57.2268 7.25611 57.0883 6.99976 56.8444 6.91242C56.7718 6.88645 55.7535 6.72729 54.5814 6.55876L52.4503 6.25233L51.4564 4.25217C50.342 2.00979 50.4078 2.11142 50.0718 2.11142C49.9392 2.11142 49.8663 2.12945 49.7874 2.18173Z" fill="#CD7FB4"/>
</g>
<g clip-path="url(#clip3_22_1006)">
<path fill-rule="evenodd" clip-rule="evenodd" d="M70.7874 2.18173C70.695 2.24289 70.5517 2.51267 69.6865 4.25373L68.6917 6.25542L66.5615 6.56051C65.3898 6.72833 64.3718 6.88676 64.2992 6.91264C64.0553 6.99961 63.9158 7.25876 63.9814 7.50304C64.0184 7.64051 64.1612 7.78733 66.1416 9.72258L67.227 10.7833L66.8488 12.9799L66.4705 15.1765L66.524 15.3164C66.556 15.4003 66.6221 15.4904 66.6893 15.5416C66.7837 15.6136 66.8311 15.6268 66.9912 15.6255C67.1793 15.624 67.2005 15.6138 69.1174 14.6021C70.1823 14.04 71.0627 13.5802 71.074 13.5802C71.0852 13.5802 71.9647 14.0398 73.0284 14.6016C74.9501 15.6165 74.9636 15.623 75.1555 15.625C75.392 15.6275 75.4915 15.5654 75.6009 15.3472L75.6768 15.1955L75.297 12.9894L74.917 10.7833L75.9866 9.73836C77.9748 7.79589 78.1257 7.64073 78.1624 7.50104C78.2268 7.25611 78.0883 6.99976 77.8444 6.91242C77.7718 6.88645 76.7535 6.72729 75.5814 6.55876L73.4503 6.25233L72.4564 4.25217C71.342 2.00979 71.4078 2.11142 71.0718 2.11142C70.9392 2.11142 70.8663 2.12945 70.7874 2.18173Z" fill="#CD7FB4"/>
</g>
<g clip-path="url(#clip4_22_1006)">
<path fill-rule="evenodd" clip-rule="evenodd" d="M91.7873 2.18173C91.695 2.24289 91.5516 2.51267 90.6864 4.25373L89.6917 6.25542L87.5614 6.56051C86.3898 6.72833 85.3718 6.88676 85.2992 6.91264C85.0553 6.99961 84.9157 7.25876 84.9814 7.50304C85.0183 7.64051 85.1612 7.78733 87.1416 9.72258L88.227 10.7833L87.8487 12.9799L87.4705 15.1765L87.5239 15.3164C87.556 15.4003 87.6221 15.4904 87.6893 15.5416C87.7837 15.6136 87.8311 15.6268 87.9912 15.6255C88.1792 15.624 88.2005 15.6138 90.1173 14.6021C91.1822 14.04 92.0627 13.5802 92.0739 13.5802C92.0851 13.5802 92.9646 14.0398 94.0284 14.6016C95.9501 15.6165 95.9636 15.623 96.1554 15.625C96.392 15.6275 96.4915 15.5654 96.6009 15.3472L96.6768 15.1955L96.2969 12.9894L95.917 10.7833L96.9866 9.73836C98.9748 7.79589 99.1257 7.64073 99.1624 7.50104C99.2268 7.25611 99.0883 6.99976 98.8443 6.91242C98.7718 6.88645 97.7534 6.72729 96.5813 6.55876L94.4503 6.25233L93.4563 4.25217C92.342 2.00979 92.4077 2.11142 92.0718 2.11142C91.9392 2.11142 91.8663 2.12945 91.7873 2.18173Z" fill="#CD7FB4"/>
</g>
<defs>
<clipPath id="clip0_22_1006">
<rect width="16" height="16" fill="white" transform="translate(0.0716553 0.868164)"/>
</clipPath>
<clipPath id="clip1_22_1006">
<rect width="16" height="16" fill="white" transform="translate(21.0717 0.868164)"/>
</clipPath>
<clipPath id="clip2_22_1006">
<rect width="16" height="16" fill="white" transform="translate(42.0717 0.868164)"/>
</clipPath>
<clipPath id="clip3_22_1006">
<rect width="16" height="16" fill="white" transform="translate(63.0717 0.868164)"/>
</clipPath>
<clipPath id="clip4_22_1006">
<rect width="16" height="16" fill="white" transform="translate(84.0717 0.868164)"/>
</clipPath>
</defs>
</svg>
