<svg width="15" height="15" viewBox="0 0 15 15" fill="none" xmlns="http://www.w3.org/2000/svg">
<path d="M7.30615 11.997C7.1992 11.8901 7.14573 11.7564 7.14573 11.596C7.14573 11.4356 7.1992 11.297 7.30615 11.1804L10.252 8.24913H3.52906C3.36378 8.24913 3.22767 8.19323 3.12073 8.08142C3.01378 7.96962 2.96031 7.83107 2.96031 7.6658C2.96031 7.50052 3.01378 7.36198 3.12073 7.25017C3.22767 7.13837 3.36378 7.08246 3.52906 7.08246L10.252 7.08246L7.30615 4.13663C7.1992 4.02968 7.14573 3.89357 7.14573 3.7283C7.14573 3.56302 7.1992 3.42691 7.30615 3.31996C7.42281 3.21302 7.56135 3.15955 7.72177 3.15955C7.88219 3.15955 8.01587 3.21302 8.12281 3.31996L12.0749 7.25746C12.1332 7.3158 12.177 7.37899 12.2061 7.44705C12.2353 7.5151 12.2499 7.58802 12.2499 7.6658C12.2499 7.73385 12.2353 7.80434 12.2061 7.87725C12.177 7.95017 12.1332 8.0158 12.0749 8.07413L8.12281 12.0116C8.01587 12.1283 7.88219 12.1818 7.72177 12.172C7.56135 12.1623 7.42281 12.104 7.30615 11.997Z" fill="white"/>
</svg>
