<svg width="15" height="14" viewBox="0 0 15 14" fill="none" xmlns="http://www.w3.org/2000/svg">
<g clip-path="url(#clip0_24_283)">
<path d="M7.39306 3.66663C6.93157 3.66663 6.48044 3.80347 6.09673 4.05986C5.71301 4.31625 5.41394 4.68067 5.23734 5.10703C5.06073 5.53339 5.01453 6.00255 5.10456 6.45517C5.19459 6.90779 5.41682 7.32355 5.74314 7.64988C6.06946 7.9762 6.48522 8.19843 6.93785 8.28846C7.39047 8.37849 7.85963 8.33228 8.28599 8.15568C8.71235 7.97907 9.07676 7.68 9.33315 7.29629C9.58954 6.91258 9.72639 6.46145 9.72639 5.99996C9.72639 5.38112 9.48056 4.78763 9.04297 4.35004C8.60539 3.91246 8.0119 3.66663 7.39306 3.66663ZM7.39306 7.16663C7.16231 7.16663 6.93675 7.0982 6.74489 6.97001C6.55304 6.84181 6.4035 6.6596 6.3152 6.44642C6.2269 6.23324 6.20379 5.99867 6.24881 5.77235C6.29382 5.54604 6.40494 5.33816 6.5681 5.175C6.73126 5.01184 6.93914 4.90073 7.16545 4.85571C7.39176 4.81069 7.62634 4.8338 7.83952 4.9221C8.0527 5.0104 8.23491 5.15994 8.36311 5.35179C8.4913 5.54365 8.55972 5.76921 8.55972 5.99996C8.55972 6.30938 8.43681 6.60612 8.21802 6.82492C7.99922 7.04371 7.70248 7.16663 7.39306 7.16663Z" fill="#CD7FB4"/>
<path d="M7.39307 14.0006C6.90187 14.0031 6.41721 13.8879 5.97969 13.6646C5.54216 13.4413 5.1645 13.1165 4.87832 12.7172C2.65523 9.65064 1.52765 7.34531 1.52765 5.86481C1.52765 4.3092 2.14561 2.81731 3.24559 1.71733C4.34557 0.617352 5.83746 -0.000610352 7.39307 -0.000610352C8.94867 -0.000610352 10.4406 0.617352 11.5405 1.71733C12.6405 2.81731 13.2585 4.3092 13.2585 5.86481C13.2585 7.34531 12.1309 9.65064 9.90782 12.7172C9.62164 13.1165 9.24397 13.4413 8.80644 13.6646C8.36892 13.8879 7.88427 14.0031 7.39307 14.0006ZM7.39307 1.27281C6.17531 1.2742 5.00783 1.75856 4.14674 2.61965C3.28566 3.48073 2.80129 4.64822 2.7999 5.86597C2.7999 7.03847 3.90415 9.20672 5.90848 11.9711C6.07864 12.2055 6.30187 12.3963 6.5599 12.5278C6.81793 12.6593 7.10344 12.7279 7.39307 12.7279C7.68269 12.7279 7.9682 12.6593 8.22623 12.5278C8.48427 12.3963 8.70749 12.2055 8.87765 11.9711C10.882 9.20672 11.9862 7.03847 11.9862 5.86597C11.9848 4.64822 11.5005 3.48073 10.6394 2.61965C9.77831 1.75856 8.61082 1.2742 7.39307 1.27281Z" fill="#CD7FB4"/>
</g>
<defs>
<clipPath id="clip0_24_283">
<rect width="14" height="14" fill="white" transform="translate(0.393066)"/>
</clipPath>
</defs>
</svg>
