<svg width="15" height="15" viewBox="0 0 15 15" fill="none" xmlns="http://www.w3.org/2000/svg">
<path d="M8.12281 3.3345C8.22976 3.44144 8.28323 3.57512 8.28323 3.73554C8.28323 3.89595 8.22976 4.0345 8.12281 4.15116L5.17698 7.08241L11.8999 7.08241C12.0652 7.08241 12.2013 7.13832 12.3082 7.25012C12.4152 7.36193 12.4686 7.50047 12.4686 7.66575C12.4686 7.83102 12.4152 7.96957 12.3082 8.08137C12.2013 8.19318 12.0652 8.24908 11.8999 8.24908L5.17698 8.24908L8.12281 11.1949C8.22975 11.3019 8.28323 11.438 8.28323 11.6032C8.28323 11.7685 8.22975 11.9046 8.12281 12.0116C8.00614 12.1185 7.8676 12.172 7.70718 12.172C7.54677 12.172 7.41309 12.1185 7.30614 12.0116L3.35406 8.07408C3.29573 8.01575 3.25198 7.95255 3.22281 7.8845C3.19364 7.81644 3.17906 7.74352 3.17906 7.66575C3.17906 7.59769 3.19364 7.5272 3.22281 7.45429C3.25198 7.38137 3.29573 7.31575 3.35406 7.25741L7.30614 3.31991C7.41309 3.20325 7.54677 3.14977 7.70719 3.1595C7.8676 3.16922 8.00614 3.22755 8.12281 3.3345Z" fill="white"/>
</svg>
