<svg width="161" height="80" viewBox="0 0 161 80" fill="none" xmlns="http://www.w3.org/2000/svg">
<g opacity="0.2" clip-path="url(#clip0_11_1901)">
<path fill-rule="evenodd" clip-rule="evenodd" d="M150.442 81.3094C149.908 80.1103 144.012 74.3866 139.675 70.8566C136.026 67.8864 130.193 63.8076 129.595 63.8076C129.339 63.8073 126.406 68.6232 126.418 69.0236C126.422 69.1421 128.311 70.4809 130.616 71.9986C133.804 74.0971 136.209 76.1452 140.659 80.5493L146.511 86.3401L148.646 84.2051C150.272 82.5789 150.7 81.8887 150.442 81.3094ZM140.395 89.2049C136.882 84.4529 126.355 76.1563 118.695 72.1032C114.209 69.7295 103.671 66.0851 98.0994 64.9813C82.325 61.8548 64.3412 64.3366 50.0039 71.6187C44.9815 74.1693 39.4729 77.6309 36.1507 80.3227L33.8038 82.2248L34.9013 83.7575C37.4745 87.3497 37.5322 87.3629 40.4137 85.0277C48.8719 78.1745 61.6769 72.5366 72.634 70.8409C83.2832 69.1932 97.2093 70.3978 106.539 73.7735C116.728 77.4599 123.999 82.0833 131.963 89.9393L137.474 95.3749L139.625 93.2246L141.777 91.0747L140.395 89.2049ZM131.829 98.9709C130.973 97.8206 130.91 97.8299 128.881 99.4078C126.204 101.49 125.906 102.227 127.212 103.533L128.265 104.586L130.485 102.366C132.677 100.174 132.693 100.133 131.829 98.9709ZM122.899 108.624C121.962 106.816 114.546 99.8009 111.398 97.7455C104.802 93.439 97.9986 90.7574 91.2041 89.7849L88.0953 89.3404L88.1235 86.3102C88.1516 83.3355 88.177 83.2789 89.4997 83.2128C91.0289 83.1364 98.7413 84.7452 101.456 85.7068L103.255 86.3439L104.35 83.534C104.952 81.9881 105.45 80.4947 105.456 80.2149C105.481 78.961 93.77 76.607 84.6181 76.0256L81.754 75.8438L81.5027 83.5646C81.3647 87.8105 81.2365 92.3053 81.2177 93.553L81.1843 95.8211L83.3676 95.8955C90.9514 96.1537 99.7669 98.7044 106.075 102.467C109.007 104.215 110.429 105.427 114.17 109.366L118.708 114.144L121.03 111.821C123.011 109.84 123.286 109.37 122.899 108.624ZM104.976 126.047C102.047 128.041 99.6568 129.757 99.6647 129.859C99.6724 129.961 99.9223 130.504 100.22 131.067L100.762 132.089L105.532 127.255L110.302 122.421L104.976 126.047ZM95.0365 135.814C94.8113 134.939 94.0008 133.255 93.2352 132.072C91.511 129.406 88.2993 127.487 84.5621 126.889C82.0188 126.483 77.9723 127.403 77.4844 128.498C77.2296 129.07 78.9576 132.434 80.0864 133.563C80.3714 133.848 81.0307 133.86 81.5517 133.59C82.8901 132.897 85.806 133.727 87.3133 135.232C88.9683 136.883 89.2481 139.829 87.975 142.192C87.1625 143.699 86.7166 144.076 84.9653 144.739C79.9846 146.624 75.4397 141.591 77.541 136.518C78.1523 135.042 78.1065 134.926 76.3851 133.587C75.3994 132.82 72.1256 130.101 69.1103 127.545L63.6274 122.899L62.2803 124.91L60.9332 126.921L72.1826 138.171L83.4316 149.42L89.4386 143.413L95.4459 137.405L95.0365 135.814ZM110.541 113.795C106.164 108.74 101.297 105.562 94.5951 103.382C80.3992 98.7645 63.8126 103.807 54.2669 115.643L52.2077 118.196L54.441 120.429L56.6747 122.663L59.3237 119.577C67.9939 109.478 81.2608 105.51 92.8389 109.553C97.3084 111.114 100.151 112.663 102.137 114.619L103.307 115.773L101.234 117.349C98.8734 119.144 98.6562 119.146 96.3408 117.388C89.1014 111.894 77.0482 112.523 68.4252 118.845L66.7796 120.051L67.898 121.611C70.3764 125.071 70.652 125.18 72.8005 123.551C76.9551 120.401 84.0401 119.08 88.6899 120.588C91.1155 121.374 95.7052 124.666 96.9841 126.536C97.5162 127.313 98.0876 127.813 98.2541 127.646C98.4205 127.48 101.681 124.997 105.5 122.129C109.318 119.261 112.541 116.821 112.661 116.705C112.781 116.59 111.827 115.281 110.541 113.795ZM124.422 91.2255C121.392 88.6328 116.897 85.5654 112.949 83.396L110.631 82.1223L109.194 85.0114C108.404 86.6011 107.732 87.9412 107.7 87.9906C107.669 88.0396 108.96 88.7708 110.567 89.6153C113.169 90.9819 115.44 92.574 121.089 96.9913L122.747 98.2877L125.036 95.9987L127.325 93.7094L124.422 91.2255ZM120.472 61.6911C121.755 58.9767 121.787 59.0167 116.757 56.9895C99.1949 49.9124 79.4216 48.7411 60.9634 53.6846L56.3473 54.9205L57.3677 58.022C57.9293 59.7278 58.4562 61.1909 58.5389 61.2737C58.6217 61.3564 60.0935 61.03 61.81 60.548C71.7238 57.7652 86.1073 56.7893 95.6693 58.2514C101.065 59.0761 109.616 61.419 114.424 63.3892C116.503 64.241 118.463 64.7384 118.78 64.4947C119.097 64.2508 119.859 62.9892 120.472 61.6911ZM78.5354 86.3574C78.0478 81.2134 77.5327 76.8079 77.3909 76.5674C76.9999 75.9053 68.932 77.4728 63.6444 79.2383C53.723 82.5515 46.2177 87.2409 38.5123 94.9429L33.7325 99.7206L36.1194 102.108L38.5064 104.494L44.1686 99.209C50.2733 93.5103 55.4298 90.038 61.6582 87.4317C64.1181 86.4023 69.8505 84.5255 71.0878 84.3448C71.2084 84.3271 71.4357 85.6102 71.5935 87.1957L71.8791 90.079L70.049 90.5113C65.8016 91.514 59.1298 94.8661 54.0365 98.5574C52.6095 99.5917 52.6018 99.6452 53.673 101.14C54.2742 101.98 55.2623 103.166 55.8677 103.776C56.9322 104.848 57.048 104.832 59.3623 103.281C64.4813 99.852 69.2618 97.8504 75.0508 96.7136C77.3738 96.2576 79.3072 95.8451 79.3479 95.7975C79.3886 95.7499 79.0226 91.5018 78.5354 86.3574ZM51.807 109.628L54.5571 106.643L52.3123 104.399L50.0672 102.153L47.1415 105.079C43.1023 109.118 43.1072 109.095 45.76 111.748C47.6712 113.659 48.0573 113.875 48.5192 113.291C48.815 112.918 50.2941 111.269 51.807 109.628ZM32.2172 91.2544C31.7657 90.8029 30.5716 89.8075 29.5633 89.0426C27.623 87.57 27.0833 87.7205 25.6972 90.1214C25.1797 91.0184 25.3365 91.3246 27.3436 93.3316L29.5619 95.55L31.2997 93.8123C32.8942 92.2178 32.9696 92.0068 32.2172 91.2544ZM51.1665 60.5212C50.5218 58.8881 49.9066 57.5521 49.7999 57.5532C49.6936 57.5539 47.1033 58.8047 44.0435 60.3325C35.4059 64.6466 30.3849 68.2162 22.6135 75.5686L15.9166 81.9047L18.3074 84.2968L20.6981 86.689L24.3227 82.8399C30.5928 76.182 39.4816 69.7044 47.9909 65.5923L52.3398 63.4906L51.1665 60.5212Z" fill="#CD7FB4"/>
</g>
<defs>
<clipPath id="clip0_11_1901">
<rect width="113.046" height="113.537" fill="white" transform="translate(160.329 80.3475) rotate(135)"/>
</clipPath>
</defs>
</svg>
